Dakkhinee.ufo.1~
<glyph name="uni0000" format="2">
  <advance width="1000"/>
  <unicode hex="0000"/>
  <outline>
    <contour>
      <point x="369" y="654.995" type="curve" smooth="yes"/>
      <point x="619" y="654.995" type="line" smooth="yes"/>
      <point x="625.4" y="654.995"/>
      <point x="631.799" y="652.556"/>
      <point x="636.678" y="647.678" type="curve" smooth="yes"/>
      <point x="641.556" y="642.799"/>
      <point x="643.995" y="636.4"/>
      <point x="643.995" y="630" type="curve" smooth="yes"/>
      <point x="643.995" y="112" type="line" smooth="yes"/>
      <point x="643.995" y="105.6"/>
      <point x="641.556" y="99.2006"/>
      <point x="636.678" y="94.3223" type="curve" smooth="yes"/>
      <point x="631.799" y="89.444"/>
      <point x="625.4" y="87.0049"/>
      <point x="619" y="87.0049" type="curve" smooth="yes"/>
      <point x="369" y="87.0049" type="line" smooth="yes"/>
      <point x="362.6" y="87.0049"/>
      <point x="356.201" y="89.444"/>
      <point x="351.322" y="94.3223" type="curve" smooth="yes"/>
      <point x="346.444" y="99.2006"/>
      <point x="344.005" y="105.6"/>
      <point x="344.005" y="112" type="curve" smooth="yes"/>
      <point x="344.005" y="630" type="line" smooth="yes"/>
      <point x="344.005" y="636.4"/>
      <point x="346.444" y="642.799"/>
      <point x="351.322" y="647.678" type="curve" smooth="yes"/>
      <point x="356.201" y="652.556"/>
      <point x="362.6" y="654.995"/>
    </contour>
    <contour>
      <point x="594.005" y="605.005" type="line"/>
      <point x="393.995" y="605.005" type="line"/>
      <point x="393.995" y="136.995" type="line"/>
      <point x="594.005" y="136.995" type="line"/>
    </contour>
  </outline>
</glyph>
<glyph name="numbersign" format="2">
  <advance width="1000"/>
  <unicode hex="0023"/>
  <outline>
    <contour>
      <point x="198" y="121" type="line"/>
      <point x="226.499" y="152.032"/>
      <point x="258.85" y="171.464"/>
      <point x="300" y="181" type="curve" smooth="yes"/>
      <point x="311.019" y="183.554"/>
      <point x="321.109" y="189"/>
      <point x="334" y="189" type="curve" smooth="yes"/>
      <point x="360.045" y="193.423"/>
      <point x="388.188" y="195.582"/>
      <point x="416" y="195" type="curve" smooth="yes"/>
      <point x="469.796" y="195.712"/>
      <point x="536.62" y="207.366"/>
      <point x="578" y="177" type="curve" smooth="yes"/>
      <point x="579.573" y="175.846"/>
      <point x="612" y="155"/>
      <point x="612" y="155" type="curve" smooth="yes"/>
      <point x="613.692" y="155"/>
      <point x="616" y="169.527"/>
      <point x="616" y="173" type="curve" smooth="yes"/>
      <point x="616" y="191.113"/>
      <point x="591.413" y="212"/>
      <point x="572" y="212" type="curve" smooth="yes"/>
      <point x="571.789" y="212"/>
      <point x="564.481" y="215"/>
      <point x="560" y="215" type="curve" smooth="yes"/>
      <point x="552" y="217" type="line" smooth="yes"/>
      <point x="512" y="223" type="line" smooth="yes"/>
      <point x="464" y="227" type="line" smooth="yes"/>
      <point x="296" y="227" type="line" smooth="yes"/>
      <point x="248" y="205" type="line" smooth="yes"/>
      <point x="214" y="169" type="line" smooth="yes"/>
      <point x="194" y="127" type="line" smooth="yes"/>
    </contour>
    <contour>
      <point x="198" y="253" type="line"/>
      <point x="226.499" y="284.032"/>
      <point x="258.85" y="303.464"/>
      <point x="300" y="313" type="curve" smooth="yes"/>
      <point x="311.019" y="315.554"/>
      <point x="321.109" y="321"/>
      <point x="334" y="321" type="curve" smooth="yes"/>
      <point x="360.045" y="325.423"/>
      <point x="388.188" y="327.582"/>
      <point x="416" y="327" type="curve" smooth="yes"/>
      <point x="469.796" y="327.712"/>
      <point x="536.62" y="339.366"/>
      <point x="578" y="309" type="curve" smooth="yes"/>
      <point x="579.573" y="307.846"/>
      <point x="612" y="287"/>
      <point x="612" y="287" type="curve" smooth="yes"/>
      <point x="613.692" y="287"/>
      <point x="616" y="301.527"/>
      <point x="616" y="305" type="curve" smooth="yes"/>
      <point x="616" y="323.113"/>
      <point x="591.413" y="344"/>
      <point x="572" y="344" type="curve" smooth="yes"/>
      <point x="571.789" y="344"/>
      <point x="564.481" y="347"/>
      <point x="560" y="347" type="curve" smooth="yes"/>
      <point x="552" y="349" type="line" smooth="yes"/>
      <point x="512" y="355" type="line" smooth="yes"/>
      <point x="464" y="359" type="line" smooth="yes"/>
      <point x="296" y="359" type="line" smooth="yes"/>
      <point x="248" y="337" type="line" smooth="yes"/>
      <point x="214" y="301" type="line" smooth="yes"/>
      <point x="194" y="259" type="line" smooth="yes"/>
    </contour>
    <contour>
      <point x="427" y="462" type="line"/>
      <point x="458.032" y="433.501"/>
      <point x="477.464" y="401.15"/>
      <point x="487" y="360" type="curve" smooth="yes"/>
      <point x="489.554" y="348.981"/>
      <point x="495" y="338.891"/>
      <point x="495" y="326" type="curve" smooth="yes"/>
      <point x="499.423" y="299.955"/>
      <point x="501.582" y="271.812"/>
      <point x="501" y="244" type="curve" smooth="yes"/>
      <point x="501.712" y="190.204"/>
      <point x="513.366" y="123.38"/>
      <point x="483" y="82" type="curve" smooth="yes"/>
      <point x="481.846" y="80.4268"/>
      <point x="461" y="48"/>
      <point x="461" y="48" type="curve" smooth="yes"/>
      <point x="461" y="46.3076"/>
      <point x="475.527" y="44"/>
      <point x="479" y="44" type="curve" smooth="yes"/>
      <point x="497.113" y="44"/>
      <point x="518" y="68.5869"/>
      <point x="518" y="88" type="curve" smooth="yes"/>
      <point x="518" y="88.2109"/>
      <point x="521" y="95.5186"/>
      <point x="521" y="100" type="curve" smooth="yes"/>
      <point x="523" y="108" type="line" smooth="yes"/>
      <point x="529" y="148" type="line" smooth="yes"/>
      <point x="533" y="196" type="line" smooth="yes"/>
      <point x="533" y="364" type="line" smooth="yes"/>
      <point x="511" y="412" type="line" smooth="yes"/>
      <point x="475" y="446" type="line" smooth="yes"/>
      <point x="433" y="466" type="line" smooth="yes"/>
    </contour>
    <contour>
      <point x="241" y="462" type="line"/>
      <point x="272.032" y="433.501"/>
      <point x="291.464" y="401.15"/>
      <point x="301" y="360" type="curve" smooth="yes"/>
      <point x="303.554" y="348.981"/>
      <point x="309" y="338.891"/>
      <point x="309" y="326" type="curve" smooth="yes"/>
      <point x="313.423" y="299.955"/>
      <point x="315.582" y="271.811"/>
      <point x="315" y="244" type="curve" smooth="yes"/>
      <point x="315.712" y="190.204"/>
      <point x="327.366" y="123.38"/>
      <point x="297" y="82" type="curve" smooth="yes"/>
      <point x="295.846" y="80.4268"/>
      <point x="275" y="48"/>
      <point x="275" y="48" type="curve" smooth="yes"/>
      <point x="275" y="46.3075"/>
      <point x="289.527" y="44"/>
      <point x="293" y="44" type="curve" smooth="yes"/>
      <point x="311.114" y="44"/>
      <point x="332" y="68.5869"/>
      <point x="332" y="88" type="curve" smooth="yes"/>
      <point x="332" y="88.2109"/>
      <point x="335" y="95.5186"/>
      <point x="335" y="100" type="curve" smooth="yes"/>
      <point x="337" y="108" type="line" smooth="yes"/>
      <point x="343" y="148" type="line" smooth="yes"/>
      <point x="347" y="196" type="line" smooth="yes"/>
      <point x="347" y="364" type="line" smooth="yes"/>
      <point x="325" y="412" type="line" smooth="yes"/>
      <point x="289" y="446" type="line" smooth="yes"/>
      <point x="247" y="466" type="line" smooth="yes"/>
    </contour>
  </outline>
</glyph>
<glyph name="parenleft" format="2">
  <advance width="536"/>
  <unicode hex="0028"/>
  <outline>
    <contour>
      <point x="276.062" y="719.871" type="curve" smooth="yes"/>
      <point x="276.062" y="720.527"/>
      <point x="276.005" y="721.316"/>
      <point x="276.005" y="722" type="curve" smooth="yes"/>
      <point x="276.005" y="728.258"/>
      <point x="276.593" y="728.15"/>
      <point x="277.68" y="731.532" type="curve" smooth="yes"/>
      <point x="278.88" y="735.265"/>
      <point x="281.158" y="741.363"/>
      <point x="282.073" y="744.457" type="curve" smooth="yes"/>
      <point x="282.392" y="750.161"/>
      <point x="283.4" y="752.546"/>
      <point x="284.036" y="755.249" type="curve" smooth="yes"/>
      <point x="284.135" y="757.25"/>
      <point x="284.474" y="759.241"/>
      <point x="285.051" y="761.176" type="curve" smooth="yes"/>
      <point x="290.368" y="778.998"/>
      <point x="291.134" y="793.51"/>
      <point x="300.97" y="811.828" type="curve" smooth="yes"/>
      <point x="304.971" y="819.282"/>
      <point x="313.777" y="824.995"/>
      <point x="323" y="824.995" type="curve" smooth="yes"/>
      <point x="329.4" y="824.995"/>
      <point x="335.799" y="822.556"/>
      <point x="340.678" y="817.678" type="curve" smooth="yes"/>
      <point x="345.556" y="812.799"/>
      <point x="347.995" y="806.4"/>
      <point x="347.995" y="800" type="curve" smooth="yes"/>
      <point x="347.995" y="795.927"/>
      <point x="347.007" y="791.853"/>
      <point x="345.03" y="788.172" type="curve" smooth="yes"/>
      <point x="340.948" y="780.568"/>
      <point x="337.193" y="761.815"/>
      <point x="333.783" y="749.702" type="curve" smooth="yes"/>
      <point x="333.321" y="745.118"/>
      <point x="332.549" y="743.22"/>
      <point x="331.983" y="740.833" type="curve" smooth="yes"/>
      <point x="331.855" y="734.718"/>
      <point x="330.714" y="732.574"/>
      <point x="329.852" y="729.692" type="curve" smooth="yes"/>
      <point x="328.544" y="725.322"/>
      <point x="327.232" y="721.843"/>
      <point x="325.99" y="718.27" type="curve" smooth="yes"/>
      <point x="325.632" y="708.814"/>
      <point x="323.062" y="701.25"/>
      <point x="321.665" y="697.119" type="curve" smooth="yes"/>
      <point x="320.239" y="692.897"/>
      <point x="319.915" y="691.932"/>
      <point x="319.915" y="690.498" type="curve" smooth="yes"/>
      <point x="319.915" y="689.736"/>
      <point x="319.995" y="688.801"/>
      <point x="319.995" y="688" type="curve" smooth="yes"/>
      <point x="319.995" y="685.446"/>
      <point x="319.607" y="682.892"/>
      <point x="318.829" y="680.434" type="curve" smooth="yes"/>
      <point x="314.022" y="665.231"/>
      <point x="312.221" y="648.954"/>
      <point x="306.76" y="632.217" type="curve" smooth="yes"/>
      <point x="303.485" y="622.181"/>
      <point x="297.995" y="590.841"/>
      <point x="297.995" y="582" type="curve" smooth="yes"/>
      <point x="297.995" y="569.272"/>
      <point x="295.01" y="558.761"/>
      <point x="292.923" y="550.564" type="curve" smooth="yes"/>
      <point x="291.161" y="543.643"/>
      <point x="290.153" y="538.304"/>
      <point x="290.012" y="536.394" type="curve" smooth="yes"/>
      <point x="290.102" y="534.603"/>
      <point x="290.145" y="532.822"/>
      <point x="290.145" y="531.057" type="curve" smooth="yes"/>
      <point x="290.145" y="517.57"/>
      <point x="287.67" y="504.996"/>
      <point x="285.15" y="495.536" type="curve" smooth="yes"/>
      <point x="283.482" y="489.272"/>
      <point x="281.995" y="473.201"/>
      <point x="281.995" y="466" type="curve" smooth="yes"/>
      <point x="281.995" y="445.542"/>
      <point x="277.623" y="428.225"/>
      <point x="277.623" y="409.596" type="curve" smooth="yes"/>
      <point x="277.623" y="407.059"/>
      <point x="277.713" y="404.539"/>
      <point x="277.916" y="401.999" type="curve" smooth="yes"/>
      <point x="283.848" y="327.521"/>
      <point x="295.995" y="241.22"/>
      <point x="295.995" y="166" type="curve" smooth="yes"/>
      <point x="295.995" y="159.893"/>
      <point x="297.694" y="152.329"/>
      <point x="297.948" y="144.753" type="curve" smooth="yes"/>
      <point x="307.622" y="96.7591"/>
      <point x="314.726" y="46.7303"/>
      <point x="325.379" y="-0.465701" type="curve" smooth="yes"/>
      <point x="339.186" y="-61.6331"/>
      <point x="358.721" y="-122.805"/>
      <point x="376.604" y="-181.685" type="curve"/>
      <point x="384.207" y="-200.694" type="line" smooth="yes"/>
      <point x="385.399" y="-203.674"/>
      <point x="385.995" y="-206.837"/>
      <point x="385.995" y="-210" type="curve" smooth="yes"/>
      <point x="385.995" y="-216.4"/>
      <point x="383.556" y="-222.799"/>
      <point x="378.678" y="-227.678" type="curve" smooth="yes"/>
      <point x="373.799" y="-232.556"/>
      <point x="367.4" y="-234.995"/>
      <point x="361" y="-234.995" type="curve" smooth="yes"/>
      <point x="350.676" y="-234.995"/>
      <point x="341.276" y="-228.013"/>
      <point x="337.793" y="-219.306" type="curve" smooth="yes"/>
      <point x="329.793" y="-199.306" type="line" smooth="yes"/>
      <point x="329.527" y="-198.642"/>
      <point x="329.291" y="-197.97"/>
      <point x="329.085" y="-197.29" type="curve" smooth="yes"/>
      <point x="310.873" y="-137.286"/>
      <point x="291.185" y="-76.0539"/>
      <point x="276.621" y="-11.5343" type="curve" smooth="yes"/>
      <point x="265.469" y="37.8721"/>
      <point x="258.493" y="87.962"/>
      <point x="248.51" y="136.983" type="curve" smooth="yes"/>
      <point x="248.173" y="138.637"/>
      <point x="248.005" y="140.318"/>
      <point x="248.005" y="142" type="curve" smooth="yes"/>
      <point x="248.005" y="149.255"/>
      <point x="246.005" y="156.791"/>
      <point x="246.005" y="166" type="curve" smooth="yes"/>
      <point x="246.005" y="236.665"/>
      <point x="233.86" y="325.495"/>
      <point x="228.084" y="398.001" type="curve" smooth="yes"/>
      <point x="227.759" y="402.089"/>
      <point x="227.622" y="406.034"/>
      <point x="227.622" y="409.844" type="curve" smooth="yes"/>
      <point x="227.622" y="430.455"/>
      <point x="231.742" y="447.159"/>
      <point x="232.005" y="466.173" type="curve" smooth="yes"/>
      <point x="232.015" y="477.607"/>
      <point x="233.042" y="494.167"/>
      <point x="236.85" y="508.464" type="curve" smooth="yes"/>
      <point x="238.485" y="514.603"/>
      <point x="240.119" y="524.963"/>
      <point x="240.119" y="532.133" type="curve" smooth="yes"/>
      <point x="240.119" y="533.512"/>
      <point x="240.005" y="534.678"/>
      <point x="240.005" y="536" type="curve" smooth="yes"/>
      <point x="240.005" y="553.114"/>
      <point x="248.005" y="568.493"/>
      <point x="248.005" y="582" type="curve" smooth="yes"/>
      <point x="248.005" y="601.181"/>
      <point x="253.504" y="630.204"/>
      <point x="259.24" y="647.783" type="curve" smooth="yes"/>
      <point x="263.622" y="661.21"/>
      <point x="265.772" y="676.981"/>
      <point x="269.981" y="691.621" type="curve" smooth="yes"/>
      <point x="270.28" y="701.261"/>
      <point x="272.894" y="708.989"/>
      <point x="274.311" y="713.181" type="curve" smooth="yes"/>
      <point x="275.753" y="717.449"/>
      <point x="276.062" y="718.401"/>
    </contour>
  </outline>
</glyph>
<glyph name="parenright" format="2">
  <advance width="536"/>
  <unicode hex="0029"/>
  <outline>
    <contour>
      <point x="337.556" y="-129.871" type="curve" smooth="yes"/>
      <point x="337.556" y="-130.527"/>
      <point x="337.612" y="-131.315"/>
      <point x="337.612" y="-132" type="curve" smooth="yes"/>
      <point x="337.612" y="-138.259"/>
      <point x="337.024" y="-138.149"/>
      <point x="335.937" y="-141.532" type="curve" smooth="yes"/>
      <point x="334.737" y="-145.265"/>
      <point x="332.46" y="-151.363"/>
      <point x="331.544" y="-154.457" type="curve" smooth="yes"/>
      <point x="331.225" y="-160.161"/>
      <point x="330.218" y="-162.546"/>
      <point x="329.581" y="-165.249" type="curve" smooth="yes"/>
      <point x="329.482" y="-167.25"/>
      <point x="329.144" y="-169.241"/>
      <point x="328.566" y="-171.177" type="curve" smooth="yes"/>
      <point x="323.25" y="-188.998"/>
      <point x="322.482" y="-203.51"/>
      <point x="312.647" y="-221.828" type="curve" smooth="yes"/>
      <point x="308.646" y="-229.281"/>
      <point x="299.841" y="-234.995"/>
      <point x="290.617" y="-234.995" type="curve" smooth="yes"/>
      <point x="284.218" y="-234.995"/>
      <point x="277.817" y="-232.556"/>
      <point x="272.939" y="-227.678" type="curve" smooth="yes"/>
      <point x="268.062" y="-222.8"/>
      <point x="265.622" y="-216.399"/>
      <point x="265.622" y="-210" type="curve" smooth="yes"/>
      <point x="265.622" y="-205.927"/>
      <point x="266.61" y="-201.854"/>
      <point x="268.587" y="-198.172" type="curve" smooth="yes"/>
      <point x="272.669" y="-190.567"/>
      <point x="276.424" y="-171.814"/>
      <point x="279.834" y="-159.702" type="curve" smooth="yes"/>
      <point x="280.296" y="-155.117"/>
      <point x="281.068" y="-153.22"/>
      <point x="281.634" y="-150.833" type="curve" smooth="yes"/>
      <point x="281.763" y="-144.719"/>
      <point x="282.902" y="-142.573"/>
      <point x="283.766" y="-139.692" type="curve" smooth="yes"/>
      <point x="285.073" y="-135.322"/>
      <point x="286.386" y="-131.844"/>
      <point x="287.627" y="-128.27" type="curve" smooth="yes"/>
      <point x="287.985" y="-118.814"/>
      <point x="290.556" y="-111.25"/>
      <point x="291.952" y="-107.119" type="curve" smooth="yes"/>
      <point x="293.379" y="-102.897"/>
      <point x="293.702" y="-101.933"/>
      <point x="293.702" y="-100.498" type="curve" smooth="yes"/>
      <point x="293.702" y="-99.7363"/>
      <point x="293.622" y="-98.8008"/>
      <point x="293.622" y="-98" type="curve" smooth="yes"/>
      <point x="293.622" y="-95.4453"/>
      <point x="294.011" y="-92.8916"/>
      <point x="294.788" y="-90.4336" type="curve" smooth="yes"/>
      <point x="299.595" y="-75.2305"/>
      <point x="301.396" y="-58.9541"/>
      <point x="306.857" y="-42.2168" type="curve" smooth="yes"/>
      <point x="310.132" y="-32.1816"/>
      <point x="315.622" y="-0.84082"/>
      <point x="315.622" y="8" type="curve" smooth="yes"/>
      <point x="315.622" y="20.7275"/>
      <point x="318.607" y="31.2393"/>
      <point x="320.694" y="39.4355" type="curve" smooth="yes"/>
      <point x="322.456" y="46.3564"/>
      <point x="323.464" y="51.6953"/>
      <point x="323.605" y="53.6055" type="curve" smooth="yes"/>
      <point x="323.515" y="55.3975"/>
      <point x="323.473" y="57.1777"/>
      <point x="323.473" y="58.9434" type="curve" smooth="yes"/>
      <point x="323.473" y="72.4297"/>
      <point x="325.947" y="85.0039"/>
      <point x="328.467" y="94.4639" type="curve" smooth="yes"/>
      <point x="330.135" y="100.729"/>
      <point x="331.622" y="116.799"/>
      <point x="331.622" y="124" type="curve" smooth="yes"/>
      <point x="331.622" y="144.458"/>
      <point x="335.994" y="161.774"/>
      <point x="335.994" y="180.404" type="curve" smooth="yes"/>
      <point x="335.994" y="182.941"/>
      <point x="335.904" y="185.461"/>
      <point x="335.701" y="188.001" type="curve" smooth="yes"/>
      <point x="329.77" y="262.479"/>
      <point x="317.622" y="348.779"/>
      <point x="317.622" y="424" type="curve" smooth="yes"/>
      <point x="317.622" y="430.107"/>
      <point x="315.923" y="437.671"/>
      <point x="315.669" y="445.246" type="curve" smooth="yes"/>
      <point x="305.995" y="493.241"/>
      <point x="298.892" y="543.27"/>
      <point x="288.238" y="590.466" type="curve" smooth="yes"/>
      <point x="274.432" y="651.633"/>
      <point x="254.896" y="712.806"/>
      <point x="237.014" y="771.686" type="curve"/>
      <point x="229.41" y="790.694" type="line" smooth="yes"/>
      <point x="228.218" y="793.674"/>
      <point x="227.622" y="796.837"/>
      <point x="227.622" y="800" type="curve" smooth="yes"/>
      <point x="227.622" y="806.399"/>
      <point x="230.062" y="812.8"/>
      <point x="234.939" y="817.678" type="curve" smooth="yes"/>
      <point x="239.817" y="822.556"/>
      <point x="246.218" y="824.995"/>
      <point x="252.617" y="824.995" type="curve" smooth="yes"/>
      <point x="262.941" y="824.995"/>
      <point x="272.342" y="818.014"/>
      <point x="275.824" y="809.306" type="curve" smooth="yes"/>
      <point x="283.824" y="789.306" type="line" smooth="yes"/>
      <point x="284.09" y="788.643"/>
      <point x="284.326" y="787.97"/>
      <point x="284.532" y="787.29" type="curve" smooth="yes"/>
      <point x="302.744" y="727.286"/>
      <point x="322.433" y="666.054"/>
      <point x="336.996" y="601.534" type="curve" smooth="yes"/>
      <point x="348.148" y="552.128"/>
      <point x="355.125" y="502.038"/>
      <point x="365.107" y="453.018" type="curve" smooth="yes"/>
      <point x="365.444" y="451.363"/>
      <point x="365.612" y="449.682"/>
      <point x="365.612" y="448" type="curve" smooth="yes"/>
      <point x="365.612" y="440.745"/>
      <point x="367.612" y="433.209"/>
      <point x="367.612" y="424" type="curve" smooth="yes"/>
      <point x="367.612" y="353.335"/>
      <point x="379.758" y="264.505"/>
      <point x="385.533" y="191.999" type="curve" smooth="yes"/>
      <point x="385.858" y="187.911"/>
      <point x="385.995" y="183.966"/>
      <point x="385.995" y="180.156" type="curve" smooth="yes"/>
      <point x="385.995" y="159.545"/>
      <point x="381.876" y="142.841"/>
      <point x="381.612" y="123.827" type="curve" smooth="yes"/>
      <point x="381.602" y="112.393"/>
      <point x="380.575" y="95.833"/>
      <point x="376.768" y="81.5361" type="curve" smooth="yes"/>
      <point x="375.133" y="75.3975"/>
      <point x="373.498" y="65.0371"/>
      <point x="373.498" y="57.8672" type="curve" smooth="yes"/>
      <point x="373.498" y="56.4883"/>
      <point x="373.612" y="55.3213"/>
      <point x="373.612" y="54" type="curve" smooth="yes"/>
      <point x="373.612" y="36.8857"/>
      <point x="365.612" y="21.5068"/>
      <point x="365.612" y="8" type="curve" smooth="yes"/>
      <point x="365.612" y="-11.1816"/>
      <point x="360.113" y="-40.2041"/>
      <point x="354.377" y="-57.7832" type="curve" smooth="yes"/>
      <point x="349.995" y="-71.21"/>
      <point x="347.846" y="-86.9814"/>
      <point x="343.636" y="-101.621" type="curve" smooth="yes"/>
      <point x="343.338" y="-111.261"/>
      <point x="340.724" y="-118.989"/>
      <point x="339.307" y="-123.182" type="curve" smooth="yes"/>
      <point x="337.864" y="-127.448"/>
      <point x="337.556" y="-128.401"/>
    </contour>
  </outline>
</glyph>
<glyph name="period" format="2">
  <advance width="134"/>
  <unicode hex="002E"/>
  <outline>
    <contour>
      <point x="30" y="104" type="curve" smooth="yes"/>
      <point x="41" y="117"/>
      <point x="54" y="122"/>
      <point x="71.249" y="119.445" type="curve" smooth="yes"/>
      <point x="88" y="117"/>
      <point x="99" y="108"/>
      <point x="105.249" y="91.4453" type="curve" smooth="yes"/>
      <point x="111" y="75"/>
      <point x="109" y="61"/>
      <point x="98" y="48" type="curve" smooth="yes"/>
      <point x="87" y="35"/>
      <point x="74" y="30"/>
      <point x="56.751" y="32.5547" type="curve" smooth="yes"/>
      <point x="40" y="35"/>
      <point x="29" y="44"/>
      <point x="22.751" y="60.5547" type="curve" smooth="yes"/>
      <point x="17" y="77"/>
      <point x="19" y="91"/>
    </contour>
  </outline>
</glyph>
<glyph name="three" format="2">
  <advance width="440"/>
  <unicode hex="0033"/>
  <outline>
    <contour>
      <point x="338.005" y="564" type="curve" smooth="yes"/>
      <point x="338.005" y="568.031"/>
      <point x="338.415" y="572.098"/>
      <point x="338.415" y="576.021" type="curve" smooth="yes"/>
      <point x="338.415" y="592.583"/>
      <point x="335.553" y="610.906"/>
      <point x="334.097" y="627.844" type="curve" smooth="yes"/>
      <point x="334.036" y="628.561"/>
      <point x="334.005" y="629.281"/>
      <point x="334.005" y="630" type="curve" smooth="yes"/>
      <point x="334.005" y="658.152"/>
      <point x="326.104" y="670.984"/>
      <point x="314.342" y="682.746" type="curve" smooth="yes"/>
      <point x="307.277" y="689.812"/>
      <point x="297.902" y="696.592"/>
      <point x="287.111" y="704.22" type="curve" smooth="yes"/>
      <point x="274.891" y="712.858"/>
      <point x="259.657" y="723.757"/>
      <point x="247.403" y="737.005" type="curve"/>
      <point x="200.166" y="737.005" type="line"/>
      <point x="117.226" y="715.788" type="line" smooth="yes"/>
      <point x="115.186" y="715.266"/>
      <point x="113.093" y="715.005"/>
      <point x="111" y="715.005" type="curve" smooth="yes"/>
      <point x="104.6" y="715.005"/>
      <point x="98.2006" y="717.444"/>
      <point x="93.3223" y="722.322" type="curve" smooth="yes"/>
      <point x="88.444" y="727.201"/>
      <point x="86.0049" y="733.6"/>
      <point x="86.0049" y="740" type="curve" smooth="yes"/>
      <point x="86.0049" y="751.519"/>
      <point x="94.5006" y="761.584"/>
      <point x="104.774" y="764.212" type="curve" smooth="yes"/>
      <point x="190.774" y="786.212" type="line" smooth="yes"/>
      <point x="192.814" y="786.734"/>
      <point x="194.907" y="786.995"/>
      <point x="197" y="786.995" type="curve" smooth="yes"/>
      <point x="259" y="786.995" type="line" smooth="yes"/>
      <point x="266.64" y="786.995"/>
      <point x="274.357" y="783.088"/>
      <point x="278.889" y="777.151" type="curve" smooth="yes"/>
      <point x="288.937" y="763.988"/>
      <point x="301.001" y="755.641"/>
      <point x="315.94" y="745.081" type="curve" smooth="yes"/>
      <point x="326.699" y="737.476"/>
      <point x="338.539" y="729.26"/>
      <point x="349.698" y="718.102" type="curve" smooth="yes"/>
      <point x="369.179" y="698.621"/>
      <point x="383.717" y="670.774"/>
      <point x="383.991" y="631.142" type="curve" smooth="yes"/>
      <point x="385.609" y="612.904"/>
      <point x="388.409" y="596.638"/>
      <point x="388.409" y="576.134" type="curve" smooth="yes"/>
      <point x="388.409" y="572.484"/>
      <point x="388.314" y="568.735"/>
      <point x="388.098" y="564.873" type="curve" smooth="yes"/>
      <point x="388.642" y="560.364"/>
      <point x="388.903" y="555.923"/>
      <point x="388.903" y="551.557" type="curve" smooth="yes"/>
      <point x="388.903" y="489.322"/>
      <point x="338.327" y="446.246"/>
      <point x="286.952" y="433.719" type="curve" smooth="yes"/>
      <point x="271.497" y="429.951"/>
      <point x="248.784" y="424.174"/>
      <point x="239.88" y="415.269" type="curve" smooth="yes"/>
      <point x="238.154" y="413.543"/>
      <point x="237.985" y="413.028"/>
      <point x="237.985" y="412.45" type="curve" smooth="yes"/>
      <point x="237.985" y="412.31"/>
      <point x="237.995" y="412.166"/>
      <point x="237.995" y="412" type="curve" smooth="yes"/>
      <point x="237.995" y="410.371"/>
      <point x="237.837" y="408.741"/>
      <point x="237.521" y="407.137" type="curve" smooth="yes"/>
      <point x="235.243" y="395.583"/>
      <point x="237.068" y="385.708"/>
      <point x="232.815" y="372.363" type="curve" smooth="yes"/>
      <point x="232.696" y="371.787"/>
      <point x="232.629" y="370.245"/>
      <point x="232.629" y="368.082" type="curve" smooth="yes"/>
      <point x="232.629" y="359.966"/>
      <point x="233.995" y="348.941"/>
      <point x="233.995" y="340" type="curve" smooth="yes"/>
      <point x="233.995" y="338.51"/>
      <point x="234.278" y="337.228"/>
      <point x="236.347" y="331.862" type="curve" smooth="yes"/>
      <point x="237.625" y="328.549"/>
      <point x="239.69" y="323.454"/>
      <point x="240.937" y="316.956" type="curve"/>
      <point x="249.59" y="311.922"/>
      <point x="256.856" y="310.222"/>
      <point x="266.934" y="301.313" type="curve"/>
      <point x="291.165" y="290.476"/>
      <point x="301.763" y="273.413"/>
      <point x="319.791" y="260.159" type="curve" smooth="yes"/>
      <point x="327.149" y="254.749"/>
      <point x="334.976" y="247.896"/>
      <point x="342.927" y="239.945" type="curve" smooth="yes"/>
      <point x="355.517" y="227.355"/>
      <point x="368.282" y="212.2"/>
      <point x="377.885" y="195.869" type="curve" smooth="yes"/>
      <point x="384.895" y="183.949"/>
      <point x="391.013" y="170.827"/>
      <point x="391.888" y="155.703" type="curve" smooth="yes"/>
      <point x="395.486" y="141.598"/>
      <point x="396.042" y="129.691"/>
      <point x="396.042" y="117.348" type="curve" smooth="yes"/>
      <point x="396.042" y="115.587"/>
      <point x="396.031" y="113.816"/>
      <point x="396.015" y="112.03" type="curve" smooth="yes"/>
      <point x="397.011" y="105.869"/>
      <point x="397.495" y="99.8557"/>
      <point x="397.495" y="94.021" type="curve" smooth="yes"/>
      <point x="397.495" y="68.6688"/>
      <point x="388.357" y="46.6934"/>
      <point x="372.385" y="30.7213" type="curve" smooth="yes"/>
      <point x="358.274" y="16.6108"/>
      <point x="340.52" y="7.98863"/>
      <point x="321.959" y="2.96626" type="curve" smooth="yes"/>
      <point x="307.569" y="-0.927698"/>
      <point x="292.453" y="-2.72053"/>
      <point x="277.321" y="-2.72053" type="curve" smooth="yes"/>
      <point x="247.848" y="-2.72053"/>
      <point x="223.914" y="4.56017"/>
      <point x="191.854" y="4.56017" type="curve" smooth="yes"/>
      <point x="184.705" y="4.56017"/>
      <point x="178.954" y="4.16754"/>
      <point x="176.537" y="3.62174" type="curve" smooth="yes"/>
      <point x="174.716" y="3.21052"/>
      <point x="172.858" y="3.0049"/>
      <point x="171" y="3.0049" type="curve" smooth="yes"/>
      <point x="168.174" y="3.0049"/>
      <point x="165.348" y="3.48046"/>
      <point x="162.654" y="4.43158" type="curve" smooth="yes"/>
      <point x="128.654" y="16.4316" type="line" smooth="yes"/>
      <point x="119.481" y="19.6688"/>
      <point x="112.005" y="29.275"/>
      <point x="112.005" y="40" type="curve" smooth="yes"/>
      <point x="112.005" y="46.3997"/>
      <point x="114.444" y="52.7994"/>
      <point x="119.322" y="57.6777" type="curve" smooth="yes"/>
      <point x="124.201" y="62.556"/>
      <point x="130.6" y="64.9951"/>
      <point x="137" y="64.9951" type="curve" smooth="yes"/>
      <point x="139.826" y="64.9951"/>
      <point x="142.652" y="64.5195"/>
      <point x="145.346" y="63.5684" type="curve" smooth="yes"/>
      <point x="173.171" y="53.7479" type="line"/>
      <point x="178.569" y="54.4665"/>
      <point x="184.073" y="54.7335"/>
      <point x="189.672" y="54.7335" type="curve" smooth="yes"/>
      <point x="212.085" y="54.7335"/>
      <point x="240.217" y="51.0405"/>
      <point x="256.505" y="48.75" type="curve" smooth="yes"/>
      <point x="263.314" y="47.7924"/>
      <point x="270.236" y="47.3157"/>
      <point x="277.043" y="47.3157" type="curve" smooth="yes"/>
      <point x="301.875" y="47.3157"/>
      <point x="325.375" y="54.4226"/>
      <point x="337.03" y="66.0766" type="curve" smooth="yes"/>
      <point x="343.289" y="72.3361"/>
      <point x="347.681" y="80.1668"/>
      <point x="347.681" y="92.7349" type="curve" smooth="yes"/>
      <point x="347.681" y="96.5216"/>
      <point x="347.282" y="100.738"/>
      <point x="346.416" y="105.472" type="curve" smooth="yes"/>
      <point x="346.142" y="106.968"/>
      <point x="346.005" y="108.484"/>
      <point x="346.005" y="110" type="curve" smooth="yes"/>
      <point x="346.005" y="113.544"/>
      <point x="346.073" y="116.743"/>
      <point x="346.073" y="119.517" type="curve" smooth="yes"/>
      <point x="346.073" y="129.92"/>
      <point x="345.599" y="135.726"/>
      <point x="342.936" y="145.219" type="curve" smooth="yes"/>
      <point x="342.315" y="147.433"/>
      <point x="342.005" y="149.717"/>
      <point x="342.005" y="152" type="curve" smooth="yes"/>
      <point x="342.005" y="153.953"/>
      <point x="340.13" y="161.416"/>
      <point x="334.768" y="170.533" type="curve" smooth="yes"/>
      <point x="324.864" y="187.377"/>
      <point x="305.856" y="208.337"/>
      <point x="290.209" y="219.841" type="curve" smooth="yes"/>
      <point x="281.63" y="226.149"/>
      <point x="274.67" y="232.711"/>
      <point x="268.656" y="238.325" type="curve" smooth="yes"/>
      <point x="258.095" y="248.183"/>
      <point x="250.802" y="254.184"/>
      <point x="244.396" y="256.524" type="curve" smooth="yes"/>
      <point x="240.639" y="257.896"/>
      <point x="237.094" y="260.314"/>
      <point x="234.322" y="263.378" type="curve" smooth="yes"/>
      <point x="233.907" y="263.794"/>
      <point x="230.65" y="265.965"/>
      <point x="224.773" y="268.905" type="curve" smooth="yes"/>
      <point x="219.26" y="271.664"/>
      <point x="211.209" y="275.097"/>
      <point x="203.137" y="283.168" type="curve" smooth="yes"/>
      <point x="198.129" y="288.177"/>
      <point x="192.005" y="296.137"/>
      <point x="192.005" y="306" type="curve" smooth="yes"/>
      <point x="192.005" y="307.271"/>
      <point x="191.76" y="308.5"/>
      <point x="189.705" y="313.83" type="curve" smooth="yes"/>
      <point x="187.756" y="318.884"/>
      <point x="184.005" y="328.067"/>
      <point x="184.005" y="340" type="curve" smooth="yes"/>
      <point x="184.005" y="347.841"/>
      <point x="182.498" y="357.841"/>
      <point x="182.498" y="367.253" type="curve" smooth="yes"/>
      <point x="182.498" y="373.974"/>
      <point x="182.724" y="379.912"/>
      <point x="185.193" y="387.638" type="curve" smooth="yes"/>
      <point x="186.739" y="392.476"/>
      <point x="186.737" y="406.889"/>
      <point x="188.073" y="414.658" type="curve" smooth="yes"/>
      <point x="189.621" y="444.901"/>
      <point x="214.691" y="461.715"/>
      <point x="236.535" y="470.597" type="curve" smooth="yes"/>
      <point x="250.262" y="476.18"/>
      <point x="264.115" y="479.615"/>
      <point x="275.048" y="482.281" type="curve" smooth="yes"/>
      <point x="305.983" y="489.824"/>
      <point x="338.936" y="515.101"/>
      <point x="338.936" y="551.257" type="curve" smooth="yes"/>
      <point x="338.936" y="555.388"/>
      <point x="338.005" y="559.766"/>
    </contour>
  </outline>
</glyph>
<glyph name="four" format="2">
  <advance width="584"/>
  <unicode hex="0034"/>
  <outline>
    <contour>
      <point x="465.126" y="597.209" type="curve" smooth="yes"/>
      <point x="465.126" y="607.726"/>
      <point x="466.526" y="617.392"/>
      <point x="466.526" y="627.335" type="curve" smooth="yes"/>
      <point x="466.526" y="687.681"/>
      <point x="436.77" y="741.841"/>
      <point x="401.985" y="774.817" type="curve" smooth="yes"/>
      <point x="395.844" y="780.639"/>
      <point x="392.543" y="788.751"/>
      <point x="392.543" y="796.779" type="curve" smooth="yes"/>
      <point x="392.543" y="804.523"/>
      <point x="395.494" y="812.268"/>
      <point x="401.396" y="818.17" type="curve" smooth="yes"/>
      <point x="407.298" y="824.072"/>
      <point x="415.043" y="827.024"/>
      <point x="422.786" y="827.024" type="curve" smooth="yes"/>
      <point x="430.275" y="827.024"/>
      <point x="437.766" y="824.264"/>
      <point x="443.589" y="818.743" type="curve" smooth="yes"/>
      <point x="488.371" y="776.289"/>
      <point x="527.06" y="707.951"/>
      <point x="527.06" y="627.986" type="curve" smooth="yes"/>
      <point x="527.06" y="617.887"/>
      <point x="525.615" y="607.93"/>
      <point x="525.615" y="597.27" type="curve" smooth="yes"/>
      <point x="525.615" y="576.729"/>
      <point x="526.165" y="556.19"/>
      <point x="526.165" y="535.478" type="curve" smooth="yes"/>
      <point x="526.165" y="513.515"/>
      <point x="525.496" y="491.129"/>
      <point x="522.577" y="468.644" type="curve"/>
      <point x="530.35" y="469.585"/>
      <point x="538.081" y="471.284"/>
      <point x="546.207" y="471.284" type="curve" smooth="yes"/>
      <point x="553.949" y="471.284"/>
      <point x="561.694" y="468.332"/>
      <point x="567.597" y="462.431" type="curve" smooth="yes"/>
      <point x="573.499" y="456.527"/>
      <point x="576.45" y="448.783"/>
      <point x="576.45" y="441.04" type="curve" smooth="yes"/>
      <point x="576.45" y="425.806"/>
      <point x="564.283" y="412.765"/>
      <point x="549.871" y="411.018" type="curve" smooth="yes"/>
      <point x="509.261" y="406.095" type="line"/>
      <point x="492.678" y="293.284"/>
      <point x="443.409" y="185.215"/>
      <point x="374.352" y="93.7188" type="curve" smooth="yes"/>
      <point x="367.312" y="84.3916"/>
      <point x="310.186" y="19.459"/>
      <point x="308.656" y="17.9307" type="curve" smooth="yes"/>
      <point x="306.617" y="15.8916"/>
      <point x="304.359" y="14.2041"/>
      <point x="301.957" y="12.8701" type="curve" smooth="yes"/>
      <point x="280.176" y="0.769531" type="line" smooth="yes"/>
      <point x="275.624" y="-1.75977"/>
      <point x="270.556" y="-3.02441"/>
      <point x="265.486" y="-3.02441" type="curve" smooth="yes"/>
      <point x="257.743" y="-3.02441"/>
      <point x="249.998" y="-0.0722656"/>
      <point x="244.097" y="5.83008" type="curve" smooth="yes"/>
      <point x="238.193" y="11.7324"/>
      <point x="235.243" y="19.4766"/>
      <point x="235.243" y="27.2197" type="curve" smooth="yes"/>
      <point x="235.243" y="38.2031"/>
      <point x="241.963" y="48.7637"/>
      <point x="250.797" y="53.6699" type="curve" smooth="yes"/>
      <point x="267.97" y="63.2119" type="line"/>
      <point x="280.147" y="77.1514"/>
      <point x="314.75" y="116.802"/>
      <point x="326.021" y="130.121" type="curve" smooth="yes"/>
      <point x="386.142" y="209.775"/>
      <point x="429.451" y="302.721"/>
      <point x="446.641" y="397.992" type="curve"/>
      <point x="385.952" y="389.322" type="line" smooth="yes"/>
      <point x="384.993" y="389.185"/>
      <point x="384.028" y="389.094"/>
      <point x="383.062" y="389.049" type="curve" smooth="yes"/>
      <point x="279.002" y="384.209" type="line" smooth="yes"/>
      <point x="278.53" y="384.187"/>
      <point x="278.059" y="384.176"/>
      <point x="277.586" y="384.176" type="curve" smooth="yes"/>
      <point x="276.096" y="384.176"/>
      <point x="274.604" y="384.286"/>
      <point x="273.125" y="384.504" type="curve" smooth="yes"/>
      <point x="207.785" y="394.184" type="line" smooth="yes"/>
      <point x="206.916" y="394.312"/>
      <point x="206.052" y="394.479"/>
      <point x="205.194" y="394.685" type="curve" smooth="yes"/>
      <point x="165.133" y="404.235"/>
      <point x="121.299" y="427.705"/>
      <point x="93.2275" y="452.047" type="curve" smooth="yes"/>
      <point x="50.6953" y="488.932"/>
      <point x="6.82324" y="544.741"/>
      <point x="6.82324" y="614.047" type="curve" smooth="yes"/>
      <point x="6.82324" y="619.744"/>
      <point x="7.12305" y="625.531"/>
      <point x="7.75" y="631.402" type="curve" smooth="yes"/>
      <point x="7.60742" y="641.328"/>
      <point x="6.53613" y="651.475"/>
      <point x="6.53613" y="662.391" type="curve" smooth="yes"/>
      <point x="6.53613" y="668.934"/>
      <point x="6.92871" y="675.956"/>
      <point x="8.20312" y="683.365" type="curve" smooth="yes"/>
      <point x="12.8379" y="710.28"/>
      <point x="9.99512" y="735.807"/>
      <point x="19.8623" y="763.714" type="curve"/>
      <point x="19.8623" y="779.841" type="line" smooth="yes"/>
      <point x="19.8623" y="788.792"/>
      <point x="24.1221" y="796.343"/>
      <point x="26.8662" y="803.2" type="curve" smooth="yes"/>
      <point x="31.0801" y="813.734"/>
      <point x="42.4502" y="822.184"/>
      <point x="54.9463" y="822.184" type="curve" smooth="yes"/>
      <point x="62.6895" y="822.184"/>
      <point x="70.4336" y="819.232"/>
      <point x="76.3369" y="813.33" type="curve" smooth="yes"/>
      <point x="82.2383" y="807.428"/>
      <point x="85.1904" y="799.684"/>
      <point x="85.1904" y="791.94" type="curve" smooth="yes"/>
      <point x="85.1904" y="785.221"/>
      <point x="82.4258" y="779.174"/>
      <point x="80.3496" y="773.987" type="curve"/>
      <point x="80.3496" y="758.06" type="line" smooth="yes"/>
      <point x="80.3496" y="754.023"/>
      <point x="79.5479" y="749.985"/>
      <point x="77.9453" y="746.211" type="curve" smooth="yes"/>
      <point x="72.1133" y="732.485"/>
      <point x="71.4941" y="694.437"/>
      <point x="67.8096" y="673.035" type="curve" smooth="yes"/>
      <point x="67.3486" y="670.363"/>
      <point x="67.1621" y="666.668"/>
      <point x="67.1621" y="662.261" type="curve" smooth="yes"/>
      <point x="67.1621" y="652.014"/>
      <point x="68.25" y="640.781"/>
      <point x="68.25" y="629.8" type="curve" smooth="yes"/>
      <point x="68.25" y="624.756"/>
      <point x="67.3564" y="619.695"/>
      <point x="67.3564" y="614.665" type="curve" smooth="yes"/>
      <point x="67.3564" y="577.303"/>
      <point x="88.5156" y="541.117"/>
      <point x="118.675" y="510.958" type="curve" smooth="yes"/>
      <point x="123.262" y="506.37"/>
      <point x="128.007" y="501.97"/>
      <point x="132.824" y="497.794" type="curve" smooth="yes"/>
      <point x="151.44" y="481.649"/>
      <point x="190.555" y="460.709"/>
      <point x="218.095" y="453.81" type="curve"/>
      <point x="279.125" y="444.768" type="line"/>
      <point x="378.779" y="449.403" type="line"/>
      <point x="460.012" y="461.008" type="line"/>
      <point x="464.585" y="485.485"/>
      <point x="465.592" y="512.013"/>
      <point x="465.592" y="540.373" type="curve" smooth="yes"/>
      <point x="465.592" y="559.186"/>
      <point x="465.126" y="578.133"/>
    </contour>
  </outline>
</glyph>
<glyph name="seven" format="2">
  <advance width="438"/>
  <unicode hex="0037"/>
  <outline>
    <contour>
      <point x="151.241" y="657.146" type="curve" smooth="yes"/>
      <point x="146.956" y="657.146"/>
      <point x="142.955" y="656.981"/>
      <point x="138.775" y="656.981" type="curve" smooth="yes"/>
      <point x="90.5143" y="656.981"/>
      <point x="53.3129" y="683.942"/>
      <point x="26.0037" y="711.251" type="curve" smooth="yes"/>
      <point x="9.75689" y="727.498"/>
      <point x="-3.67104" y="744.552"/>
      <point x="-14.684" y="758.584" type="curve" smooth="yes"/>
      <point x="-18.2247" y="763.096"/>
      <point x="-19.9951" y="768.548"/>
      <point x="-19.9951" y="774" type="curve" smooth="yes"/>
      <point x="-19.9951" y="780.4"/>
      <point x="-17.556" y="786.799"/>
      <point x="-12.6777" y="791.678" type="curve" smooth="yes"/>
      <point x="-7.79938" y="796.556"/>
      <point x="-1.39969" y="798.995"/>
      <point x="5" y="798.995" type="curve" smooth="yes"/>
      <point x="12.5071" y="798.995"/>
      <point x="20.1184" y="795.233"/>
      <point x="24.684" y="789.416" type="curve" smooth="yes"/>
      <point x="35.5748" y="775.539"/>
      <point x="47.8074" y="760.158"/>
      <point x="61.3591" y="746.606" type="curve" smooth="yes"/>
      <point x="84.8328" y="723.132"/>
      <point x="110.43" y="706.973"/>
      <point x="138.872" y="706.973" type="curve" smooth="yes"/>
      <point x="143.067" y="706.973"/>
      <point x="147.263" y="707.139"/>
      <point x="151.373" y="707.139" type="curve" smooth="yes"/>
      <point x="162.797" y="707.139"/>
      <point x="174.201" y="706.709"/>
      <point x="185.373" y="706.709" type="curve" smooth="yes"/>
      <point x="212.031" y="706.709"/>
      <point x="233.52" y="708.92"/>
      <point x="251.029" y="720.736" type="curve" smooth="yes"/>
      <point x="253.767" y="722.584"/>
      <point x="256.791" y="723.831"/>
      <point x="259.916" y="724.476" type="curve" smooth="yes"/>
      <point x="263.986" y="725.317"/>
      <point x="269.189" y="727.627"/>
      <point x="276.689" y="731.338" type="curve" smooth="yes"/>
      <point x="286.979" y="736.43"/>
      <point x="302.213" y="744.248"/>
      <point x="322.551" y="744.947" type="curve" smooth="yes"/>
      <point x="326.75" y="745.621"/>
      <point x="330.888" y="745.943"/>
      <point x="334.945" y="745.943" type="curve" smooth="yes"/>
      <point x="376.896" y="745.943"/>
      <point x="408.383" y="712.924"/>
      <point x="413.74" y="675.572" type="curve" smooth="yes"/>
      <point x="415.764" y="661.464"/>
      <point x="415.995" y="647.272"/>
      <point x="415.995" y="632" type="curve" smooth="yes"/>
      <point x="415.995" y="631.294"/>
      <point x="415.965" y="630.588"/>
      <point x="415.906" y="629.883" type="curve" smooth="yes"/>
      <point x="413.332" y="599.376"/>
      <point x="399.99" y="577.847"/>
      <point x="389.316" y="556.72" type="curve" smooth="yes"/>
      <point x="370.564" y="519.603"/>
      <point x="343.591" y="478.233"/>
      <point x="333.166" y="439.594" type="curve" smooth="yes"/>
      <point x="315.889" y="374.094"/>
      <point x="303.074" y="307.125"/>
      <point x="295.854" y="239.334" type="curve" smooth="yes"/>
      <point x="294.209" y="223.89"/>
      <point x="293.907" y="207.886"/>
      <point x="293.907" y="191.072" type="curve" smooth="yes"/>
      <point x="293.907" y="182.089"/>
      <point x="293.995" y="173.083"/>
      <point x="293.995" y="164" type="curve" smooth="yes"/>
      <point x="293.995" y="156.862"/>
      <point x="293.295" y="149.736"/>
      <point x="293.295" y="142.859" type="curve" smooth="yes"/>
      <point x="293.295" y="111.098"/>
      <point x="299.221" y="82.1497"/>
      <point x="307.31" y="55.2845" type="curve" smooth="yes"/>
      <point x="310.305" y="45.3371"/>
      <point x="313.586" y="34.5128"/>
      <point x="316.28" y="22.6306" type="curve"/>
      <point x="319.017" y="18.9815" type="line" smooth="yes"/>
      <point x="322.336" y="14.5568"/>
      <point x="323.995" y="9.27838"/>
      <point x="323.995" y="4" type="curve" smooth="yes"/>
      <point x="323.995" y="-2.39969"/>
      <point x="321.556" y="-8.79938"/>
      <point x="316.678" y="-13.6777" type="curve" smooth="yes"/>
      <point x="311.799" y="-18.556"/>
      <point x="305.4" y="-20.9951"/>
      <point x="299" y="-20.9951" type="curve" smooth="yes"/>
      <point x="291.276" y="-20.9951"/>
      <point x="283.494" y="-16.9962"/>
      <point x="278.983" y="-10.9815" type="curve" smooth="yes"/>
      <point x="275.071" y="-5.7657"/>
      <point x="269.985" y="-0.25093"/>
      <point x="268.511" y="6.97622" type="curve" smooth="yes"/>
      <point x="265.694" y="20.795"/>
      <point x="261.087" y="35.1515"/>
      <point x="257.03" y="48.8922" type="curve" smooth="yes"/>
      <point x="248.388" y="78.1669"/>
      <point x="243.317" y="109.378"/>
      <point x="243.317" y="143.146" type="curve" smooth="yes"/>
      <point x="243.317" y="150.251"/>
      <point x="243.542" y="157.468"/>
      <point x="244.005" y="164.805" type="curve" smooth="yes"/>
      <point x="244" y="173.96"/>
      <point x="243.909" y="183.09"/>
      <point x="243.909" y="192.289" type="curve" smooth="yes"/>
      <point x="243.909" y="209.311"/>
      <point x="244.235" y="226.72"/>
      <point x="246.146" y="244.666" type="curve" smooth="yes"/>
      <point x="253.661" y="315.221"/>
      <point x="266.97" y="384.678"/>
      <point x="284.834" y="452.406" type="curve" smooth="yes"/>
      <point x="297.923" y="500.917"/>
      <point x="324.03" y="538.421"/>
      <point x="344.632" y="579.176" type="curve" smooth="yes"/>
      <point x="346.289" y="582.534"/>
      <point x="347.924" y="585.756"/>
      <point x="349.5" y="588.861" type="curve" smooth="yes"/>
      <point x="358.452" y="606.502"/>
      <point x="364.631" y="619.622"/>
      <point x="366.004" y="633.15" type="curve" smooth="yes"/>
      <point x="365.986" y="647.287"/>
      <point x="365.623" y="658.921"/>
      <point x="364.26" y="668.428" type="curve" smooth="yes"/>
      <point x="362.289" y="682.169"/>
      <point x="350.516" y="695.982"/>
      <point x="335.235" y="695.982" type="curve" smooth="yes"/>
      <point x="331.988" y="695.982"/>
      <point x="328.511" y="695.032"/>
      <point x="325.201" y="695.006" type="curve" smooth="yes"/>
      <point x="316.493" y="694.936"/>
      <point x="309.934" y="691.992"/>
      <point x="298.88" y="686.522" type="curve" smooth="yes"/>
      <point x="292.559" y="683.394"/>
      <point x="284.818" y="679.368"/>
      <point x="275.011" y="676.702" type="curve" smooth="yes"/>
      <point x="246.718" y="659.174"/>
      <point x="216.344" y="656.606"/>
      <point x="189.325" y="656.606" type="curve" smooth="yes"/>
      <point x="176.297" y="656.606"/>
      <point x="163.883" y="657.146"/>
    </contour>
  </outline>
</glyph>
<glyph name="equal" format="2">
  <advance width="375"/>
  <unicode hex="003D"/>
  <outline>
    <contour>
      <point x="67" y="360.005" type="curve" smooth="yes"/>
      <point x="60.6006" y="360.005"/>
      <point x="54.2002" y="362.444"/>
      <point x="49.3223" y="367.322" type="curve" smooth="yes"/>
      <point x="44.4443" y="372.2"/>
      <point x="42.0049" y="378.601"/>
      <point x="42.0049" y="385" type="curve" smooth="yes"/>
      <point x="42.0049" y="396.464"/>
      <point x="50.4268" y="406.495"/>
      <point x="60.6201" y="409.173" type="curve" smooth="yes"/>
      <point x="72.4326" y="412.274"/>
      <point x="82.9688" y="417.044"/>
      <point x="99.4619" y="417.948" type="curve" smooth="yes"/>
      <point x="128.525" y="419.727"/>
      <point x="147.259" y="428.14"/>
      <point x="178.784" y="428.14" type="curve" smooth="yes"/>
      <point x="181.188" y="428.14"/>
      <point x="183.648" y="428.085"/>
      <point x="186.171" y="427.968" type="curve" smooth="yes"/>
      <point x="206.18" y="427.036"/>
      <point x="220.213" y="426.222"/>
      <point x="239.399" y="421.167" type="curve" smooth="yes"/>
      <point x="240.707" y="420.823"/>
      <point x="241.992" y="420.371"/>
      <point x="243.241" y="419.811" type="curve" smooth="yes"/>
      <point x="301.241" y="393.811" type="line" smooth="yes"/>
      <point x="301.924" y="393.505"/>
      <point x="302.597" y="393.166"/>
      <point x="303.255" y="392.796" type="curve" smooth="yes"/>
      <point x="335.255" y="374.796" type="line" smooth="yes"/>
      <point x="342.496" y="370.723"/>
      <point x="347.995" y="362.025"/>
      <point x="347.995" y="353" type="curve" smooth="yes"/>
      <point x="347.995" y="346.601"/>
      <point x="345.556" y="340.2"/>
      <point x="340.678" y="335.322" type="curve" smooth="yes"/>
      <point x="335.8" y="330.444"/>
      <point x="329.399" y="328.005"/>
      <point x="323" y="328.005" type="curve" smooth="yes"/>
      <point x="318.769" y="328.005"/>
      <point x="314.537" y="329.071"/>
      <point x="310.745" y="331.204" type="curve" smooth="yes"/>
      <point x="279.729" y="348.651" type="line"/>
      <point x="224.674" y="373.331" type="line"/>
      <point x="211.151" y="376.755"/>
      <point x="203.519" y="377.115"/>
      <point x="183.829" y="378.032" type="curve" smooth="yes"/>
      <point x="182.039" y="378.115"/>
      <point x="180.3" y="378.155"/>
      <point x="178.597" y="378.155" type="curve" smooth="yes"/>
      <point x="166.986" y="378.155"/>
      <point x="157.05" y="376.31"/>
      <point x="144.132" y="373.847" type="curve" smooth="yes"/>
      <point x="132.704" y="371.668"/>
      <point x="119.196" y="369.071"/>
      <point x="102.538" y="368.052" type="curve" smooth="yes"/>
      <point x="96.502" y="367.721"/>
      <point x="81.5312" y="362.968"/>
      <point x="73.3799" y="360.827" type="curve" smooth="yes"/>
      <point x="71.292" y="360.279"/>
      <point x="69.1455" y="360.005"/>
    </contour>
    <contour>
      <point x="67" y="234.005" type="curve" smooth="yes"/>
      <point x="60.6006" y="234.005"/>
      <point x="54.2002" y="236.444"/>
      <point x="49.3223" y="241.322" type="curve" smooth="yes"/>
      <point x="44.4443" y="246.2"/>
      <point x="42.0049" y="252.601"/>
      <point x="42.0049" y="259" type="curve" smooth="yes"/>
      <point x="42.0049" y="270.464"/>
      <point x="50.4268" y="280.495"/>
      <point x="60.6201" y="283.173" type="curve" smooth="yes"/>
      <point x="72.4326" y="286.274"/>
      <point x="82.9688" y="291.044"/>
      <point x="99.4619" y="291.948" type="curve" smooth="yes"/>
      <point x="128.525" y="293.727"/>
      <point x="147.259" y="302.14"/>
      <point x="178.784" y="302.14" type="curve" smooth="yes"/>
      <point x="181.188" y="302.14"/>
      <point x="183.648" y="302.085"/>
      <point x="186.171" y="301.968" type="curve" smooth="yes"/>
      <point x="206.18" y="301.036"/>
      <point x="220.213" y="300.222"/>
      <point x="239.399" y="295.167" type="curve" smooth="yes"/>
      <point x="240.707" y="294.823"/>
      <point x="241.992" y="294.371"/>
      <point x="243.241" y="293.811" type="curve" smooth="yes"/>
      <point x="301.241" y="267.811" type="line" smooth="yes"/>
      <point x="301.924" y="267.505"/>
      <point x="302.597" y="267.166"/>
      <point x="303.255" y="266.796" type="curve" smooth="yes"/>
      <point x="335.255" y="248.796" type="line" smooth="yes"/>
      <point x="342.496" y="244.723"/>
      <point x="347.995" y="236.025"/>
      <point x="347.995" y="227" type="curve" smooth="yes"/>
      <point x="347.995" y="220.601"/>
      <point x="345.556" y="214.2"/>
      <point x="340.678" y="209.322" type="curve" smooth="yes"/>
      <point x="335.8" y="204.444"/>
      <point x="329.399" y="202.005"/>
      <point x="323" y="202.005" type="curve" smooth="yes"/>
      <point x="318.769" y="202.005"/>
      <point x="314.537" y="203.071"/>
      <point x="310.745" y="205.204" type="curve" smooth="yes"/>
      <point x="279.729" y="222.651" type="line"/>
      <point x="224.674" y="247.331" type="line"/>
      <point x="211.151" y="250.755"/>
      <point x="203.519" y="251.115"/>
      <point x="183.829" y="252.032" type="curve" smooth="yes"/>
      <point x="182.039" y="252.115"/>
      <point x="180.3" y="252.155"/>
      <point x="178.597" y="252.155" type="curve" smooth="yes"/>
      <point x="166.986" y="252.155"/>
      <point x="157.05" y="250.31"/>
      <point x="144.132" y="247.847" type="curve" smooth="yes"/>
      <point x="132.704" y="245.668"/>
      <point x="119.196" y="243.071"/>
      <point x="102.538" y="242.052" type="curve" smooth="yes"/>
      <point x="96.502" y="241.721"/>
      <point x="81.5312" y="236.968"/>
      <point x="73.3799" y="234.827" type="curve" smooth="yes"/>
      <point x="71.292" y="234.279"/>
      <point x="69.1455" y="234.005"/>
    </contour>
  </outline>
</glyph>
<glyph name="greater" format="2">
  <advance width="416"/>
  <unicode hex="003E"/>
  <outline>
    <contour>
      <point x="83.6963" y="454.995" type="curve" smooth="yes"/>
      <point x="77.2969" y="454.995"/>
      <point x="70.8965" y="452.556"/>
      <point x="66.0186" y="447.678" type="curve" smooth="yes"/>
      <point x="61.1406" y="442.8"/>
      <point x="58.7012" y="436.399"/>
      <point x="58.7012" y="430" type="curve" smooth="yes"/>
      <point x="58.7012" y="420.656"/>
      <point x="64.5459" y="411.784"/>
      <point x="72.1357" y="407.828" type="curve" smooth="yes"/>
      <point x="109.364" y="388.422"/>
      <point x="150.15" y="380.709"/>
      <point x="186.352" y="373.54" type="curve" smooth="yes"/>
      <point x="211.022" y="368.655"/>
      <point x="233.678" y="364.034"/>
      <point x="251.453" y="357.588" type="curve" smooth="yes"/>
      <point x="265.727" y="352.412"/>
      <point x="276.449" y="346.215"/>
      <point x="283.653" y="339.011" type="curve" smooth="yes"/>
      <point x="292.741" y="329.923"/>
      <point x="299.055" y="316.203"/>
      <point x="299.055" y="294.75" type="curve" smooth="yes"/>
      <point x="299.055" y="275.317"/>
      <point x="292.631" y="263.309"/>
      <point x="281.513" y="252.19" type="curve" smooth="yes"/>
      <point x="264.876" y="235.554"/>
      <point x="233.995" y="221.749"/>
      <point x="197.683" y="206.706" type="curve" smooth="yes"/>
      <point x="162.892" y="192.293"/>
      <point x="123.727" y="176.442"/>
      <point x="90.0977" y="149.539" type="curve" smooth="yes"/>
      <point x="84.3672" y="144.955"/>
      <point x="80.7012" y="137.413"/>
      <point x="80.7012" y="130" type="curve" smooth="yes"/>
      <point x="80.7012" y="123.601"/>
      <point x="83.1406" y="117.2"/>
      <point x="88.0186" y="112.322" type="curve" smooth="yes"/>
      <point x="92.8965" y="107.444"/>
      <point x="99.2969" y="105.005"/>
      <point x="105.696" y="105.005" type="curve" smooth="yes"/>
      <point x="111.223" y="105.005"/>
      <point x="116.748" y="106.823"/>
      <point x="121.295" y="110.461" type="curve" smooth="yes"/>
      <point x="147.472" y="131.402"/>
      <point x="181.973" y="146.068"/>
      <point x="216.857" y="160.521" type="curve" smooth="yes"/>
      <point x="275.576" y="184.847"/>
      <point x="348.995" y="213.076"/>
      <point x="348.995" y="295.92" type="curve" smooth="yes"/>
      <point x="348.995" y="329.888"/>
      <point x="337.664" y="355.71"/>
      <point x="319.009" y="374.366" type="curve" smooth="yes"/>
      <point x="289.207" y="404.167"/>
      <point x="243.841" y="413.124"/>
      <point x="196.12" y="422.573" type="curve" smooth="yes"/>
      <point x="159.805" y="429.765"/>
      <point x="123.906" y="437.237"/>
      <point x="95.2568" y="452.172" type="curve" smooth="yes"/>
      <point x="91.6465" y="454.054"/>
      <point x="87.6709" y="454.995"/>
    </contour>
  </outline>
</glyph>
<glyph name="H" format="2">
  <advance width="868"/>
  <unicode hex="0048"/>
  <outline>
    <contour>
      <point x="658.918" y="-17.3535" type="curve" smooth="yes"/>
      <point x="646.74" y="-17.3535"/>
      <point x="633.797" y="-7.28125"/>
      <point x="633.797" y="7.82031" type="curve" smooth="yes"/>
      <point x="633.797" y="22.6875"/>
      <point x="643.821" y="29.2285"/>
      <point x="652.696" y="33.2197" type="curve" smooth="yes"/>
      <point x="655.684" y="34.5635"/>
      <point x="659.257" y="35.9854"/>
      <point x="663.857" y="37.6465" type="curve" smooth="yes"/>
      <point x="679.398" y="52.2646"/>
      <point x="694.474" y="71.5518"/>
      <point x="708.338" y="89.7715" type="curve" smooth="yes"/>
      <point x="722.508" y="108.392"/>
      <point x="736.621" y="127.32"/>
      <point x="749.954" y="145.225" type="curve"/>
      <point x="754.785" y="180.65" type="line" smooth="yes"/>
      <point x="754.868" y="181.259"/>
      <point x="754.974" y="181.864"/>
      <point x="755.102" y="182.467" type="curve" smooth="yes"/>
      <point x="768.107" y="243.784" type="line"/>
      <point x="773.602" y="300.548" type="line"/>
      <point x="775.49" y="349.665" type="line"/>
      <point x="748.976" y="335.365"/>
      <point x="719.675" y="329.345"/>
      <point x="693.718" y="323.464" type="curve" smooth="yes"/>
      <point x="672.152" y="318.578"/>
      <point x="652.062" y="313.871"/>
      <point x="635.753" y="306.977" type="curve" smooth="yes"/>
      <point x="630.436" y="304.729"/>
      <point x="624.057" y="303.728"/>
      <point x="618.074" y="302.192" type="curve" smooth="yes"/>
      <point x="590.646" y="295.152"/>
      <point x="560.111" y="286.995"/>
      <point x="527.8" y="286.995" type="curve" smooth="yes"/>
      <point x="526.932" y="286.995"/>
      <point x="526.045" y="286.99"/>
      <point x="525.188" y="287.018" type="curve" smooth="yes"/>
      <point x="401.188" y="291.018" type="line" smooth="yes"/>
      <point x="400.457" y="291.042"/>
      <point x="399.728" y="291.097"/>
      <point x="399.001" y="291.185" type="curve" smooth="yes"/>
      <point x="299.001" y="303.185" type="line" smooth="yes"/>
      <point x="298.657" y="303.226"/>
      <point x="298.314" y="303.273"/>
      <point x="297.973" y="303.329" type="curve" smooth="yes"/>
      <point x="223.973" y="315.329" type="line" smooth="yes"/>
      <point x="221.851" y="315.673"/>
      <point x="219.765" y="316.291"/>
      <point x="217.771" y="317.184" type="curve" smooth="yes"/>
      <point x="186.73" y="331.078"/>
      <point x="157.141" y="343.233"/>
      <point x="127.505" y="360.341" type="curve" smooth="yes"/>
      <point x="122.913" y="362.992"/>
      <point x="118.352" y="365.538"/>
      <point x="113.805" y="367.99" type="curve"/>
      <point x="116.398" y="300.548" type="line"/>
      <point x="121.893" y="243.784" type="line"/>
      <point x="134.898" y="182.467" type="line" smooth="yes"/>
      <point x="135.026" y="181.864"/>
      <point x="135.132" y="181.259"/>
      <point x="135.215" y="180.65" type="curve" smooth="yes"/>
      <point x="140.046" y="145.225" type="line"/>
      <point x="153.378" y="127.321"/>
      <point x="167.492" y="108.393"/>
      <point x="181.662" y="89.7705" type="curve" smooth="yes"/>
      <point x="184.59" y="85.9229"/>
      <point x="186.299" y="82.8223"/>
      <point x="188.885" y="78.5586" type="curve" smooth="yes"/>
      <point x="195.412" y="67.7939"/>
      <point x="205.374" y="51.9883"/>
      <point x="214.551" y="42.8115" type="curve" smooth="yes"/>
      <point x="219.026" y="38.3359"/>
      <point x="222.941" y="36.0527"/>
      <point x="224.168" y="35.6309" type="curve" smooth="yes"/>
      <point x="233.433" y="32.4395"/>
      <point x="240.995" y="22.7949"/>
      <point x="240.995" y="12" type="curve" smooth="yes"/>
      <point x="240.995" y="5.60059"/>
      <point x="238.556" y="-0.799805"/>
      <point x="233.678" y="-5.67773" type="curve" smooth="yes"/>
      <point x="228.8" y="-10.5557"/>
      <point x="222.399" y="-12.9951"/>
      <point x="216" y="-12.9951" type="curve" smooth="yes"/>
      <point x="213.236" y="-12.9951"/>
      <point x="210.473" y="-12.54"/>
      <point x="207.832" y="-11.6309" type="curve" smooth="yes"/>
      <point x="179.2" y="-1.76855"/>
      <point x="157.617" y="33.6729"/>
      <point x="146.111" y="52.6475" type="curve" smooth="yes"/>
      <point x="143.93" y="56.2461"/>
      <point x="142.096" y="59.1602"/>
      <point x="141.792" y="59.5898" type="curve" smooth="yes"/>
      <point x="126.041" y="80.291"/>
      <point x="110.625" y="101.007"/>
      <point x="96.082" y="120.537" type="curve" smooth="yes"/>
      <point x="93.5078" y="123.993"/>
      <point x="91.9434" y="127.966"/>
      <point x="91.3857" y="132.05" type="curve" smooth="yes"/>
      <point x="85.8105" y="172.936" type="line"/>
      <point x="72.7021" y="234.733" type="line" smooth="yes"/>
      <point x="72.5059" y="235.656"/>
      <point x="72.3633" y="236.589"/>
      <point x="72.2725" y="237.525" type="curve" smooth="yes"/>
      <point x="66.5723" y="296.425" type="line" smooth="yes"/>
      <point x="66.5254" y="296.909"/>
      <point x="66.4922" y="297.396"/>
      <point x="66.4736" y="297.882" type="curve" smooth="yes"/>
      <point x="62.8379" y="392.412" type="line"/>
      <point x="58.6592" y="394.466"/>
      <point x="54.4326" y="396.669"/>
      <point x="49.9453" y="398.771" type="curve" smooth="yes"/>
      <point x="35.168" y="405.693"/>
      <point x="19.0811" y="412.907"/>
      <point x="4.55762" y="424.337" type="curve" smooth="yes"/>
      <point x="-1.24121" y="428.9"/>
      <point x="-4.99512" y="436.509"/>
      <point x="-4.99512" y="444" type="curve" smooth="yes"/>
      <point x="-4.99512" y="450.399"/>
      <point x="-2.55566" y="456.8"/>
      <point x="2.32227" y="461.678" type="curve" smooth="yes"/>
      <point x="7.2002" y="466.556"/>
      <point x="13.6006" y="468.995"/>
      <point x="20" y="468.995" type="curve" smooth="yes"/>
      <point x="25.4629" y="468.995"/>
      <point x="30.9258" y="467.218"/>
      <point x="35.4424" y="463.663" type="curve" smooth="yes"/>
      <point x="42.4297" y="458.164"/>
      <point x="54.2461" y="452.191"/>
      <point x="66.3301" y="446.394" type="curve"/>
      <point x="66.5293" y="448.98" type="line" smooth="yes"/>
      <point x="66.6924" y="451.107"/>
      <point x="67.127" y="453.218"/>
      <point x="67.832" y="455.254" type="curve" smooth="yes"/>
      <point x="84.9316" y="504.654" type="line" smooth="yes"/>
      <point x="86.0645" y="507.927"/>
      <point x="87.7988" y="510.861"/>
      <point x="89.2959" y="513.855" type="curve" smooth="yes"/>
      <point x="111.582" y="576.997" type="line" smooth="yes"/>
      <point x="111.799" y="577.611"/>
      <point x="112.041" y="578.22"/>
      <point x="112.308" y="578.819" type="curve" smooth="yes"/>
      <point x="134.657" y="629.106" type="line"/>
      <point x="160.897" y="705.955" type="line" smooth="yes"/>
      <point x="161.37" y="707.339"/>
      <point x="161.968" y="708.69"/>
      <point x="162.69" y="709.99" type="curve" smooth="yes"/>
      <point x="191.19" y="761.291" type="line" smooth="yes"/>
      <point x="195.244" y="768.589"/>
      <point x="203.971" y="774.146"/>
      <point x="213.05" y="774.146" type="curve" smooth="yes"/>
      <point x="219.449" y="774.146"/>
      <point x="225.85" y="771.706"/>
      <point x="230.728" y="766.828" type="curve" smooth="yes"/>
      <point x="235.605" y="761.95"/>
      <point x="238.045" y="755.55"/>
      <point x="238.045" y="749.15" type="curve" smooth="yes"/>
      <point x="238.045" y="744.961"/>
      <point x="237" y="740.772"/>
      <point x="234.909" y="737.01" type="curve" smooth="yes"/>
      <point x="207.485" y="687.645" type="line"/>
      <point x="181.603" y="611.845" type="line" smooth="yes"/>
      <point x="181.364" y="611.147"/>
      <point x="181.095" y="610.459"/>
      <point x="180.793" y="609.781" type="curve" smooth="yes"/>
      <point x="158.392" y="559.378" type="line"/>
      <point x="135.918" y="495.703" type="line" smooth="yes"/>
      <point x="134.792" y="492.514"/>
      <point x="133.103" y="489.644"/>
      <point x="131.637" y="486.712" type="curve" smooth="yes"/>
      <point x="116.123" y="441.893" type="line"/>
      <point x="114.721" y="423.668" type="line"/>
      <point x="127.293" y="417.591"/>
      <point x="139.825" y="410.973"/>
      <point x="152.495" y="403.659" type="curve" smooth="yes"/>
      <point x="177.428" y="389.266"/>
      <point x="206.384" y="377.016"/>
      <point x="235.246" y="364.149" type="curve"/>
      <point x="305.515" y="352.754" type="line"/>
      <point x="403.909" y="340.946" type="line"/>
      <point x="526.531" y="336.991" type="line" smooth="yes"/>
      <point x="526.901" y="336.988"/>
      <point x="527.273" y="336.986"/>
      <point x="527.646" y="336.986" type="curve" smooth="yes"/>
      <point x="554.539" y="336.986"/>
      <point x="589.071" y="346.52"/>
      <point x="618.093" y="353.793" type="curve" smooth="yes"/>
      <point x="639.491" y="362.591"/>
      <point x="661.671" y="367.469"/>
      <point x="682.61" y="372.213" type="curve" smooth="yes"/>
      <point x="723.568" y="381.492"/>
      <point x="756.107" y="389.593"/>
      <point x="776.113" y="412.819" type="curve"/>
      <point x="773.877" y="441.893" type="line"/>
      <point x="758.363" y="486.712" type="line" smooth="yes"/>
      <point x="756.897" y="489.644"/>
      <point x="755.208" y="492.514"/>
      <point x="754.082" y="495.703" type="curve" smooth="yes"/>
      <point x="731.608" y="559.378" type="line"/>
      <point x="709.207" y="609.781" type="line" smooth="yes"/>
      <point x="708.905" y="610.459"/>
      <point x="708.636" y="611.147"/>
      <point x="708.397" y="611.845" type="curve" smooth="yes"/>
      <point x="682.515" y="687.645" type="line"/>
      <point x="656.021" y="735.336" type="line"/>
      <point x="643.899" y="750.92" type="line" smooth="yes"/>
      <point x="640.403" y="755.415"/>
      <point x="638.655" y="760.832"/>
      <point x="638.655" y="766.25" type="curve" smooth="yes"/>
      <point x="638.655" y="772.649"/>
      <point x="641.095" y="779.05"/>
      <point x="645.973" y="783.928" type="curve" smooth="yes"/>
      <point x="650.851" y="788.806"/>
      <point x="657.251" y="791.245"/>
      <point x="663.65" y="791.245" type="curve" smooth="yes"/>
      <point x="671.2" y="791.245"/>
      <point x="678.847" y="787.436"/>
      <point x="683.401" y="781.58" type="curve" smooth="yes"/>
      <point x="696.701" y="764.48" type="line" smooth="yes"/>
      <point x="697.494" y="763.461"/>
      <point x="698.197" y="762.395"/>
      <point x="698.81" y="761.291" type="curve" smooth="yes"/>
      <point x="727.31" y="709.99" type="line" smooth="yes"/>
      <point x="728.032" y="708.69"/>
      <point x="728.63" y="707.339"/>
      <point x="729.103" y="705.955" type="curve" smooth="yes"/>
      <point x="755.343" y="629.106" type="line"/>
      <point x="777.692" y="578.819" type="line" smooth="yes"/>
      <point x="777.959" y="578.22"/>
      <point x="778.201" y="577.611"/>
      <point x="778.418" y="576.997" type="curve" smooth="yes"/>
      <point x="800.704" y="513.855" type="line" smooth="yes"/>
      <point x="802.201" y="510.86"/>
      <point x="803.936" y="507.927"/>
      <point x="805.068" y="504.654" type="curve" smooth="yes"/>
      <point x="815.997" y="473.08" type="line"/>
      <point x="820.415" y="476.69"/>
      <point x="826.166" y="478.995"/>
      <point x="832" y="478.995" type="curve" smooth="yes"/>
      <point x="838.399" y="478.995"/>
      <point x="844.8" y="476.556"/>
      <point x="849.678" y="471.678" type="curve" smooth="yes"/>
      <point x="854.556" y="466.8"/>
      <point x="856.995" y="460.399"/>
      <point x="856.995" y="454" type="curve" smooth="yes"/>
      <point x="856.995" y="449.453"/>
      <point x="855.764" y="444.907"/>
      <point x="853.302" y="440.906" type="curve" smooth="yes"/>
      <point x="844" y="425.791"/>
      <point x="837.767" y="415.918"/>
      <point x="827.818" y="399.758" type="curve" smooth="yes"/>
      <point x="827.701" y="399.578" type="line" smooth="yes"/>
      <point x="827.572" y="399.354"/>
      <point x="827.443" y="399.129"/>
      <point x="827.313" y="398.906" type="curve" smooth="yes"/>
      <point x="827.334" y="398.487"/>
      <point x="827.345" y="398.069"/>
      <point x="827.345" y="397.65" type="curve" smooth="yes"/>
      <point x="827.345" y="397.328"/>
      <point x="827.339" y="397.005"/>
      <point x="827.326" y="396.683" type="curve" smooth="yes"/>
      <point x="823.526" y="297.882" type="line" smooth="yes"/>
      <point x="823.508" y="297.396"/>
      <point x="823.475" y="296.909"/>
      <point x="823.428" y="296.425" type="curve" smooth="yes"/>
      <point x="817.728" y="237.525" type="line" smooth="yes"/>
      <point x="817.637" y="236.589"/>
      <point x="817.494" y="235.656"/>
      <point x="817.298" y="234.733" type="curve" smooth="yes"/>
      <point x="804.189" y="172.936" type="line"/>
      <point x="798.614" y="132.05" type="line" smooth="yes"/>
      <point x="797.938" y="127.086"/>
      <point x="795.511" y="122.677"/>
      <point x="792.642" y="118.822" type="curve" smooth="yes"/>
      <point x="778.563" y="99.917"/>
      <point x="763.448" y="79.6182"/>
      <point x="748.162" y="59.5293" type="curve" smooth="yes"/>
      <point x="732.819" y="39.3662"/>
      <point x="713.914" y="15.0801"/>
      <point x="693.505" y="-2.98438" type="curve" smooth="yes"/>
      <point x="684.724" y="-10.7568"/>
      <point x="676.193" y="-13.873"/>
      <point x="669.287" y="-15.8193" type="curve" smooth="yes"/>
      <point x="666.741" y="-16.5361"/>
      <point x="663.934" y="-17.3535"/>
    </contour>
  </outline>
</glyph>
<glyph name="T" format="2">
  <advance width="750"/>
  <unicode hex="0054"/>
  <outline>
    <contour>
      <point x="250.765" y="395.695" type="line"/>
      <point x="250.765" y="396" type="line" smooth="yes"/>
      <point x="250.765" y="405.307"/>
      <point x="250.646" y="414.641"/>
      <point x="250.646" y="424" type="curve" smooth="yes"/>
      <point x="250.646" y="442.737"/>
      <point x="251.098" y="461.973"/>
      <point x="254.044" y="481.61" type="curve" smooth="yes"/>
      <point x="255.181" y="496.208"/>
      <point x="257.049" y="510.633"/>
      <point x="259.509" y="524.48" type="curve" smooth="yes"/>
      <point x="262.77" y="542.841"/>
      <point x="267.178" y="561.791"/>
      <point x="275.198" y="580.217" type="curve" smooth="yes"/>
      <point x="280.446" y="594.994"/>
      <point x="285.9" y="610.363"/>
      <point x="293.711" y="626.108" type="curve" smooth="yes"/>
      <point x="300.004" y="639.92"/>
      <point x="305.327" y="654.87"/>
      <point x="311.781" y="669.001" type="curve" smooth="yes"/>
      <point x="315.405" y="676.772"/>
      <point x="319.198" y="684.713"/>
      <point x="323.813" y="692.548" type="curve"/>
      <point x="311.79" y="692.184"/>
      <point x="299.749" y="691.846"/>
      <point x="287.537" y="691.846" type="curve" smooth="yes"/>
      <point x="271.792" y="691.846"/>
      <point x="254.572" y="692.249"/>
      <point x="239.177" y="693.562" type="curve" smooth="yes"/>
      <point x="236.237" y="693.812"/>
      <point x="233.866" y="694"/>
      <point x="231.581" y="694" type="curve" smooth="yes"/>
      <point x="226.629" y="694"/>
      <point x="225.861" y="694.812"/>
      <point x="222.778" y="695.053" type="curve" smooth="yes"/>
      <point x="217.058" y="695.5"/>
      <point x="211.777" y="695.895"/>
      <point x="206.962" y="695.895" type="curve" smooth="yes"/>
      <point x="200.998" y="695.895"/>
      <point x="195.777" y="695.321"/>
      <point x="190.806" y="693.766" type="curve" smooth="yes"/>
      <point x="176.764" y="689.374"/>
      <point x="164.468" y="687.51"/>
      <point x="150.511" y="684.51" type="curve" smooth="yes"/>
      <point x="134.243" y="679.714"/>
      <point x="123.249" y="674.853"/>
      <point x="108.693" y="667.575" type="curve" smooth="yes"/>
      <point x="105.235" y="665.846"/>
      <point x="101.422" y="663.009"/>
      <point x="97.3076" y="660.887" type="curve" smooth="yes"/>
      <point x="79.5908" y="650.053"/>
      <point x="60.9268" y="638.258"/>
      <point x="43.3389" y="626.538" type="curve" smooth="yes"/>
      <point x="40.2725" y="624.494"/>
      <point x="36.9863" y="623.955"/>
      <point x="34.8711" y="623.955" type="curve" smooth="yes"/>
      <point x="28.5391" y="623.955"/>
      <point x="25.9316" y="626.45"/>
      <point x="22.9434" y="629.015" type="curve" smooth="yes"/>
      <point x="17.459" y="633.721"/>
      <point x="11.4756" y="639.787"/>
      <point x="7.64551" y="645.954" type="curve" smooth="yes"/>
      <point x="6.18848" y="648.3"/>
      <point x="4.95215" y="649.777"/>
      <point x="4.95215" y="654.857" type="curve" smooth="yes"/>
      <point x="4.95215" y="657.093"/>
      <point x="5.49609" y="661.11"/>
      <point x="8.56348" y="664.704" type="curve" smooth="yes"/>
      <point x="23.96" y="683.347"/>
      <point x="42.2441" y="697.189"/>
      <point x="60.6943" y="709.489" type="curve" smooth="yes"/>
      <point x="73.9697" y="718.34"/>
      <point x="88.3184" y="725.254"/>
      <point x="103.259" y="730.234" type="curve" smooth="yes"/>
      <point x="112.738" y="733.394"/>
      <point x="121.842" y="735.707"/>
      <point x="132.366" y="736.86" type="curve" smooth="yes"/>
      <point x="144.982" y="738.835"/>
      <point x="156.696" y="740.735"/>
      <point x="167.829" y="744.209" type="curve" smooth="yes"/>
      <point x="195.237" y="753.095"/>
      <point x="249.108" y="755.071"/>
      <point x="257.317" y="755.071" type="curve" smooth="yes"/>
      <point x="257.751" y="755.071"/>
      <point x="258.058" y="755.011"/>
      <point x="258.225" y="755" type="curve" smooth="yes"/>
      <point x="289.009" y="755"/>
      <point x="317.461" y="751.01"/>
      <point x="346.975" y="750" type="curve" smooth="yes"/>
      <point x="359.713" y="750"/>
      <point x="372.867" y="750.444"/>
      <point x="385.843" y="750.444" type="curve" smooth="yes"/>
      <point x="395.385" y="750.444"/>
      <point x="408.186" y="750.212"/>
      <point x="415.708" y="748.644" type="curve" smooth="yes"/>
      <point x="417.725" y="748.223"/>
      <point x="419.1" y="748.021"/>
      <point x="419.251" y="748" type="curve" smooth="yes"/>
      <point x="420.125" y="748" type="line" smooth="yes"/>
      <point x="447.897" y="744.873"/>
      <point x="474.261" y="739.761"/>
      <point x="500.828" y="734.773" type="curve" smooth="yes"/>
      <point x="515.244" y="732.68"/>
      <point x="531.56" y="729.54"/>
      <point x="546.724" y="722.425" type="curve" smooth="yes"/>
      <point x="551.135" y="720.356"/>
      <point x="557.147" y="718.409"/>
      <point x="561.653" y="715.872" type="curve" smooth="yes"/>
      <point x="571.913" y="710.097"/>
      <point x="584.612" y="706.146"/>
      <point x="595.758" y="699.872" type="curve" smooth="yes"/>
      <point x="621.285" y="685.122"/>
      <point x="644.323" y="670.38"/>
      <point x="665.406" y="650.803" type="curve" smooth="yes"/>
      <point x="668.376" y="647.833"/>
      <point x="674.467" y="641.608"/>
      <point x="676.206" y="639.166" type="curve" smooth="yes"/>
      <point x="677.02" y="638.023"/>
      <point x="680.691" y="634.674"/>
      <point x="683.459" y="632.214" type="curve" smooth="yes"/>
      <point x="690.757" y="625.727"/>
      <point x="696.587" y="619.974"/>
      <point x="705.076" y="613.125" type="curve" smooth="yes"/>
      <point x="709.043" y="609.924"/>
      <point x="713.651" y="606.559"/>
      <point x="717.604" y="602.604" type="curve" smooth="yes"/>
      <point x="726.604" y="593.604" type="line" smooth="yes"/>
      <point x="729.88" y="590.329"/>
      <point x="731.036" y="585.909"/>
      <point x="731.036" y="582.902" type="curve" smooth="yes"/>
      <point x="731.036" y="576.821"/>
      <point x="729.126" y="574.984"/>
      <point x="727.182" y="572.647" type="curve" smooth="yes"/>
      <point x="724.249" y="569.123"/>
      <point x="721.391" y="567.078"/>
      <point x="717.564" y="564.132" type="curve" smooth="yes"/>
      <point x="712.387" y="560.144"/>
      <point x="707.881" y="556.136"/>
      <point x="701.566" y="553.9" type="curve" smooth="yes"/>
      <point x="700.582" y="553.552"/>
      <point x="699.326" y="552.952"/>
      <point x="696.154" y="552.952" type="curve" smooth="yes"/>
      <point x="694.267" y="552.952"/>
      <point x="690.101" y="553.156"/>
      <point x="686.091" y="556.738" type="curve" smooth="yes"/>
      <point x="680.58" y="561.424"/>
      <point x="678.906" y="564.306"/>
      <point x="673.906" y="568.473" type="curve" smooth="yes"/>
      <point x="670.994" y="570.898"/>
      <point x="667.465" y="574.062"/>
      <point x="663.893" y="576.694" type="curve" smooth="yes"/>
      <point x="659.837" y="579.683"/>
      <point x="654.706" y="583.298"/>
      <point x="649.953" y="588.838" type="curve" smooth="yes"/>
      <point x="642.091" y="596.696"/>
      <point x="633.528" y="605.145"/>
      <point x="625.744" y="611.199" type="curve" smooth="yes"/>
      <point x="605.323" y="626.967"/>
      <point x="578.036" y="640.152"/>
      <point x="554.815" y="654.45" type="curve" smooth="yes"/>
      <point x="546.414" y="659.624"/>
      <point x="538.419" y="664.522"/>
      <point x="530.361" y="668.552" type="curve" smooth="yes"/>
      <point x="517.631" y="674.035"/>
      <point x="500.143" y="676.309"/>
      <point x="483.52" y="679.226" type="curve" smooth="yes"/>
      <point x="406.206" y="691.15" type="line" smooth="yes"/>
      <point x="401.016" y="691.745"/>
      <point x="396.086" y="691.965"/>
      <point x="390.928" y="692.316" type="curve"/>
      <point x="382.181" y="670.702"/>
      <point x="371.615" y="650.717"/>
      <point x="360.766" y="631.342" type="curve" smooth="yes"/>
      <point x="355.989" y="622.812"/>
      <point x="351.593" y="614.937"/>
      <point x="347.724" y="606.521" type="curve" smooth="yes"/>
      <point x="342.519" y="592.805"/>
      <point x="337.282" y="577.116"/>
      <point x="332.013" y="563.246" type="curve" smooth="yes"/>
      <point x="326.912" y="547.884"/>
      <point x="322.702" y="531.11"/>
      <point x="318.428" y="514.067" type="curve" smooth="yes"/>
      <point x="315.025" y="503.689"/>
      <point x="314.715" y="492.502"/>
      <point x="314.712" y="478.281" type="curve" smooth="yes"/>
      <point x="315.777" y="451.09"/>
      <point x="315.777" y="423.126"/>
      <point x="315.777" y="396.302" type="curve" smooth="yes"/>
      <point x="316.003" y="390.871"/>
      <point x="316.085" y="385.53"/>
      <point x="316.085" y="380.266" type="curve" smooth="yes"/>
      <point x="316.085" y="365.931"/>
      <point x="315.469" y="351.887"/>
      <point x="315.469" y="337.734" type="curve" smooth="yes"/>
      <point x="315.469" y="311.426"/>
      <point x="317.826" y="288.95"/>
      <point x="322.895" y="265.104" type="curve" smooth="yes"/>
      <point x="327.377" y="246.127"/>
      <point x="329.579" y="227.341"/>
      <point x="330.673" y="207.844" type="curve" smooth="yes"/>
      <point x="331.635" y="191.603"/>
      <point x="335.516" y="175.821"/>
      <point x="340.666" y="159.373" type="curve" smooth="yes"/>
      <point x="347.137" y="140.116"/>
      <point x="351.157" y="122.171"/>
      <point x="356.488" y="103.002" type="curve" smooth="yes"/>
      <point x="357.984" y="99.6113"/>
      <point x="357.771" y="98.2354"/>
      <point x="358.454" y="96.3154" type="curve" smooth="yes"/>
      <point x="359.759" y="94.1133"/>
      <point x="364.599" y="88.0078"/>
      <point x="366.646" y="84.9346" type="curve" smooth="yes"/>
      <point x="372.681" y="75.874"/>
      <point x="375.418" y="68.7178"/>
      <point x="379.934" y="60.1523" type="curve" smooth="yes"/>
      <point x="384.48" y="52.8525"/>
      <point x="386.817" y="45.3193"/>
      <point x="388.25" y="37.2529" type="curve" smooth="yes"/>
      <point x="388.25" y="36" type="line" smooth="yes"/>
      <point x="388.25" y="25.1973"/>
      <point x="379.773" y="21.7627"/>
      <point x="372.668" y="19.4199" type="curve" smooth="yes"/>
      <point x="365.24" y="16.9697"/>
      <point x="357.144" y="14.5977"/>
      <point x="349.051" y="14.5977" type="curve" smooth="yes"/>
      <point x="348.582" y="14.5977"/>
      <point x="347.974" y="14.5068"/>
      <point x="347.168" y="14.5068" type="curve" smooth="yes"/>
      <point x="342.221" y="14.5068"/>
      <point x="335.982" y="18.6533"/>
      <point x="333.443" y="23.3066" type="curve" smooth="yes"/>
      <point x="330.992" y="27.9053"/>
      <point x="329.01" y="30.6338"/>
      <point x="326.723" y="34.0654" type="curve" smooth="yes"/>
      <point x="315.85" y="50.3896"/>
      <point x="305.078" y="67.6348"/>
      <point x="298.398" y="87.4834" type="curve" smooth="yes"/>
      <point x="291.85" y="106.937"/>
      <point x="286.46" y="126.179"/>
      <point x="281.131" y="145.178" type="curve" smooth="yes"/>
      <point x="275.711" y="164.505"/>
      <point x="271.131" y="183.526"/>
      <point x="269.974" y="204.156" type="curve" smooth="yes"/>
      <point x="268.913" y="222.076"/>
      <point x="266.586" y="240.355"/>
      <point x="261.746" y="255.797" type="curve" smooth="yes"/>
      <point x="258.572" y="276.645"/>
      <point x="254.004" y="297.471"/>
      <point x="253.962" y="320.688" type="curve" smooth="yes"/>
    </contour>
  </outline>
</glyph>
<glyph name="W" format="2">
  <advance width="943"/>
  <unicode hex="0057"/>
  <outline>
    <contour>
      <point x="38.2822" y="359.977" type="curve" smooth="yes"/>
      <point x="38.2822" y="365.543"/>
      <point x="38.2949" y="371.104"/>
      <point x="38.2949" y="376.66" type="curve" smooth="yes"/>
      <point x="38.2949" y="383.981"/>
      <point x="38.2021" y="391.219"/>
      <point x="38.2021" y="398.491" type="curve" smooth="yes"/>
      <point x="38.2021" y="425.133"/>
      <point x="39.4316" y="451.927"/>
      <point x="43.0439" y="478.786" type="curve" smooth="yes"/>
      <point x="46.5049" y="512.458"/>
      <point x="51.501" y="547.768"/>
      <point x="68.0645" y="580.845" type="curve" smooth="yes"/>
      <point x="85.6035" y="617.34"/>
      <point x="104.445" y="654.179"/>
      <point x="121.289" y="690.895" type="curve" smooth="yes"/>
      <point x="134.873" y="720.504"/>
      <point x="151.732" y="748.395"/>
      <point x="168.979" y="775.756" type="curve" smooth="yes"/>
      <point x="171.664" y="779.955"/>
      <point x="177.898" y="783.292"/>
      <point x="182.74" y="783.292" type="curve" smooth="yes"/>
      <point x="183" y="783.292"/>
      <point x="183.121" y="783.249"/>
      <point x="183.121" y="783.249" type="curve" smooth="yes"/>
      <point x="189.41" y="783.249"/>
      <point x="191.456" y="781.876"/>
      <point x="195.139" y="780.578" type="curve" smooth="yes"/>
      <point x="202.899" y="777.841"/>
      <point x="212.492" y="773.749"/>
      <point x="219.172" y="769.771" type="curve" smooth="yes"/>
      <point x="223.881" y="766.967"/>
      <point x="229.245" y="763.409"/>
      <point x="229.245" y="754.829" type="curve" smooth="yes"/>
      <point x="229.245" y="753.767"/>
      <point x="229.122" y="752.637"/>
      <point x="228.86" y="751.508" type="curve" smooth="yes"/>
      <point x="221.401" y="718.994"/>
      <point x="206.391" y="690.451"/>
      <point x="193.537" y="662.32" type="curve" smooth="yes"/>
      <point x="176.235" y="622.54"/>
      <point x="154.804" y="584.802"/>
      <point x="131.407" y="549.005" type="curve" smooth="yes"/>
      <point x="118.607" y="528.601"/>
      <point x="118.488" y="501.089"/>
      <point x="115.056" y="471.761" type="curve" smooth="yes"/>
      <point x="111.793" y="443.889"/>
      <point x="107.444" y="416.776"/>
      <point x="107.444" y="389.966" type="curve" smooth="yes"/>
      <point x="107.444" y="389.343"/>
      <point x="107.45" y="388.721"/>
      <point x="107.45" y="388.099" type="curve" smooth="yes"/>
      <point x="109.341" y="355.422"/>
      <point x="111.816" y="322.733"/>
      <point x="113.244" y="289.68" type="curve" smooth="yes"/>
      <point x="115.247" y="275.949"/>
      <point x="118.102" y="262.729"/>
      <point x="122.886" y="250.845" type="curve" smooth="yes"/>
      <point x="127.177" y="240.188"/>
      <point x="134.745" y="227.912"/>
      <point x="140.872" y="217.048" type="curve" smooth="yes"/>
      <point x="151.942" y="199.23"/>
      <point x="168.271" y="183.342"/>
      <point x="185.672" y="167.097" type="curve" smooth="yes"/>
      <point x="205.912" y="149.208"/>
      <point x="220.681" y="128.067"/>
      <point x="233.926" y="107.344" type="curve" smooth="yes"/>
      <point x="237.567" y="103.477"/>
      <point x="239.262" y="100.278"/>
      <point x="242.135" y="96.6982" type="curve" smooth="yes"/>
      <point x="244.661" y="96.7725"/>
      <point x="247.156" y="96.8008"/>
      <point x="249.62" y="96.8008" type="curve" smooth="yes"/>
      <point x="258.115" y="96.8008"/>
      <point x="266.539" y="96.4561"/>
      <point x="274.835" y="96.4561" type="curve" smooth="yes"/>
      <point x="283.552" y="96.4561"/>
      <point x="290.785" y="97.4883"/>
      <point x="299.269" y="97.4883" type="curve" smooth="yes"/>
      <point x="312.236" y="97.4883"/>
      <point x="324.666" y="95.835"/>
      <point x="336.963" y="95.835" type="curve" smooth="yes"/>
      <point x="338.481" y="95.835"/>
      <point x="339.975" y="95.8604"/>
      <point x="341.444" y="95.918" type="curve" smooth="yes"/>
      <point x="358.445" y="97.2998"/>
      <point x="373.908" y="97.2051"/>
      <point x="390.722" y="97.6055" type="curve"/>
      <point x="384.464" y="121.04"/>
      <point x="378.577" y="143.949"/>
      <point x="376.834" y="171.409" type="curve" smooth="yes"/>
      <point x="376.374" y="178.66"/>
      <point x="375.511" y="185.121"/>
      <point x="374.818" y="191.568" type="curve" smooth="yes"/>
      <point x="372.957" y="208.889"/>
      <point x="366.618" y="225.958"/>
      <point x="358.871" y="243.659" type="curve" smooth="yes"/>
      <point x="351.062" y="259.165"/>
      <point x="345.241" y="275.401"/>
      <point x="341.31" y="291.366" type="curve" smooth="yes"/>
      <point x="338.854" y="301.337"/>
      <point x="337.957" y="311.242"/>
      <point x="337.957" y="320.912" type="curve" smooth="yes"/>
      <point x="337.957" y="333.196"/>
      <point x="339.256" y="345.617"/>
      <point x="341.302" y="356.511" type="curve" smooth="yes"/>
      <point x="342.354" y="362.11"/>
      <point x="343.178" y="366.909"/>
      <point x="343.178" y="370.942" type="curve" smooth="yes"/>
      <point x="343.178" y="371.18"/>
      <point x="343.174" y="371.415"/>
      <point x="343.169" y="371.648" type="curve" smooth="yes"/>
      <point x="343.161" y="372.032" type="line"/>
      <point x="343.174" y="372.415" type="line" smooth="yes"/>
      <point x="344.029" y="396.696"/>
      <point x="364.297" y="409.609"/>
      <point x="380.002" y="416.035" type="curve" smooth="yes"/>
      <point x="392.124" y="421.105"/>
      <point x="405.455" y="422.518"/>
      <point x="418.171" y="422.518" type="curve" smooth="yes"/>
      <point x="429.982" y="422.518"/>
      <point x="441.556" y="420.836"/>
      <point x="452.509" y="418.31" type="curve" smooth="yes"/>
      <point x="454.079" y="417.823"/>
      <point x="456.006" y="417.304"/>
      <point x="457.135" y="417.086" type="curve" smooth="yes"/>
      <point x="459.406" y="418.06"/>
      <point x="461.225" y="418.318"/>
      <point x="461.225" y="418.318" type="curve" smooth="yes"/>
      <point x="466.452" y="419.208"/>
      <point x="469.142" y="418.954"/>
      <point x="473.417" y="419.254" type="curve" smooth="yes"/>
      <point x="473.856" y="419.263" type="line" smooth="yes"/>
      <point x="475.426" y="419.293"/>
      <point x="477.006" y="419.311"/>
      <point x="478.595" y="419.311" type="curve" smooth="yes"/>
      <point x="499.652" y="419.311"/>
      <point x="524.508" y="416.018"/>
      <point x="542.225" y="396.045" type="curve" smooth="yes"/>
      <point x="552.009" y="385.018"/>
      <point x="554.296" y="376.79"/>
      <point x="558.87" y="366.108" type="curve"/>
      <point x="565.229" y="343.891"/>
      <point x="566.31" y="321.332"/>
      <point x="566.784" y="300.153" type="curve" smooth="yes"/>
      <point x="567.416" y="292.021"/>
      <point x="571.642" y="281.039"/>
      <point x="573.713" y="272.331" type="curve" smooth="yes"/>
      <point x="576.36" y="261.208"/>
      <point x="576.498" y="257.575"/>
      <point x="577.585" y="248.002" type="curve" smooth="yes"/>
      <point x="577.604" y="247.723" type="line" smooth="yes"/>
      <point x="578.385" y="236.725"/>
      <point x="583.042" y="223.733"/>
      <point x="585.14" y="212.254" type="curve" smooth="yes"/>
      <point x="586.532" y="204.63"/>
      <point x="587.83" y="197.349"/>
      <point x="588.614" y="189.817" type="curve" smooth="yes"/>
      <point x="590.79" y="168.924"/>
      <point x="596.099" y="147.311"/>
      <point x="601.227" y="125.924" type="curve" smooth="yes"/>
      <point x="604.833" y="111.318"/>
      <point x="612.045" y="95.3037"/>
      <point x="618.125" y="80.5684" type="curve" smooth="yes"/>
      <point x="620.56" y="76.7559"/>
      <point x="623.529" y="72.8926"/>
      <point x="626.212" y="70.6094" type="curve" smooth="yes"/>
      <point x="627.432" y="70.8154"/>
      <point x="628.504" y="70.874"/>
      <point x="629.346" y="70.874" type="curve" smooth="yes"/>
      <point x="630.447" y="70.874"/>
      <point x="631.156" y="70.7744"/>
      <point x="631.291" y="70.7715" type="curve" smooth="yes"/>
      <point x="631.342" y="70.7715"/>
      <point x="631.389" y="70.7725"/>
      <point x="631.432" y="70.7725" type="curve" smooth="yes"/>
      <point x="642.555" y="73.0557"/>
      <point x="653.543" y="74.9199"/>
      <point x="664.969" y="76.417" type="curve"/>
      <point x="679.53" y="76.792"/>
      <point x="694.789" y="79.8594"/>
      <point x="710.374" y="82.9756" type="curve" smooth="yes"/>
      <point x="719.025" y="85.4033"/>
      <point x="728.164" y="89.6582"/>
      <point x="735.916" y="94.6816" type="curve" smooth="yes"/>
      <point x="759.638" y="110.03"/>
      <point x="784.465" y="123.967"/>
      <point x="807.279" y="139.448" type="curve" smooth="yes"/>
      <point x="814.239" y="145.269"/>
      <point x="821.905" y="151.964"/>
      <point x="823.948" y="156.566" type="curve" smooth="yes"/>
      <point x="824.804" y="159.057"/>
      <point x="827.688" y="168.768"/>
      <point x="828.466" y="171.408" type="curve" smooth="yes"/>
      <point x="833.481" y="197.88"/>
      <point x="835.618" y="225.595"/>
      <point x="838.68" y="253.658" type="curve" smooth="yes"/>
      <point x="841.765" y="279.537"/>
      <point x="848.896" y="303.304"/>
      <point x="855.164" y="326.599" type="curve" smooth="yes"/>
      <point x="855.244" y="327.808"/>
      <point x="855.282" y="329.045"/>
      <point x="855.282" y="330.313" type="curve" smooth="yes"/>
      <point x="855.282" y="341.184"/>
      <point x="852.198" y="355.203"/>
      <point x="850.94" y="366.592" type="curve" smooth="yes"/>
      <point x="849.064" y="383.035"/>
      <point x="848.361" y="399.427"/>
      <point x="848.361" y="415.692" type="curve" smooth="yes"/>
      <point x="848.361" y="446.208"/>
      <point x="851.505" y="476.565"/>
      <point x="851.505" y="506.716" type="curve" smooth="yes"/>
      <point x="851.505" y="515.472"/>
      <point x="851.142" y="524.362"/>
      <point x="850.796" y="532.931" type="curve" smooth="yes"/>
      <point x="850.333" y="544.377"/>
      <point x="849.821" y="554.953"/>
      <point x="847.661" y="564.318" type="curve" smooth="yes"/>
      <point x="844.905" y="576.265"/>
      <point x="839.204" y="589.764"/>
      <point x="833.165" y="602.306" type="curve" smooth="yes"/>
      <point x="821.984" y="625.528"/>
      <point x="810.615" y="648.966"/>
      <point x="803.456" y="675.674" type="curve" smooth="yes"/>
      <point x="802.791" y="677.091"/>
      <point x="802.588" y="679.065"/>
      <point x="801.931" y="679.5" type="curve" smooth="yes"/>
      <point x="798.696" y="681.583"/>
      <point x="796.613" y="683.108"/>
      <point x="793.951" y="685.162" type="curve" smooth="yes"/>
      <point x="777.074" y="698.181"/>
      <point x="763.198" y="713.739"/>
      <point x="751.912" y="730.867" type="curve" smooth="yes"/>
      <point x="744.195" y="741.846"/>
      <point x="741.71" y="751.796"/>
      <point x="735.92" y="762.317" type="curve" smooth="yes"/>
      <point x="734.562" y="763.386"/>
      <point x="732.904" y="764.744"/>
      <point x="731.806" y="766.186" type="curve" smooth="yes"/>
      <point x="729.502" y="769.207"/>
      <point x="728.754" y="772.637"/>
      <point x="728.754" y="775.166" type="curve" smooth="yes"/>
      <point x="728.754" y="782.677"/>
      <point x="732.624" y="785.845"/>
      <point x="736.24" y="789.077" type="curve" smooth="yes"/>
      <point x="742.298" y="794.489"/>
      <point x="751.322" y="800.707"/>
      <point x="758.479" y="804.887" type="curve" smooth="yes"/>
      <point x="760.315" y="805.959"/>
      <point x="762" y="806.891"/>
      <point x="763.972" y="807.763" type="curve" smooth="yes"/>
      <point x="765.52" y="808.447"/>
      <point x="766.938" y="809.72"/>
      <point x="772.439" y="809.72" type="curve" smooth="yes"/>
      <point x="774.667" y="809.72"/>
      <point x="780.671" y="809.319"/>
      <point x="785.136" y="803.911" type="curve" smooth="yes"/>
      <point x="795.684" y="791.626"/>
      <point x="803.899" y="775.947"/>
      <point x="812.606" y="762.531" type="curve" smooth="yes"/>
      <point x="819.04" y="752.617"/>
      <point x="821.485" y="749.908"/>
      <point x="829.095" y="742.251" type="curve" smooth="yes"/>
      <point x="833.206" y="738.114"/>
      <point x="837.707" y="733.185"/>
      <point x="842.146" y="728.227" type="curve" smooth="yes"/>
      <point x="843.681" y="727.066"/>
      <point x="844.766" y="726.134"/>
      <point x="847.05" y="724.089" type="curve" smooth="yes"/>
      <point x="855.881" y="716.181"/>
      <point x="861.669" y="706.756"/>
      <point x="865.808" y="698.223" type="curve" smooth="yes"/>
      <point x="877.129" y="674.878"/>
      <point x="888.031" y="651.321"/>
      <point x="899.368" y="628.095" type="curve" smooth="yes"/>
      <point x="904.369" y="616.87"/>
      <point x="909.016" y="607.652"/>
      <point x="912.96" y="593.912" type="curve" smooth="yes"/>
      <point x="917.955" y="576.511"/>
      <point x="919.757" y="558.795"/>
      <point x="919.757" y="541.435" type="curve" smooth="yes"/>
      <point x="919.757" y="529.618"/>
      <point x="919.016" y="517.894"/>
      <point x="919.016" y="505.894" type="curve" smooth="yes"/>
      <point x="919.016" y="480.109"/>
      <point x="920.099" y="454.126"/>
      <point x="920.099" y="428.211" type="curve" smooth="yes"/>
      <point x="920.099" y="408.74"/>
      <point x="919.687" y="389.281"/>
      <point x="918.897" y="369.845" type="curve" smooth="yes"/>
      <point x="918.927" y="353.168"/>
      <point x="920.04" y="336.38"/>
      <point x="920.079" y="319.422" type="curve" smooth="yes"/>
      <point x="920.079" y="318.866" type="line"/>
      <point x="918.33" y="293.326"/>
      <point x="912.747" y="269.94"/>
      <point x="909.648" y="245.871" type="curve" smooth="yes"/>
      <point x="905.551" y="213.733"/>
      <point x="903.479" y="184.441"/>
      <point x="893.449" y="152.911" type="curve" smooth="yes"/>
      <point x="889.388" y="141.906"/>
      <point x="886.07" y="131.369"/>
      <point x="879.557" y="120.017" type="curve" smooth="yes"/>
      <point x="872.696" y="108.071"/>
      <point x="863.765" y="98.5586"/>
      <point x="855.51" y="90.1367" type="curve" smooth="yes"/>
      <point x="832.835" y="69.4629"/>
      <point x="806.763" y="52.6719"/>
      <point x="776.62" y="41.5674" type="curve" smooth="yes"/>
      <point x="770.731" y="38.2041"/>
      <point x="766.741" y="35.6914"/>
      <point x="758.547" y="32.5576" type="curve" smooth="yes"/>
      <point x="751.604" y="29.9014"/>
      <point x="742.573" y="27.7773"/>
      <point x="737.813" y="24.9658" type="curve" smooth="yes"/>
      <point x="721.321" y="18.9639"/>
      <point x="702.96" y="11.666"/>
      <point x="681.115" y="11.3867" type="curve" smooth="yes"/>
      <point x="664.053" y="9.38867"/>
      <point x="636.086" y="6.06152"/>
      <point x="617.012" y="6.06152" type="curve" smooth="yes"/>
      <point x="613.713" y="6.06152"/>
      <point x="621.379" y="6.16895"/>
      <point x="618.013" y="6.41602" type="curve" smooth="yes"/>
      <point x="611.462" y="6.89551"/>
      <point x="608.97" y="8.23145"/>
      <point x="604.257" y="9.26758" type="curve" smooth="yes"/>
      <point x="599.981" y="11.2041"/>
      <point x="596.822" y="12.2285"/>
      <point x="592.095" y="14.8291" type="curve" smooth="yes"/>
      <point x="555.56" y="34.0674"/>
      <point x="545.681" y="71.1104"/>
      <point x="532.056" y="107.827" type="curve" smooth="yes"/>
      <point x="522.384" y="133.891"/>
      <point x="520.147" y="159.474"/>
      <point x="517.055" y="185.786" type="curve" smooth="yes"/>
      <point x="515.902" y="195.593"/>
      <point x="514.22" y="207.026"/>
      <point x="512.168" y="215.108" type="curve" smooth="yes"/>
      <point x="510.961" y="217.738"/>
      <point x="507.72" y="232.495"/>
      <point x="506.807" y="238.579" type="curve" smooth="yes"/>
      <point x="503.565" y="260.15"/>
      <point x="500.057" y="281.245"/>
      <point x="496.927" y="302.599" type="curve" smooth="yes"/>
      <point x="494.642" y="318.188"/>
      <point x="492.402" y="333.666"/>
      <point x="489.035" y="348.31" type="curve" smooth="yes"/>
      <point x="488.748" y="349.555"/>
      <point x="488.371" y="350.903"/>
      <point x="487.925" y="352.063" type="curve" smooth="yes"/>
      <point x="486.867" y="352.063"/>
      <point x="487.213" y="351.805"/>
      <point x="484.532" y="351.805" type="curve" smooth="yes"/>
      <point x="484.366" y="351.805"/>
      <point x="484.17" y="351.802"/>
      <point x="483.945" y="351.802" type="curve" smooth="yes"/>
      <point x="482.524" y="351.802"/>
      <point x="479.949" y="351.926"/>
      <point x="476.608" y="353.75" type="curve" smooth="yes"/>
      <point x="459.445" y="354.412"/>
      <point x="441.62" y="356.252"/>
      <point x="424.133" y="357.742" type="curve" smooth="yes"/>
      <point x="420.575" y="358.045"/>
      <point x="418.267" y="358.241"/>
      <point x="414.889" y="358.241" type="curve" smooth="yes"/>
      <point x="413.369" y="358.241"/>
      <point x="411.608" y="358.198"/>
      <point x="409.444" y="358.087" type="curve" smooth="yes"/>
      <point x="409.633" y="354.326"/>
      <point x="409.726" y="350.561"/>
      <point x="409.726" y="346.793" type="curve" smooth="yes"/>
      <point x="409.726" y="345.514"/>
      <point x="409.715" y="344.234"/>
      <point x="409.692" y="342.955" type="curve" smooth="yes"/>
      <point x="409.692" y="342.828" type="line"/>
      <point x="409.686" y="342.702" type="line" smooth="yes"/>
      <point x="409.28" y="331.703"/>
      <point x="408.572" y="320.127"/>
      <point x="406.944" y="309.655" type="curve" smooth="yes"/>
      <point x="406.594" y="307.389"/>
      <point x="406.356" y="305.613"/>
      <point x="406.298" y="304.348" type="curve" smooth="yes"/>
      <point x="406.317" y="304.278"/>
      <point x="406.34" y="304.202"/>
      <point x="406.363" y="304.121" type="curve" smooth="yes"/>
      <point x="412.304" y="290.573"/>
      <point x="418.589" y="277.216"/>
      <point x="424.488" y="263.498" type="curve" smooth="yes"/>
      <point x="434.416" y="242.949"/>
      <point x="443.977" y="220.669"/>
      <point x="445.411" y="195.471" type="curve" smooth="yes"/>
      <point x="448.521" y="171.907"/>
      <point x="453.528" y="148.627"/>
      <point x="460.146" y="125.605" type="curve" smooth="yes"/>
      <point x="462.392" y="114.185"/>
      <point x="465.417" y="101.54"/>
      <point x="465.417" y="86.9512" type="curve" smooth="yes"/>
      <point x="465.417" y="69.2568"/>
      <point x="459.609" y="47.3613"/>
      <point x="435.419" y="36.3438" type="curve" smooth="yes"/>
      <point x="428.586" y="33.0869"/>
      <point x="425.275" y="33.2891"/>
      <point x="419.592" y="31.7197" type="curve"/>
      <point x="409.504" y="31.2705"/>
      <point x="399.109" y="30.8701"/>
      <point x="388.548" y="30.8701" type="curve" smooth="yes"/>
      <point x="375.844" y="30.8701"/>
      <point x="362.98" y="31.4287"/>
      <point x="350.406" y="33.2021" type="curve" smooth="yes"/>
      <point x="350.279" y="33.2021"/>
      <point x="350.155" y="33.2041"/>
      <point x="350.027" y="33.2041" type="curve" smooth="yes"/>
      <point x="336.651" y="33.2041"/>
      <point x="323.026" y="29.3516"/>
      <point x="308.179" y="29.3516" type="curve" smooth="yes"/>
      <point x="278.998" y="29.3516"/>
      <point x="252.146" y="28.5723"/>
      <point x="222.687" y="36.3652" type="curve" smooth="yes"/>
      <point x="182.308" y="48.416"/>
      <point x="169.738" y="83.8574"/>
      <point x="144.7" y="109.034" type="curve" smooth="yes"/>
      <point x="140.402" y="113.451"/>
      <point x="135.968" y="118.55"/>
      <point x="131.923" y="123.11" type="curve" smooth="yes"/>
      <point x="113.796" y="143.374"/>
      <point x="93.1074" y="158.539"/>
      <point x="78.6953" y="185.056" type="curve" smooth="yes"/>
      <point x="61.207" y="214.738"/>
      <point x="44.96" y="245.926"/>
      <point x="41.3311" y="284.008" type="curve" smooth="yes"/>
      <point x="38.5127" y="309.711"/>
      <point x="38.2822" y="335.063"/>
    </contour>
  </outline>
</glyph>
<glyph name="grave" format="2">
  <advance width="1000"/>
  <unicode hex="0060"/>
  <outline>
    <contour>
      <point x="364.005" y="680" type="curve" smooth="yes"/>
      <point x="364.005" y="686.4"/>
      <point x="366.444" y="692.799"/>
      <point x="371.322" y="697.678" type="curve" smooth="yes"/>
      <point x="376.201" y="702.556"/>
      <point x="382.6" y="704.995"/>
      <point x="389" y="704.995" type="curve" smooth="yes"/>
      <point x="396.828" y="704.995"/>
      <point x="404.723" y="700.848"/>
      <point x="409.187" y="694.752" type="curve"/>
      <point x="417.48" y="692.409"/>
      <point x="424.966" y="692.718"/>
      <point x="436.826" y="684.833" type="curve" smooth="yes"/>
      <point x="447.527" y="677.72"/>
      <point x="456.267" y="670.395"/>
      <point x="463.642" y="663.02" type="curve" smooth="yes"/>
      <point x="479.827" y="646.835"/>
      <point x="488.06" y="632.491"/>
      <point x="501.987" y="616.265" type="curve" smooth="yes"/>
      <point x="504.682" y="613.125"/>
      <point x="506.47" y="609.472"/>
      <point x="507.352" y="605.651" type="curve" smooth="yes"/>
      <point x="513.352" y="579.651" type="line" smooth="yes"/>
      <point x="513.781" y="577.794"/>
      <point x="513.995" y="575.897"/>
      <point x="513.995" y="574" type="curve" smooth="yes"/>
      <point x="513.995" y="567.6"/>
      <point x="511.556" y="561.201"/>
      <point x="506.678" y="556.322" type="curve" smooth="yes"/>
      <point x="501.799" y="551.444"/>
      <point x="495.4" y="549.005"/>
      <point x="489" y="549.005" type="curve" smooth="yes"/>
      <point x="477.261" y="549.005"/>
      <point x="467.081" y="557.806"/>
      <point x="464.648" y="568.349" type="curve" smooth="yes"/>
      <point x="459.991" y="588.528" type="line"/>
      <point x="449.05" y="601.855"/>
      <point x="439.495" y="616.456"/>
      <point x="428.286" y="627.665" type="curve" smooth="yes"/>
      <point x="423.16" y="632.791"/>
      <point x="417.236" y="637.807"/>
      <point x="409.174" y="643.167" type="curve" smooth="yes"/>
      <point x="408.973" y="643.3"/>
      <point x="408.18" y="643.759"/>
      <point x="403.153" y="644.813" type="curve" smooth="yes"/>
      <point x="397.705" y="645.956"/>
      <point x="384.905" y="648.181"/>
      <point x="374.142" y="658.944" type="curve" smooth="yes"/>
      <point x="369.159" y="663.927"/>
      <point x="364.005" y="671.213"/>
    </contour>
  </outline>
</glyph>
<glyph name="f" format="2">
  <advance width="374"/>
  <unicode hex="0066"/>
  <outline>
    <contour>
      <point x="118.874" y="306.6" type="curve" smooth="yes"/>
      <point x="118.874" y="334.419"/>
      <point x="111.263" y="366.731"/>
      <point x="111.263" y="396.741" type="curve" smooth="yes"/>
      <point x="111.263" y="412.709"/>
      <point x="113.411" y="429.683"/>
      <point x="118.325" y="446.193" type="curve" smooth="yes"/>
      <point x="123.341" y="463.042"/>
      <point x="131.311" y="480.002"/>
      <point x="145.177" y="493.868" type="curve" smooth="yes"/>
      <point x="158.412" y="507.104"/>
      <point x="177.379" y="516.594"/>
      <point x="199.269" y="516.594" type="curve" smooth="yes"/>
      <point x="225.371" y="516.594"/>
      <point x="246.33" y="502.589"/>
      <point x="260.248" y="488.67" type="curve" smooth="yes"/>
      <point x="273.82" y="475.099"/>
      <point x="282.9" y="459.766"/>
      <point x="289.033" y="446.106" type="curve" smooth="yes"/>
      <point x="290.786" y="442.204"/>
      <point x="291.662" y="438.002"/>
      <point x="291.662" y="433.8" type="curve" smooth="yes"/>
      <point x="291.662" y="426.12"/>
      <point x="288.735" y="418.44"/>
      <point x="282.882" y="412.587" type="curve" smooth="yes"/>
      <point x="277.027" y="406.732"/>
      <point x="269.348" y="403.806"/>
      <point x="261.668" y="403.806" type="curve" smooth="yes"/>
      <point x="249.761" y="403.806"/>
      <point x="238.732" y="411.628"/>
      <point x="234.303" y="421.493" type="curve" smooth="yes"/>
      <point x="228.297" y="434.868"/>
      <point x="214.883" y="455.28"/>
      <point x="198.736" y="456.586" type="curve" smooth="yes"/>
      <point x="193.909" y="456.389"/>
      <point x="191.104" y="454.942"/>
      <point x="187.604" y="451.441" type="curve" smooth="yes"/>
      <point x="183.558" y="447.396"/>
      <point x="178.908" y="439.399"/>
      <point x="175.813" y="429.004" type="curve" smooth="yes"/>
      <point x="172.759" y="418.741"/>
      <point x="171.288" y="406.694"/>
      <point x="171.288" y="395.993" type="curve" smooth="yes"/>
      <point x="171.288" y="382.727"/>
      <point x="173.117" y="371.733"/>
      <point x="174.706" y="358.507" type="curve" smooth="yes"/>
      <point x="176.447" y="344.01"/>
      <point x="178.339" y="328.818"/>
      <point x="178.771" y="313.11" type="curve"/>
      <point x="195.856" y="273.26"/>
      <point x="206.947" y="231.479"/>
      <point x="219.756" y="189.854" type="curve"/>
      <point x="223.235" y="192.04"/>
      <point x="226.851" y="194.174"/>
      <point x="230.625" y="196.21" type="curve" smooth="yes"/>
      <point x="244.77" y="203.839"/>
      <point x="260.452" y="206.994"/>
      <point x="276.068" y="206.994" type="curve" smooth="yes"/>
      <point x="285.668" y="206.994" type="line" smooth="yes"/>
      <point x="289.096" y="206.994"/>
      <point x="292.523" y="206.411"/>
      <point x="295.789" y="205.245" type="curve" smooth="yes"/>
      <point x="329.389" y="193.245" type="line" smooth="yes"/>
      <point x="340.342" y="189.333"/>
      <point x="349.263" y="177.828"/>
      <point x="349.263" y="165" type="curve" smooth="yes"/>
      <point x="349.263" y="157.32"/>
      <point x="346.335" y="149.641"/>
      <point x="340.481" y="143.787" type="curve" smooth="yes"/>
      <point x="334.628" y="137.933"/>
      <point x="326.948" y="135.006"/>
      <point x="319.269" y="135.006" type="curve" smooth="yes"/>
      <point x="315.841" y="135.006"/>
      <point x="312.413" y="135.589"/>
      <point x="309.147" y="136.755" type="curve" smooth="yes"/>
      <point x="280.445" y="147.006" type="line"/>
      <point x="276.068" y="147.006" type="line" smooth="yes"/>
      <point x="270.696" y="147.006"/>
      <point x="261.126" y="144.477"/>
      <point x="259.112" y="143.391" type="curve" smooth="yes"/>
      <point x="253.286" y="140.248"/>
      <point x="247.025" y="136.077"/>
      <point x="240.314" y="131.308" type="curve"/>
      <point x="257.29" y="85.5508"/>
      <point x="272.879" y="38.6328"/>
      <point x="272.879" y="-15.0723" type="curve" smooth="yes"/>
      <point x="272.879" y="-51.1426"/>
      <point x="266.692" y="-80.7754"/>
      <point x="255.042" y="-105.885" type="curve" smooth="yes"/>
      <point x="242.618" y="-132.659"/>
      <point x="224.661" y="-153.414"/>
      <point x="204.193" y="-174.89" type="curve" smooth="yes"/>
      <point x="198.578" y="-180.78"/>
      <point x="190.854" y="-184.012"/>
      <point x="183.155" y="-184.187" type="curve" smooth="yes"/>
      <point x="77.5547" y="-186.586" type="line" smooth="yes"/>
      <point x="77.3262" y="-186.592"/>
      <point x="77.0977" y="-186.594"/>
      <point x="76.8682" y="-186.594" type="curve" smooth="yes"/>
      <point x="69.1885" y="-186.594"/>
      <point x="61.5088" y="-183.667"/>
      <point x="55.6553" y="-177.813" type="curve" smooth="yes"/>
      <point x="49.8008" y="-171.959"/>
      <point x="46.874" y="-164.279"/>
      <point x="46.874" y="-156.6" type="curve" smooth="yes"/>
      <point x="46.874" y="-148.92"/>
      <point x="49.8008" y="-141.241"/>
      <point x="55.6553" y="-135.387" type="curve" smooth="yes"/>
      <point x="61.335" y="-129.707"/>
      <point x="68.7324" y="-126.783"/>
      <point x="76.1816" y="-126.613" type="curve" smooth="yes"/>
      <point x="169.167" y="-124.5" type="line"/>
      <point x="183.812" y="-108.47"/>
      <point x="193.843" y="-95.2002"/>
      <point x="200.617" y="-80.5996" type="curve" smooth="yes"/>
      <point x="207.914" y="-64.874"/>
      <point x="212.882" y="-42.4717"/>
      <point x="212.882" y="-15.3701" type="curve" smooth="yes"/>
      <point x="212.882" y="22.4541"/>
      <point x="202.796" y="58.002"/>
      <point x="188.775" y="97.332" type="curve"/>
      <point x="175.4" y="90.9873"/>
      <point x="160.225" y="86.4785"/>
      <point x="143.019" y="86.4785" type="curve" smooth="yes"/>
      <point x="140.237" y="86.4785"/>
      <point x="137.403" y="86.5967"/>
      <point x="134.515" y="86.8438" type="curve" smooth="yes"/>
      <point x="131.585" y="86.584"/>
      <point x="128.725" y="86.4609"/>
      <point x="125.935" y="86.4609" type="curve" smooth="yes"/>
      <point x="89.3418" y="86.4609"/>
      <point x="64.7012" y="107.655"/>
      <point x="48.6025" y="121.135" type="curve" smooth="yes"/>
      <point x="40.7539" y="127.706"/>
      <point x="34.0469" y="133.163"/>
      <point x="27.9111" y="136.822" type="curve" smooth="yes"/>
      <point x="19.5107" y="141.831"/>
      <point x="42.0049" y="103.227"/>
      <point x="42.0049" y="112" type="curve" smooth="yes"/>
      <point x="42.0049" y="118.399"/>
      <point x="16.2012" y="177.959"/>
      <point x="22.0547" y="183.813" type="curve" smooth="yes"/>
      <point x="27.9092" y="189.667"/>
      <point x="35.5889" y="192.594"/>
      <point x="43.2686" y="192.594" type="curve" smooth="yes"/>
      <point x="48.5898" y="192.594"/>
      <point x="53.9111" y="191.188"/>
      <point x="58.626" y="188.378" type="curve" smooth="yes"/>
      <point x="70.1709" y="181.493"/>
      <point x="79.2578" y="173.726"/>
      <point x="87.0781" y="167.179" type="curve" smooth="yes"/>
      <point x="104.138" y="152.895"/>
      <point x="112.541" y="146.393"/>
      <point x="125.201" y="146.393" type="curve" smooth="yes"/>
      <point x="128.104" y="146.393"/>
      <point x="131.435" y="146.994"/>
      <point x="134.468" y="146.994" type="curve" smooth="yes"/>
      <point x="137.089" y="146.994"/>
      <point x="139.686" y="146.517"/>
      <point x="142.305" y="146.517" type="curve" smooth="yes"/>
      <point x="150.296" y="146.517"/>
      <point x="158.453" y="149.287"/>
      <point x="167.963" y="154.552" type="curve"/>
      <point x="153.068" y="200.578"/>
      <point x="139.414" y="254.213"/>
      <point x="121.481" y="294.342" type="curve" smooth="yes"/>
      <point x="119.743" y="298.231"/>
      <point x="118.874" y="302.415"/>
    </contour>
  </outline>
</glyph>
<glyph name="p" format="2">
  <advance width="460"/>
  <unicode hex="0070"/>
  <outline>
    <contour>
      <point x="116" y="144.685" type="curve" smooth="yes"/>
      <point x="104" y="144.685"/>
      <point x="93" y="147.685"/>
      <point x="90" y="158.685" type="curve" smooth="yes"/>
      <point x="80" y="193.685"/>
      <point x="82" y="214.685"/>
      <point x="84" y="250.685" type="curve" smooth="yes"/>
      <point x="85" y="277.685"/>
      <point x="88" y="294.685"/>
      <point x="98" y="320.685" type="curve" smooth="yes"/>
      <point x="108" y="345.685"/>
      <point x="112" y="366.685"/>
      <point x="136" y="380.685" type="curve" smooth="yes"/>
      <point x="158" y="393.685"/>
      <point x="176" y="384.685"/>
      <point x="202" y="382.685" type="curve" smooth="yes"/>
      <point x="239" y="379.685"/>
      <point x="262" y="382.685"/>
      <point x="296" y="366.685" type="curve" smooth="yes"/>
      <point x="315" y="357.685"/>
      <point x="319" y="341.685"/>
      <point x="328" y="322.685" type="curve" smooth="yes"/>
      <point x="338" y="301.685"/>
      <point x="349" y="289.685"/>
      <point x="346" y="266.685" type="curve" smooth="yes"/>
      <point x="343" y="243.685"/>
      <point x="357" y="246.685"/>
      <point x="342" y="228.685" type="curve" smooth="yes"/>
      <point x="322" y="203.685"/>
      <point x="316" y="179.685"/>
      <point x="286" y="168.685" type="curve" smooth="yes"/>
      <point x="234" y="149.685"/>
      <point x="171" y="143.685"/>
    </contour>
    <contour>
      <point x="194" y="-216.311" type="curve" smooth="yes"/>
      <point x="200.4" y="-216.311"/>
      <point x="206.8" y="-213.871"/>
      <point x="211.678" y="-208.993" type="curve" smooth="yes"/>
      <point x="216.557" y="-204.115"/>
      <point x="218.995" y="-197.715"/>
      <point x="218.995" y="-191.315" type="curve" smooth="yes"/>
      <point x="218.995" y="-187.217"/>
      <point x="217.995" y="-183.117"/>
      <point x="215.994" y="-179.418" type="curve" smooth="yes"/>
      <point x="192.243" y="-135.516"/>
      <point x="217.186" y="-195.176"/>
      <point x="195.059" y="-162.641" type="curve" smooth="yes"/>
      <point x="153.75" y="-101.902"/>
      <point x="119.706" y="-51.9209"/>
      <point x="99.29" y="31.5996" type="curve" smooth="yes"/>
      <point x="93.1416" y="56.9854"/>
      <point x="88.2119" y="80.4053"/>
      <point x="84.5801" y="102.589" type="curve"/>
      <point x="90.5996" y="100.95"/>
      <point x="98.2256" y="98.8066"/>
      <point x="107.318" y="97.833" type="curve" smooth="yes"/>
      <point x="127.991" y="95.6182"/>
      <point x="145.454" y="92.166"/>
      <point x="168.545" y="92.166" type="curve" smooth="yes"/>
      <point x="183.665" y="92.166"/>
      <point x="200.469" y="93.9189"/>
      <point x="214.792" y="94.4424" type="curve" smooth="yes"/>
      <point x="242.441" y="95.4521"/>
      <point x="272.041" y="96.6572"/>
      <point x="305.522" y="116.041" type="curve" smooth="yes"/>
      <point x="329.392" y="130.146"/>
      <point x="353.135" y="142.746"/>
      <point x="373.227" y="162.838" type="curve" smooth="yes"/>
      <point x="395.713" y="185.323"/>
      <point x="410.48" y="216.975"/>
      <point x="410.48" y="261.398" type="curve" smooth="yes"/>
      <point x="410.48" y="285.103"/>
      <point x="405.598" y="307.247"/>
      <point x="396.424" y="327.761" type="curve" smooth="yes"/>
      <point x="385.351" y="352.519"/>
      <point x="367.879" y="376.256"/>
      <point x="347.374" y="396.76" type="curve" smooth="yes"/>
      <point x="317.043" y="427.092"/>
      <point x="280.752" y="442.995"/>
      <point x="225.755" y="442.995" type="curve" smooth="yes"/>
      <point x="217.433" y="442.995"/>
      <point x="208.867" y="442.592"/>
      <point x="200.839" y="442.164" type="curve" smooth="yes"/>
      <point x="179.203" y="441.01"/>
      <point x="156.168" y="439.989"/>
      <point x="133.799" y="434.314" type="curve" smooth="yes"/>
      <point x="115.968" y="429.79"/>
      <point x="97.9561" y="422.005"/>
      <point x="83.2949" y="407.344" type="curve" smooth="yes"/>
      <point x="73.8232" y="397.872"/>
      <point x="66.3545" y="385.978"/>
      <point x="61.4316" y="372.031" type="curve" smooth="yes"/>
      <point x="41.7939" y="314.944"/>
      <point x="30.8711" y="264.631"/>
      <point x="27.9766" y="214.898" type="curve" smooth="yes"/>
      <point x="27.4385" y="205.659"/>
      <point x="27.1758" y="196.454"/>
      <point x="27.1758" y="187.24" type="curve" smooth="yes"/>
      <point x="27.1758" y="134.415"/>
      <point x="35.8086" y="81.2998"/>
      <point x="50.7109" y="19.7695" type="curve" smooth="yes"/>
      <point x="73.2295" y="-72.3545"/>
      <point x="112.591" y="-130.307"/>
      <point x="153.685" y="-190.729" type="curve" smooth="yes"/>
      <point x="175.823" y="-223.281"/>
      <point x="149.629" y="-161.846"/>
      <point x="172.007" y="-203.213" type="curve" smooth="yes"/>
      <point x="176.021" y="-210.632"/>
      <point x="184.809" y="-216.311"/>
    </contour>
  </outline>
</glyph>
<glyph name="q" format="2">
  <advance width="514"/>
  <unicode hex="0071"/>
  <outline>
    <contour>
      <point x="235" y="283" type="curve" smooth="yes"/>
      <point x="240" y="273" type="line" smooth="yes"/>
      <point x="246" y="260"/>
      <point x="260" y="218"/>
      <point x="260" y="218" type="curve" smooth="yes"/>
      <point x="263.289" y="164.298"/>
      <point x="212.613" y="137.182"/>
      <point x="164" y="150" type="curve" smooth="yes"/>
      <point x="136.543" y="150.691"/>
      <point x="111.321" y="155.493"/>
      <point x="92" y="174" type="curve" smooth="yes"/>
      <point x="70.2324" y="190.848"/>
      <point x="52.5439" y="216.525"/>
      <point x="58" y="246" type="curve" smooth="yes"/>
      <point x="55.7588" y="270.183"/>
      <point x="60.2637" y="292.927"/>
      <point x="72" y="312" type="curve" smooth="yes"/>
      <point x="79.5703" y="339.194"/>
      <point x="107.999" y="345.92"/>
      <point x="136" y="350" type="curve" smooth="yes"/>
      <point x="172.563" y="355.328"/>
      <point x="203.015" y="346.379"/>
      <point x="214" y="315" type="curve" smooth="yes"/>
      <point x="218.004" y="303.562"/>
      <point x="218" y="307"/>
    </contour>
    <contour>
      <point x="175.042" y="62.8058" type="curve" smooth="yes"/>
      <point x="192.031" y="62.8058"/>
      <point x="204.934" y="65.7245"/>
      <point x="218.593" y="67.1387" type="curve" smooth="yes"/>
      <point x="229.882" y="68.3076"/>
      <point x="239.93" y="72.2911"/>
      <point x="248.461" y="77.9097" type="curve"/>
      <point x="251.019" y="1.16095" type="line" smooth="yes"/>
      <point x="251.061" y="-0.0992061"/>
      <point x="251.198" y="-1.35678"/>
      <point x="251.429" y="-2.60014" type="curve" smooth="yes"/>
      <point x="267.429" y="-88.6001" type="line" smooth="yes"/>
      <point x="267.774" y="-90.457"/>
      <point x="268.331" y="-92.2821"/>
      <point x="269.099" y="-94.0368" type="curve" smooth="yes"/>
      <point x="297.099" y="-158.037" type="line" smooth="yes"/>
      <point x="297.45" y="-158.841"/>
      <point x="297.846" y="-159.63"/>
      <point x="298.287" y="-160.401" type="curve" smooth="yes"/>
      <point x="322.287" y="-202.401" type="line" smooth="yes"/>
      <point x="324.166" y="-205.689"/>
      <point x="326.993" y="-208.713"/>
      <point x="330.146" y="-210.815" type="curve" smooth="yes"/>
      <point x="334.88" y="-213.971"/>
      <point x="340.112" y="-217.88"/>
      <point x="346.6" y="-218.764" type="curve" smooth="yes"/>
      <point x="390.6" y="-224.764" type="line" smooth="yes"/>
      <point x="391.727" y="-224.918"/>
      <point x="392.864" y="-224.995"/>
      <point x="394" y="-224.995" type="curve" smooth="yes"/>
      <point x="394.621" y="-224.995"/>
      <point x="395.241" y="-224.972"/>
      <point x="395.86" y="-224.926" type="curve" smooth="yes"/>
      <point x="449.86" y="-220.926" type="line" smooth="yes"/>
      <point x="455.882" y="-220.48"/>
      <point x="461.858" y="-217.753"/>
      <point x="466.214" y="-213.125" type="curve" smooth="yes"/>
      <point x="498.214" y="-179.125" type="line" smooth="yes"/>
      <point x="501.438" y="-175.699"/>
      <point x="503.513" y="-171.582"/>
      <point x="504.438" y="-167.267" type="curve" smooth="yes"/>
      <point x="510.438" y="-139.267" type="line" smooth="yes"/>
      <point x="510.809" y="-137.533"/>
      <point x="510.995" y="-135.766"/>
      <point x="510.995" y="-134" type="curve" smooth="yes"/>
      <point x="510.995" y="-127.6"/>
      <point x="508.556" y="-121.201"/>
      <point x="503.678" y="-116.322" type="curve" smooth="yes"/>
      <point x="498.799" y="-111.444"/>
      <point x="492.4" y="-109.005"/>
      <point x="486" y="-109.005" type="curve" smooth="yes"/>
      <point x="474.122" y="-109.005"/>
      <point x="463.864" y="-117.992"/>
      <point x="461.562" y="-128.733" type="curve" smooth="yes"/>
      <point x="457.018" y="-149.942" type="line"/>
      <point x="436.453" y="-171.791" type="line"/>
      <point x="394.779" y="-174.878" type="line"/>
      <point x="361.571" y="-170.35" type="line"/>
      <point x="342.37" y="-136.749" type="line"/>
      <point x="316.047" y="-76.5809" type="line"/>
      <point x="300.918" y="4.73637" type="line"/>
      <point x="296.981" y="122.839" type="line" smooth="yes"/>
      <point x="296.972" y="123.127"/>
      <point x="296.957" y="123.415"/>
      <point x="296.937" y="123.703" type="curve" smooth="yes"/>
      <point x="288.937" y="241.703" type="line" smooth="yes"/>
      <point x="288.882" y="242.517"/>
      <point x="288.787" y="243.329"/>
      <point x="288.653" y="244.136" type="curve" smooth="yes"/>
      <point x="280.653" y="292.136" type="line" smooth="yes"/>
      <point x="280.586" y="292.539"/>
      <point x="280.509" y="292.94"/>
      <point x="280.422" y="293.34" type="curve" smooth="yes"/>
      <point x="270.422" y="339.34" type="line" smooth="yes"/>
      <point x="266.105" y="359.199"/>
      <point x="252.843" y="371.634"/>
      <point x="245.417" y="379.506" type="curve" smooth="yes"/>
      <point x="242.011" y="383.116"/>
      <point x="239.599" y="385.957"/>
      <point x="236.295" y="389.261" type="curve" smooth="yes"/>
      <point x="208.272" y="417.284"/>
      <point x="172.437" y="423.496"/>
      <point x="142.821" y="426.837" type="curve" smooth="yes"/>
      <point x="141.884" y="426.942"/>
      <point x="140.942" y="426.995"/>
      <point x="140" y="426.995" type="curve" smooth="yes"/>
      <point x="139.566" y="426.995"/>
      <point x="139.132" y="426.984"/>
      <point x="138.698" y="426.961" type="curve" smooth="yes"/>
      <point x="87.215" y="424.296"/>
      <point x="54.187" y="386.42"/>
      <point x="34.3832" y="350.582" type="curve" smooth="yes"/>
      <point x="33.1805" y="348.641"/>
      <point x="31.6766" y="346.396"/>
      <point x="29.9818" y="343.883" type="curve" smooth="yes"/>
      <point x="24.1439" y="335.226"/>
      <point x="12.5468" y="320.154"/>
      <point x="12.5468" y="299.362" type="curve" smooth="yes"/>
      <point x="12.5468" y="297.013"/>
      <point x="12.6949" y="294.59"/>
      <point x="13.0161" y="292.095" type="curve" smooth="yes"/>
      <point x="13.2235" y="274.33"/>
      <point x="16.4572" y="259.151"/>
      <point x="17.0204" y="243.116" type="curve" smooth="yes"/>
      <point x="17.7842" y="221.373"/>
      <point x="25.9499" y="209.643"/>
      <point x="29.7073" y="194.097" type="curve" smooth="yes"/>
      <point x="29.9792" y="192.972"/>
      <point x="30.3301" y="191.862"/>
      <point x="30.7599" y="190.776" type="curve" smooth="yes"/>
      <point x="41.9027" y="162.63"/>
      <point x="57.4404" y="133.317"/>
      <point x="81.0205" y="109.737" type="curve" smooth="yes"/>
      <point x="95.4182" y="95.3393"/>
      <point x="112.876" y="83.2333"/>
      <point x="133.631" y="75.7899" type="curve"/>
      <point x="146.264" y="66.233"/>
      <point x="161.093" y="62.8058"/>
    </contour>
  </outline>
</glyph>
<glyph name="r" format="2">
  <advance width="338"/>
  <unicode hex="0072"/>
  <outline>
    <contour>
      <point x="127.995" y="235.7" type="curve" smooth="yes"/>
      <point x="127.995" y="231.01"/>
      <point x="131.999" y="215.015"/>
      <point x="131.999" y="207.1" type="curve" smooth="yes"/>
      <point x="129.991" y="53.1455" type="line" smooth="yes"/>
      <point x="129.948" y="49.8447"/>
      <point x="129.521" y="46.5508"/>
      <point x="128.71" y="43.3867" type="curve" smooth="yes"/>
      <point x="122.71" y="19.9873" type="line" smooth="yes"/>
      <point x="119.582" y="7.78516"/>
      <point x="109.888" y="-2.19336"/>
      <point x="99" y="-2.19336" type="curve" smooth="yes"/>
      <point x="92.6006" y="-2.19336"/>
      <point x="86.2002" y="0.977539"/>
      <point x="81.3223" y="7.31934" type="curve" smooth="yes"/>
      <point x="76.4443" y="13.6611"/>
      <point x="74.0049" y="21.9805"/>
      <point x="74.0049" y="30.2998" type="curve" smooth="yes"/>
      <point x="74.0049" y="33.7861"/>
      <point x="74.4336" y="37.2725"/>
      <point x="75.29" y="40.6133" type="curve" smooth="yes"/>
      <point x="80.0742" y="59.2715" type="line"/>
      <point x="81.959" y="203.825" type="line"/>
      <point x="80.4512" y="212.181"/>
      <point x="78.0479" y="221.142"/>
      <point x="78.0059" y="235.367" type="curve" smooth="yes"/>
      <point x="74.083" y="241.314"/>
      <point x="70.5566" y="249.645"/>
      <point x="69.918" y="261.857" type="curve" smooth="yes"/>
      <point x="64.5654" y="274.942"/>
      <point x="56.5703" y="290.984"/>
      <point x="54.4863" y="313.604" type="curve"/>
      <point x="45.6621" y="331.571"/>
      <point x="33.2402" y="357.231"/>
      <point x="26.0654" y="378.753" type="curve" smooth="yes"/>
      <point x="24.6914" y="382.871"/>
      <point x="24.0049" y="387.286"/>
      <point x="24.0049" y="391.7" type="curve" smooth="yes"/>
      <point x="24.0049" y="400.02"/>
      <point x="26.4443" y="408.339"/>
      <point x="31.3223" y="414.681" type="curve" smooth="yes"/>
      <point x="36.2002" y="421.022"/>
      <point x="42.6006" y="424.193"/>
      <point x="49" y="424.193" type="curve" smooth="yes"/>
      <point x="59.0498" y="424.193"/>
      <point x="68.3057" y="415.531"/>
      <point x="71.9346" y="404.647" type="curve" smooth="yes"/>
      <point x="76.8496" y="389.907"/>
      <point x="89.6748" y="362.897"/>
      <point x="98.2305" y="345.361" type="curve"/>
      <point x="113.822" y="371.625"/>
      <point x="134.729" y="395.008"/>
      <point x="156.104" y="411.75" type="curve" smooth="yes"/>
      <point x="164.395" y="418.243"/>
      <point x="179.629" y="419.958"/>
      <point x="190.503" y="419.958" type="curve" smooth="yes"/>
      <point x="225.02" y="419.958"/>
      <point x="257.279" y="399.167"/>
      <point x="280.164" y="369.416" type="curve" smooth="yes"/>
      <point x="301.479" y="341.707"/>
      <point x="316.483" y="303.926"/>
      <point x="316.483" y="262.508" type="curve" smooth="yes"/>
      <point x="316.483" y="255.614"/>
      <point x="315.708" y="249.827"/>
      <point x="315.708" y="242.523" type="curve" smooth="yes"/>
      <point x="315.708" y="232.865"/>
      <point x="316.413" y="221.774"/>
      <point x="316.413" y="211.071" type="curve" smooth="yes"/>
      <point x="316.413" y="204.561"/>
      <point x="316.158" y="197.585"/>
      <point x="315.319" y="190.276" type="curve" smooth="yes"/>
      <point x="314.011" y="178.872"/>
      <point x="311.154" y="164.44"/>
      <point x="301.727" y="152.186" type="curve" smooth="yes"/>
      <point x="296.57" y="145.481"/>
      <point x="289.283" y="138.647"/>
      <point x="279.868" y="138.226" type="curve" smooth="yes"/>
      <point x="221.868" y="135.626" type="line" smooth="yes"/>
      <point x="221.579" y="135.613"/>
      <point x="221.289" y="135.606"/>
      <point x="221" y="135.606" type="curve" smooth="yes"/>
      <point x="214.601" y="135.606"/>
      <point x="208.2" y="138.777"/>
      <point x="203.322" y="145.119" type="curve" smooth="yes"/>
      <point x="198.444" y="151.461"/>
      <point x="196.005" y="159.78"/>
      <point x="196.005" y="168.1" type="curve" smooth="yes"/>
      <point x="196.005" y="176.42"/>
      <point x="198.444" y="184.739"/>
      <point x="203.322" y="191.081" type="curve" smooth="yes"/>
      <point x="207.98" y="197.136"/>
      <point x="214.024" y="200.301"/>
      <point x="220.132" y="200.574" type="curve" smooth="yes"/>
      <point x="266.121" y="202.636" type="line"/>
      <point x="266.313" y="205.211"/>
      <point x="266.363" y="207.806"/>
      <point x="266.363" y="210.925" type="curve" smooth="yes"/>
      <point x="266.363" y="220.697"/>
      <point x="265.63" y="231.667"/>
      <point x="265.63" y="241.918" type="curve" smooth="yes"/>
      <point x="265.63" y="248.234"/>
      <point x="266.469" y="255.449"/>
      <point x="266.469" y="262.036" type="curve" smooth="yes"/>
      <point x="266.469" y="282.904"/>
      <point x="258.708" y="305.385"/>
      <point x="244.809" y="323.454" type="curve" smooth="yes"/>
      <point x="229.684" y="343.117"/>
      <point x="209.449" y="354.835"/>
      <point x="190.021" y="354.835" type="curve" smooth="yes"/>
      <point x="186.181" y="354.835"/>
      <point x="182.372" y="354.377"/>
      <point x="178.641" y="353.433" type="curve"/>
      <point x="155.55" y="334.372"/>
      <point x="132.634" y="304.272"/>
      <point x="122.367" y="270.941" type="curve"/>
      <point x="125.534" y="260.948"/>
      <point x="127.995" y="249.289"/>
    </contour>
  </outline>
</glyph>
<glyph name="y" format="2">
  <advance width="453"/>
  <unicode hex="0079"/>
  <outline>
    <contour>
      <point x="199.045" y="-74.7246" type="curve" smooth="yes"/>
      <point x="173.788" y="-95.9863"/>
      <point x="136.334" y="-129.08"/>
      <point x="84.8535" y="-129.08" type="curve" smooth="yes"/>
      <point x="84.4658" y="-129.08"/>
      <point x="84.0674" y="-129.082"/>
      <point x="83.6523" y="-129.082" type="curve" smooth="yes"/>
      <point x="83.5664" y="-129.082"/>
      <point x="83.4775" y="-129.082"/>
      <point x="83.3867" y="-129.082" type="curve" smooth="yes"/>
      <point x="77.5957" y="-130.219"/>
      <point x="63.249" y="-133.356"/>
      <point x="55.4736" y="-135.074" type="curve"/>
      <point x="48.1182" y="-139.978" type="line" smooth="yes"/>
      <point x="43.0615" y="-143.349"/>
      <point x="37.3125" y="-144.997"/>
      <point x="31.5" y="-144.997" type="curve" smooth="yes"/>
      <point x="23.8408" y="-144.997"/>
      <point x="16.1572" y="-142.076"/>
      <point x="10.2871" y="-136.208" type="curve" smooth="yes"/>
      <point x="4.41895" y="-130.338"/>
      <point x="1.50293" y="-122.659"/>
      <point x="1.50293" y="-115" type="curve" smooth="yes"/>
      <point x="1.50293" y="-104.582"/>
      <point x="6.60645" y="-95.54"/>
      <point x="14.8838" y="-90.0205" type="curve" smooth="yes"/>
      <point x="26.8887" y="-82.0166" type="line" smooth="yes"/>
      <point x="30.0049" y="-79.9414"/>
      <point x="33.4043" y="-78.5146"/>
      <point x="36.9102" y="-77.7305" type="curve" smooth="yes"/>
      <point x="39.0293" y="-77.2549"/>
      <point x="66.3701" y="-71.1055"/>
      <point x="75.042" y="-69.6191" type="curve" smooth="yes"/>
      <point x="76.374" y="-69.3906"/>
      <point x="79.1533" y="-68.9766"/>
      <point x="80.6875" y="-68.9766" type="curve" smooth="yes"/>
      <point x="82.2539" y="-68.9766"/>
      <point x="83.6709" y="-69.085"/>
      <point x="84.8496" y="-69.085" type="curve" smooth="yes"/>
      <point x="97.5869" y="-69.085"/>
      <point x="108.996" y="-63.1582"/>
      <point x="125.439" y="-49.0742" type="curve" smooth="yes"/>
      <point x="146.317" y="-33.916"/>
      <point x="163.36" y="-17.2451"/>
      <point x="187.31" y="-2.79883" type="curve" smooth="yes"/>
      <point x="202.39" y="9.33496"/>
      <point x="217.93" y="20.5654"/>
      <point x="233.337" y="31.543" type="curve"/>
      <point x="227.088" y="33.2637"/>
      <point x="221.768" y="34.6279"/>
      <point x="216.791" y="37.5723" type="curve" smooth="yes"/>
      <point x="191.383" y="52.6064"/>
      <point x="166.51" y="66.5596"/>
      <point x="141.922" y="84.4092" type="curve" smooth="yes"/>
      <point x="129.136" y="94.75"/>
      <point x="118.149" y="105.368"/>
      <point x="109.029" y="115.627" type="curve" smooth="yes"/>
      <point x="108.692" y="116.009"/>
      <point x="108.326" y="116.441"/>
      <point x="107.938" y="116.933" type="curve" smooth="yes"/>
      <point x="77.9209" y="154.953" type="line" smooth="yes"/>
      <point x="77.3574" y="155.669"/>
      <point x="76.8281" y="156.407"/>
      <point x="76.3301" y="157.174" type="curve" smooth="yes"/>
      <point x="50.3301" y="197.174" type="line" smooth="yes"/>
      <point x="46.9678" y="202.347"/>
      <point x="45.9844" y="208.217"/>
      <point x="45.7119" y="210.062" type="curve" smooth="yes"/>
      <point x="45.2568" y="213.144"/>
      <point x="43.4014" y="215.309"/>
      <point x="40.9258" y="219.292" type="curve" smooth="yes"/>
      <point x="36.1133" y="227.033"/>
      <point x="29.0146" y="237.971"/>
      <point x="29.0146" y="252.387" type="curve" smooth="yes"/>
      <point x="29.0146" y="266.648"/>
      <point x="38.7021" y="285.498"/>
      <point x="59.5" y="285.498" type="curve" smooth="yes"/>
      <point x="67.1621" y="285.498"/>
      <point x="74.8418" y="282.58"/>
      <point x="80.7109" y="276.711" type="curve" smooth="yes"/>
      <point x="86.5811" y="270.841"/>
      <point x="89.498" y="263.162"/>
      <point x="89.498" y="255.5" type="curve" smooth="yes"/>
      <point x="89.498" y="255.282"/>
      <point x="89.4912" y="255.065"/>
      <point x="89.4912" y="254.849" type="curve" smooth="yes"/>
      <point x="94.5059" y="245.813"/>
      <point x="100.893" y="238.723"/>
      <point x="104.156" y="224.463" type="curve"/>
      <point x="126.963" y="190.982" type="line"/>
      <point x="162.323" y="154.759" type="line" smooth="yes"/>
      <point x="175.578" y="142.707"/>
      <point x="188.075" y="131.533"/>
      <point x="201.454" y="121.245" type="curve" smooth="yes"/>
      <point x="218.911" y="107.824"/>
      <point x="239.141" y="94.8262"/>
      <point x="258.934" y="81.8447" type="curve"/>
      <point x="290.229" y="72.2451" type="line"/>
      <point x="313.621" y="95.2734"/>
      <point x="330.09" y="118.751"/>
      <point x="340.199" y="147.465" type="curve" smooth="yes"/>
      <point x="341.021" y="149.806"/>
      <point x="342.15" y="152.074"/>
      <point x="343.575" y="154.197" type="curve" smooth="yes"/>
      <point x="350.068" y="163.868"/>
      <point x="354.291" y="185.63"/>
      <point x="358.872" y="201.191" type="curve"/>
      <point x="364.606" y="270.014" type="line" smooth="yes"/>
      <point x="365.874" y="285.234"/>
      <point x="378.609" y="297.498"/>
      <point x="394.5" y="297.498" type="curve" smooth="yes"/>
      <point x="402.162" y="297.498"/>
      <point x="409.841" y="294.581"/>
      <point x="415.711" y="288.711" type="curve" smooth="yes"/>
      <point x="421.581" y="282.841"/>
      <point x="424.498" y="275.162"/>
      <point x="424.498" y="267.5" type="curve" smooth="yes"/>
      <point x="424.498" y="266.618"/>
      <point x="424.456" y="265.759"/>
      <point x="424.394" y="264.985" type="curve" smooth="yes"/>
      <point x="418.393" y="192.978" type="line" smooth="yes"/>
      <point x="418.209" y="190.783"/>
      <point x="417.786" y="188.608"/>
      <point x="417.116" y="186.478" type="curve" smooth="yes"/>
      <point x="409.935" y="163.666"/>
      <point x="409.854" y="147.224"/>
      <point x="395.581" y="124.15" type="curve"/>
      <point x="382.469" y="90.917"/>
      <point x="362.424" y="64.3086"/>
      <point x="340.447" y="40.9863" type="curve" smooth="yes"/>
      <point x="340.48" y="40.4502"/>
      <point x="340.498" y="39.9082"/>
      <point x="340.498" y="39.3594" type="curve" smooth="yes"/>
      <point x="340.498" y="32.1934"/>
      <point x="337.581" y="25.0107"/>
      <point x="331.711" y="19.5195" type="curve" smooth="yes"/>
      <point x="325.841" y="14.0293"/>
      <point x="318.162" y="11.3008"/>
      <point x="310.5" y="11.3008" type="curve" smooth="yes"/>
      <point x="310.397" y="11.3008"/>
      <point x="310.296" y="11.3018"/>
      <point x="310.193" y="11.3018" type="curve" smooth="yes"/>
      <point x="287.701" y="-6.58301"/>
      <point x="262.95" y="-24.0752"/>
      <point x="240.675" y="-42.9248" type="curve" smooth="yes"/>
      <point x="239.286" y="-44.1025"/>
      <point x="237.837" y="-45.1406"/>
      <point x="236.23" y="-46.1201" type="curve" smooth="yes"/>
      <point x="223.883" y="-53.6357"/>
      <point x="211.377" y="-64.3428"/>
    </contour>
  </outline>
</glyph>
<glyph name="z" format="2">
  <advance width="335"/>
  <unicode hex="007A"/>
  <outline>
    <contour>
      <point x="150.289" y="62.9521" type="curve" smooth="yes"/>
      <point x="164.318" y="62.9521"/>
      <point x="177.795" y="64.6865"/>
      <point x="192.879" y="64.6865" type="curve" smooth="yes"/>
      <point x="203.043" y="64.6865"/>
      <point x="212.092" y="62.4619"/>
      <point x="220.861" y="62.4619" type="curve" smooth="yes"/>
      <point x="233.274" y="62.4619"/>
      <point x="245.137" y="67.1963"/>
      <point x="256.409" y="68.0586" type="curve" smooth="yes"/>
      <point x="269.184" y="69.0381"/>
      <point x="271.936" y="75.3828"/>
      <point x="282.098" y="75.3828" type="curve" smooth="yes"/>
      <point x="295.212" y="75.3828"/>
      <point x="302.081" y="66.4102"/>
      <point x="305.181" y="61.1709" type="curve" smooth="yes"/>
      <point x="307.986" y="56.4268"/>
      <point x="311.628" y="50.3076"/>
      <point x="311.628" y="41.7168" type="curve" smooth="yes"/>
      <point x="311.628" y="35.2627"/>
      <point x="305.477" y="20.7217"/>
      <point x="292.691" y="17.957" type="curve" smooth="yes"/>
      <point x="284.133" y="12.3301"/>
      <point x="278.476" y="12.373"/>
      <point x="271.796" y="10.3271" type="curve" smooth="yes"/>
      <point x="260.527" y="6.87793"/>
      <point x="245.803" y="3.18164"/>
      <point x="229.353" y="3.18164" type="curve" smooth="yes"/>
      <point x="203.542" y="3.18164"/>
      <point x="195.439" y="2"/>
      <point x="169" y="2" type="curve"/>
      <point x="166.384" y="-0.798828"/>
      <point x="140.884" y="3.46191"/>
      <point x="150.656" y="2.00879" type="curve"/>
      <point x="150.382" y="2.01758" type="line"/>
      <point x="150.234" y="2.01758" type="line" smooth="yes"/>
      <point x="124.115" y="2.76172"/>
      <point x="104.581" y="8.7002"/>
      <point x="83.4482" y="13.7773" type="curve" smooth="yes"/>
      <point x="75.2861" y="15.7393"/>
      <point x="62.8008" y="18.5322"/>
      <point x="52.0801" y="29.3652" type="curve" smooth="yes"/>
      <point x="38.6514" y="42.9307"/>
      <point x="30.7158" y="58.3857"/>
      <point x="30.3818" y="84.6611" type="curve" smooth="yes"/>
      <point x="30.373" y="85.2666" type="line" smooth="yes"/>
      <point x="30.3672" y="85.7842"/>
      <point x="30.3623" y="86.3262"/>
      <point x="30.3623" y="86.8936" type="curve" smooth="yes"/>
      <point x="30.3623" y="97.4326"/>
      <point x="32.5537" y="106.47"/>
      <point x="32.9551" y="117.593" type="curve" smooth="yes"/>
      <point x="33.5869" y="135.145"/>
      <point x="37.4658" y="151.758"/>
      <point x="45.1465" y="165.488" type="curve" smooth="yes"/>
      <point x="66.4844" y="203.618"/>
      <point x="84.4502" y="233.619"/>
      <point x="118.592" y="259.1" type="curve" smooth="yes"/>
      <point x="131.747" y="268.916"/>
      <point x="138.407" y="278.541"/>
      <point x="152.694" y="289.207" type="curve" smooth="yes"/>
      <point x="163.562" y="297.319"/>
      <point x="175.604" y="305.227"/>
      <point x="188.604" y="312.146" type="curve" smooth="yes"/>
      <point x="196.89" y="316.555"/>
      <point x="195.569" y="317.899"/>
      <point x="204.785" y="324.951" type="curve" smooth="yes"/>
      <point x="214.107" y="332.086"/>
      <point x="222.02" y="338.26"/>
      <point x="229.541" y="345.495" type="curve" smooth="yes"/>
      <point x="228.896" y="347.746"/>
      <point x="228.286" y="350.149"/>
      <point x="227.777" y="352.703" type="curve" smooth="yes"/>
      <point x="218.506" y="358.991"/>
      <point x="209.975" y="363.549"/>
      <point x="200.633" y="372.405" type="curve"/>
      <point x="183.962" y="374.092"/>
      <point x="165.021" y="375.245"/>
      <point x="146.002" y="375.245" type="curve" smooth="yes"/>
      <point x="136.228" y="375.245"/>
      <point x="127.177" y="374.581"/>
      <point x="116.936" y="374.581" type="curve" smooth="yes"/>
      <point x="107.934" y="374.581"/>
      <point x="95.5186" y="374.295"/>
      <point x="88.4336" y="376.069" type="curve" smooth="yes"/>
      <point x="78.2393" y="372.595"/>
      <point x="64.1387" y="369.934"/>
      <point x="58.3701" y="367.223" type="curve" smooth="yes"/>
      <point x="54.7949" y="365.542"/>
      <point x="47.0361" y="361.883"/>
      <point x="40.417" y="361.883" type="curve" smooth="yes"/>
      <point x="29.9102" y="361.883"/>
      <point x="22.7002" y="368.683"/>
      <point x="18.3916" y="373.332" type="curve" smooth="yes"/>
      <point x="15.4756" y="376.479"/>
      <point x="8.85156" y="383.993"/>
      <point x="8.85156" y="394.25" type="curve" smooth="yes"/>
      <point x="8.85156" y="419.925"/>
      <point x="49.3203" y="435.589"/>
      <point x="76.8262" y="435.589" type="curve" smooth="yes"/>
      <point x="78.3066" y="435.589"/>
      <point x="79.3428" y="435.482"/>
      <point x="79.9717" y="435.409" type="curve" smooth="yes"/>
      <point x="91.3057" y="436.387"/>
      <point x="101.211" y="437.611"/>
      <point x="110.664" y="437.611" type="curve" smooth="yes"/>
      <point x="111.638" y="437.611"/>
      <point x="112.609" y="437.61"/>
      <point x="113.582" y="437.61" type="curve" smooth="yes"/>
      <point x="124.002" y="437.61"/>
      <point x="133.604" y="436.103"/>
      <point x="143.078" y="436.103" type="curve" smooth="yes"/>
      <point x="155.021" y="436.103"/>
      <point x="166.188" y="437.065"/>
      <point x="178.617" y="437.065" type="curve" smooth="yes"/>
      <point x="200.909" y="437.065"/>
      <point x="225.502" y="433.845"/>
      <point x="237.418" y="421.886" type="curve"/>
      <point x="262.731" y="409.243"/>
      <point x="283.045" y="393.941"/>
      <point x="290.864" y="359.358" type="curve" smooth="yes"/>
      <point x="292.323" y="353.909"/>
      <point x="293.863" y="349.881"/>
      <point x="293.863" y="342.805" type="curve" smooth="yes"/>
      <point x="293.863" y="334.772"/>
      <point x="291.988" y="330.896"/>
      <point x="290.139" y="326.909" type="curve" smooth="yes"/>
      <point x="282.364" y="302.547"/>
      <point x="260.717" y="287.587"/>
      <point x="244.098" y="276.115" type="curve" smooth="yes"/>
      <point x="235.331" y="270.063"/>
      <point x="231.247" y="265.174"/>
      <point x="221.228" y="259.414" type="curve" smooth="yes"/>
      <point x="201.941" y="248.327"/>
      <point x="189.389" y="238.388"/>
      <point x="173.498" y="223.775" type="curve" smooth="yes"/>
      <point x="165.736" y="216.639"/>
      <point x="156.218" y="210.01"/>
      <point x="149.548" y="203.154" type="curve" smooth="yes"/>
      <point x="140.701" y="194.062"/>
      <point x="131.878" y="182.889"/>
      <point x="122.821" y="173.339" type="curve" smooth="yes"/>
      <point x="117.971" y="168.226"/>
      <point x="115.495" y="164.854"/>
      <point x="115.086" y="163.786" type="curve" smooth="yes"/>
      <point x="108.893" y="147.622"/>
      <point x="96.9775" y="141.421"/>
      <point x="95.5801" y="123.263" type="curve" smooth="yes"/>
      <point x="94.5205" y="109.515"/>
      <point x="93.7432" y="95.9121"/>
      <point x="91.1191" y="81.6836" type="curve" smooth="yes"/>
      <point x="91.6172" y="78.0215"/>
      <point x="94.2842" y="74.1406"/>
      <point x="95.3848" y="72.6191" type="curve" smooth="yes"/>
      <point x="100.782" y="71.3652"/>
      <point x="107.017" y="69.6455"/>
      <point x="110.546" y="67.5449" type="curve" smooth="yes"/>
      <point x="120.939" y="65.0732"/>
      <point x="139.817" y="62.9521"/>
    </contour>
  </outline>
</glyph>
<glyph name="logicalnot" format="2">
  <advance width="394"/>
  <unicode hex="00AC"/>
  <outline>
    <contour>
      <point x="326.008" y="314.147" type="curve" smooth="yes"/>
      <point x="326.008" y="299.093"/>
      <point x="325.353" y="286.995"/>
      <point x="322.066" y="274.589" type="curve" smooth="yes"/>
      <point x="319.224" y="263.854"/>
      <point x="314.673" y="254.229"/>
      <point x="308.813" y="243.777" type="curve" smooth="yes"/>
      <point x="306.438" y="239.538"/>
      <point x="302.542" y="235.814"/>
      <point x="298.188" y="233.638" type="curve" smooth="yes"/>
      <point x="282.188" y="225.638" type="line" smooth="yes"/>
      <point x="278.678" y="223.883"/>
      <point x="274.839" y="223.005"/>
      <point x="271" y="223.005" type="curve" smooth="yes"/>
      <point x="264.601" y="223.005"/>
      <point x="258.2" y="225.444"/>
      <point x="253.322" y="230.322" type="curve" smooth="yes"/>
      <point x="248.444" y="235.2"/>
      <point x="246.005" y="241.601"/>
      <point x="246.005" y="248" type="curve" smooth="yes"/>
      <point x="246.005" y="257.513"/>
      <point x="252.035" y="266.474"/>
      <point x="259.812" y="270.362" type="curve" smooth="yes"/>
      <point x="268.717" y="274.814" type="line"/>
      <point x="271.321" y="279.977"/>
      <point x="272.772" y="283.766"/>
      <point x="273.749" y="287.451" type="curve" smooth="yes"/>
      <point x="275.31" y="293.344"/>
      <point x="276.016" y="300.806"/>
      <point x="276.016" y="314.87" type="curve" smooth="yes"/>
      <point x="276.016" y="338.634"/>
      <point x="272.234" y="353.542"/>
      <point x="267.347" y="358.43" type="curve" smooth="yes"/>
      <point x="264.662" y="361.114"/>
      <point x="259.836" y="363.472"/>
      <point x="249.906" y="365.526" type="curve" smooth="yes"/>
      <point x="194.213" y="377.049" type="line"/>
      <point x="78.5732" y="379.009" type="line" smooth="yes"/>
      <point x="72.3164" y="379.114"/>
      <point x="66.0918" y="381.553"/>
      <point x="61.3223" y="386.322" type="curve" smooth="yes"/>
      <point x="56.4443" y="391.2"/>
      <point x="54.0049" y="397.601"/>
      <point x="54.0049" y="404" type="curve" smooth="yes"/>
      <point x="54.0049" y="410.399"/>
      <point x="56.4443" y="416.8"/>
      <point x="61.3223" y="421.678" type="curve" smooth="yes"/>
      <point x="66.2002" y="426.556"/>
      <point x="72.6016" y="429.107"/>
      <point x="79" y="428.999" type="curve" smooth="yes"/>
      <point x="197.427" y="426.991" type="line" smooth="yes"/>
      <point x="198.992" y="426.965"/>
      <point x="200.555" y="426.793"/>
      <point x="202.094" y="426.474" type="curve" smooth="yes"/>
      <point x="259.646" y="414.566" type="line" smooth="yes"/>
      <point x="276.771" y="411.631"/>
      <point x="291.62" y="404.867"/>
      <point x="302.702" y="393.785" type="curve" smooth="yes"/>
      <point x="325.433" y="371.055"/>
      <point x="326.008" y="341.43"/>
    </contour>
  </outline>
</glyph>
<glyph name="mu" format="2">
  <advance width="440"/>
  <unicode hex="00B5"/>
  <outline>
    <contour>
      <point x="333.979" y="217.049" type="curve" smooth="yes"/>
      <point x="333.441" y="220.949"/>
      <point x="332.005" y="224.138"/>
      <point x="332.005" y="228" type="curve" smooth="yes"/>
      <point x="332.005" y="237.341"/>
      <point x="337.371" y="245.517"/>
      <point x="344.86" y="250.071" type="curve" smooth="yes"/>
      <point x="347.146" y="251.462"/>
      <point x="351.817" y="253.868"/>
      <point x="357.977" y="253.868" type="curve" smooth="yes"/>
      <point x="364.448" y="253.868"/>
      <point x="371.773" y="251.051"/>
      <point x="376.39" y="246.435" type="curve" smooth="yes"/>
      <point x="382.371" y="240.453"/>
      <point x="384.111" y="235.213"/>
      <point x="384.111" y="226.338" type="curve" smooth="yes"/>
      <point x="384.111" y="224.65"/>
      <point x="383.96" y="223.605"/>
      <point x="383.841" y="222.781" type="curve" smooth="yes"/>
      <point x="383.942" y="221.871"/>
      <point x="383.995" y="220.956"/>
      <point x="383.995" y="220.041" type="curve" smooth="yes"/>
      <point x="383.995" y="219.937"/>
      <point x="383.995" y="219.832"/>
      <point x="383.995" y="219.728" type="curve" smooth="yes"/>
      <point x="383.995" y="197.02"/>
      <point x="379.65" y="175.413"/>
      <point x="379.65" y="154.146" type="curve" smooth="yes"/>
      <point x="379.65" y="148.487"/>
      <point x="380.233" y="142.669"/>
      <point x="380.233" y="137.192" type="curve" smooth="yes"/>
      <point x="380.233" y="124.006"/>
      <point x="377.995" y="113.76"/>
      <point x="377.995" y="102" type="curve" smooth="yes"/>
      <point x="377.995" y="91.1416"/>
      <point x="375.697" y="82.4414"/>
      <point x="374.188" y="76.3301" type="curve" smooth="yes"/>
      <point x="372.694" y="70.2744"/>
      <point x="371.995" y="66.6982"/>
      <point x="371.995" y="64" type="curve" smooth="yes"/>
      <point x="371.995" y="53.918"/>
      <point x="365.474" y="46.041"/>
      <point x="360.025" y="40.5938" type="curve" smooth="yes"/>
      <point x="339.391" y="19.959"/>
      <point x="307.895" y="15.9902"/>
      <point x="272.85" y="15.0449" type="curve" smooth="yes"/>
      <point x="269.162" y="14.6221"/>
      <point x="265.542" y="14.418"/>
      <point x="261.998" y="14.418" type="curve" smooth="yes"/>
      <point x="238.001" y="14.418"/>
      <point x="217.451" y="23.8037"/>
      <point x="202.681" y="38.5742" type="curve" smooth="yes"/>
      <point x="188.707" y="52.5488"/>
      <point x="180.155" y="69.8145"/>
      <point x="174.437" y="87.207" type="curve" smooth="yes"/>
      <point x="172.832" y="92.085"/>
      <point x="171.447" y="97.0068"/>
      <point x="170.258" y="101.929" type="curve"/>
      <point x="170.021" y="99.2061" type="line"/>
      <point x="171.972" y="17.2666" type="line"/>
      <point x="175.921" y="-34.0684" type="line" smooth="yes"/>
      <point x="175.971" y="-34.7119"/>
      <point x="175.995" y="-35.3555"/>
      <point x="175.995" y="-36" type="curve" smooth="yes"/>
      <point x="175.995" y="-46.4023" type="line" smooth="yes"/>
      <point x="176.169" y="-48.0449"/>
      <point x="176.248" y="-49.6533"/>
      <point x="176.248" y="-51.2227" type="curve" smooth="yes"/>
      <point x="176.248" y="-67.8398"/>
      <point x="173.43" y="-75.2734"/>
      <point x="170.198" y="-83.3291" type="curve" smooth="yes"/>
      <point x="170.04" y="-83.7227"/>
      <point x="165.872" y="-84.1123"/>
      <point x="165.693" y="-84.499" type="curve" smooth="yes"/>
      <point x="155.312" y="-106.969"/>
      <point x="136.372" y="-130.911"/>
      <point x="117.078" y="-147.146" type="curve" smooth="yes"/>
      <point x="104.992" y="-157.315"/>
      <point x="95.4053" y="-166.95"/>
      <point x="84.6777" y="-177.678" type="curve" smooth="yes"/>
      <point x="82.0127" y="-180.343"/>
      <point x="78.8936" y="-182.279"/>
      <point x="75.5684" y="-183.489" type="curve" smooth="yes"/>
      <point x="53.5684" y="-191.489" type="line" smooth="yes"/>
      <point x="50.8066" y="-192.493"/>
      <point x="47.9033" y="-192.995"/>
      <point x="45" y="-192.995" type="curve" smooth="yes"/>
      <point x="38.6006" y="-192.995"/>
      <point x="32.2002" y="-190.556"/>
      <point x="27.3223" y="-185.678" type="curve" smooth="yes"/>
      <point x="22.4443" y="-180.8"/>
      <point x="20.0049" y="-174.399"/>
      <point x="20.0049" y="-168" type="curve" smooth="yes"/>
      <point x="20.0049" y="-157.377"/>
      <point x="27.3438" y="-147.815"/>
      <point x="36.4316" y="-144.511" type="curve" smooth="yes"/>
      <point x="53.1396" y="-138.436" type="line"/>
      <point x="63.168" y="-128.293"/>
      <point x="72.8926" y="-118.976"/>
      <point x="84.9219" y="-108.854" type="curve" smooth="yes"/>
      <point x="98.1025" y="-97.7637"/>
      <point x="113.959" y="-76.8926"/>
      <point x="120.093" y="-63.958" type="curve" smooth="yes"/>
      <point x="122.408" y="-58.3633"/>
      <point x="124.36" y="-55.5205"/>
      <point x="126.261" y="-51.5811" type="curve" smooth="yes"/>
      <point x="126.09" y="-50.3945"/>
      <point x="126.005" y="-49.1973"/>
      <point x="126.005" y="-48" type="curve" smooth="yes"/>
      <point x="126.005" y="-36.9668" type="line"/>
      <point x="122.079" y="14.0684" type="line" smooth="yes"/>
      <point x="122.045" y="14.5117"/>
      <point x="122.022" y="14.9561"/>
      <point x="122.012" y="15.4004" type="curve" smooth="yes"/>
      <point x="120.012" y="99.4004" type="line" smooth="yes"/>
      <point x="120.007" y="99.6006"/>
      <point x="120.005" y="99.7998"/>
      <point x="120.005" y="100" type="curve" smooth="yes"/>
      <point x="120.005" y="100.728"/>
      <point x="120.036" y="101.456"/>
      <point x="120.1" y="102.182" type="curve" smooth="yes"/>
      <point x="124.1" y="148.182" type="line" smooth="yes"/>
      <point x="124.384" y="151.455"/>
      <point x="125.335" y="154.417"/>
      <point x="126.069" y="157.354" type="curve" smooth="yes"/>
      <point x="126.633" y="172.125"/>
      <point x="130.115" y="181.416"/>
      <point x="132.75" y="192.077" type="curve" smooth="yes"/>
      <point x="138.537" y="215.497"/>
      <point x="146.487" y="240.233"/>
      <point x="168.258" y="250.579" type="curve" smooth="yes"/>
      <point x="171.646" y="252.189"/>
      <point x="175.323" y="252.995"/>
      <point x="179" y="252.995" type="curve" smooth="yes"/>
      <point x="193.714" y="252.995"/>
      <point x="200.297" y="242.874"/>
      <point x="202.978" y="236.298" type="curve" smooth="yes"/>
      <point x="205.108" y="231.071"/>
      <point x="205.981" y="226.199"/>
      <point x="207.072" y="220.283" type="curve" smooth="yes"/>
      <point x="208.719" y="211.348"/>
      <point x="209.995" y="205.132"/>
      <point x="209.995" y="198" type="curve" smooth="yes"/>
      <point x="209.995" y="183.267"/>
      <point x="213.608" y="169.106"/>
      <point x="213.988" y="152.579" type="curve" smooth="yes"/>
      <point x="214.349" y="136.904"/>
      <point x="216.801" y="118.449"/>
      <point x="221.92" y="102.881" type="curve" smooth="yes"/>
      <point x="226.035" y="90.3662"/>
      <point x="231.826" y="80.1396"/>
      <point x="238.036" y="73.9297" type="curve" smooth="yes"/>
      <point x="244.007" y="67.959"/>
      <point x="250.454" y="64.3125"/>
      <point x="260.834" y="64.3125" type="curve" smooth="yes"/>
      <point x="263.689" y="64.3125"/>
      <point x="267.244" y="64.9062"/>
      <point x="270.347" y="64.9863" type="curve" smooth="yes"/>
      <point x="290.278" y="65.5039"/>
      <point x="311.569" y="66.6738"/>
      <point x="322.735" y="74.375" type="curve"/>
      <point x="324.029" y="83.7217"/>
      <point x="328.005" y="94.1777"/>
      <point x="328.005" y="102" type="curve" smooth="yes"/>
      <point x="328.005" y="115.291"/>
      <point x="330.241" y="125.601"/>
      <point x="330.241" y="137.295" type="curve" smooth="yes"/>
      <point x="330.241" y="143.021"/>
      <point x="329.639" y="149.024"/>
      <point x="329.639" y="154.628" type="curve" smooth="yes"/>
      <point x="329.639" y="176.572"/>
      <point x="333.588" y="196.758"/>
    </contour>
  </outline>
</glyph>
<glyph name="cedilla" format="2">
  <advance width="353"/>
  <unicode hex="00B8"/>
  <outline>
    <contour>
      <point x="271" y="48.9951" type="line" smooth="yes"/>
      <point x="277.399" y="48.9951"/>
      <point x="283.8" y="46.5557"/>
      <point x="288.678" y="41.6777" type="curve" smooth="yes"/>
      <point x="293.556" y="36.7998"/>
      <point x="295.995" y="30.3994"/>
      <point x="295.995" y="24" type="curve" smooth="yes"/>
      <point x="295.995" y="17.6006"/>
      <point x="293.556" y="11.2002"/>
      <point x="288.678" y="6.32227" type="curve" smooth="yes"/>
      <point x="283.8" y="1.44434"/>
      <point x="277.399" y="-0.995117"/>
      <point x="271" y="-0.995117" type="curve" smooth="yes"/>
      <point x="265" y="-0.995117" type="line"/>
      <point x="264.744" y="-1.12207" type="line"/>
      <point x="247.41" y="-4.80078"/>
      <point x="219.447" y="-23.2832"/>
      <point x="209.017" y="-34.585" type="curve"/>
      <point x="224.061" y="-44.4639"/>
      <point x="238.48" y="-48.8174"/>
      <point x="253.727" y="-64.0635" type="curve" smooth="yes"/>
      <point x="265.348" y="-75.6846"/>
      <point x="273.894" y="-92.8359"/>
      <point x="273.995" y="-113.879" type="curve" smooth="yes"/>
      <point x="274.002" y="-115.392"/>
      <point x="274.472" y="-118.537"/>
      <point x="275.447" y="-123.4" type="curve" smooth="yes"/>
      <point x="276.459" y="-128.439"/>
      <point x="277.995" y="-135.359"/>
      <point x="277.995" y="-144" type="curve" smooth="yes"/>
      <point x="277.995" y="-158.908"/>
      <point x="271.82" y="-172.282"/>
      <point x="262.62" y="-181.482" type="curve" smooth="yes"/>
      <point x="244.431" y="-199.671"/>
      <point x="215.142" y="-204.995"/>
      <point x="185" y="-204.995" type="curve" smooth="yes"/>
      <point x="171.488" y="-204.995"/>
      <point x="165.866" y="-202.219"/>
      <point x="156.69" y="-200.623" type="curve" smooth="yes"/>
      <point x="153.881" y="-200.135"/>
      <point x="151.14" y="-199.165"/>
      <point x="148.6" y="-197.713" type="curve" smooth="yes"/>
      <point x="92.5996" y="-165.713" type="line" smooth="yes"/>
      <point x="85.4033" y="-161.601"/>
      <point x="80.0049" y="-152.961"/>
      <point x="80.0049" y="-144" type="curve" smooth="yes"/>
      <point x="80.0049" y="-137.601"/>
      <point x="82.4443" y="-131.2"/>
      <point x="87.3223" y="-126.322" type="curve" smooth="yes"/>
      <point x="92.2002" y="-121.444"/>
      <point x="98.6006" y="-119.005"/>
      <point x="105" y="-119.005" type="curve" smooth="yes"/>
      <point x="109.286" y="-119.005"/>
      <point x="113.572" y="-120.099"/>
      <point x="117.4" y="-122.287" type="curve" smooth="yes"/>
      <point x="169.847" y="-152.256" type="line"/>
      <point x="175.419" y="-153.444"/>
      <point x="179.52" y="-155.005"/>
      <point x="185" y="-155.005" type="curve" smooth="yes"/>
      <point x="198.171" y="-155.005"/>
      <point x="220.985" y="-152.405"/>
      <point x="227.265" y="-146.127" type="curve" smooth="yes"/>
      <point x="227.979" y="-145.412"/>
      <point x="228.005" y="-145.746"/>
      <point x="228.005" y="-144.356" type="curve" smooth="yes"/>
      <point x="228.005" y="-144.248"/>
      <point x="228.005" y="-144.13"/>
      <point x="228.005" y="-144" type="curve" smooth="yes"/>
      <point x="228.005" y="-135.032"/>
      <point x="224.062" y="-126.091"/>
      <point x="224.005" y="-114.121" type="curve" smooth="yes"/>
      <point x="223.966" y="-105.906"/>
      <point x="222.08" y="-103.127"/>
      <point x="218.371" y="-99.4189" type="curve" smooth="yes"/>
      <point x="214.587" y="-95.6348"/>
      <point x="207.338" y="-91.2266"/>
      <point x="197.908" y="-86.0488" type="curve" smooth="yes"/>
      <point x="188.792" y="-81.0449"/>
      <point x="177.549" y="-75.3301"/>
      <point x="167.172" y="-64.9521" type="curve" smooth="yes"/>
      <point x="161.509" y="-59.29"/>
      <point x="154.005" y="-50.8398"/>
      <point x="154.005" y="-40" type="curve" smooth="yes"/>
      <point x="154.005" y="-31.1992"/>
      <point x="156.676" y="-23.748"/>
      <point x="159.905" y="-17.623" type="curve" smooth="yes"/>
      <point x="163.979" y="-9.89746"/>
      <point x="169.289" y="-3.54199"/>
      <point x="175.129" y="2.29785" type="curve" smooth="yes"/>
      <point x="189.463" y="16.6318"/>
      <point x="207.786" y="28.3154"/>
      <point x="224.813" y="36.7461" type="curve" smooth="yes"/>
      <point x="232.407" y="40.5068"/>
      <point x="239.724" y="43.583"/>
      <point x="246.801" y="45.7881" type="curve" smooth="yes"/>
      <point x="252.484" y="47.5586"/>
      <point x="257.938" y="48.9951"/>
      <point x="265" y="48.9951" type="curve" smooth="yes"/>
    </contour>
  </outline>
</glyph>
<glyph name="doubledanda" format="2">
  <advance width="424"/>
  <unicode hex="0965"/>
  <outline>
    <contour>
      <point x="307" y="545" type="line"/>
      <point x="302" y="70" type="line"/>
      <point x="253" y="16" type="line"/>
      <point x="257" y="487" type="line"/>
    </contour>
    <contour>
      <point x="156" y="535" type="line"/>
      <point x="158" y="61" type="line"/>
      <point x="110" y="11" type="line"/>
      <point x="110" y="478" type="line"/>
    </contour>
  </outline>
</glyph>
<glyph name="u0983" format="2">
  <advance width="340"/>
  <unicode hex="0983"/>
  <outline>
    <contour>
      <point x="68" y="238" type="curve" smooth="yes"/>
      <point x="68" y="300"/>
      <point x="111" y="350"/>
      <point x="164" y="350" type="curve" smooth="yes"/>
      <point x="217" y="350"/>
      <point x="260" y="300"/>
      <point x="260" y="238" type="curve" smooth="yes"/>
      <point x="260" y="176"/>
      <point x="217" y="126"/>
      <point x="164" y="126" type="curve" smooth="yes"/>
      <point x="111" y="126"/>
      <point x="68" y="176"/>
    </contour>
    <contour>
      <point x="68" y="571" type="curve" smooth="yes"/>
      <point x="68" y="633"/>
      <point x="111" y="683"/>
      <point x="164" y="683" type="curve" smooth="yes"/>
      <point x="217" y="683"/>
      <point x="260" y="633"/>
      <point x="260" y="571" type="curve" smooth="yes"/>
      <point x="260" y="509"/>
      <point x="217" y="459"/>
      <point x="164" y="459" type="curve" smooth="yes"/>
      <point x="111" y="459"/>
      <point x="68" y="509"/>
    </contour>
  </outline>
</glyph>
<glyph name="u098b" format="2">
  <advance width="722"/>
  <unicode hex="098B"/>
  <outline>
    <contour>
      <point x="420" y="491" type="line"/>
      <point x="179" y="342" type="line"/>
      <point x="420" y="123" type="line"/>
    </contour>
    <contour>
      <point x="622" y="688" type="curve" smooth="yes"/>
      <point x="643" y="688"/>
      <point x="652" y="682"/>
      <point x="652" y="671" type="curve" smooth="yes"/>
      <point x="652" y="162" type="line" smooth="yes"/>
      <point x="652" y="145"/>
      <point x="640" y="137"/>
      <point x="616" y="137" type="curve" smooth="yes"/>
      <point x="604" y="137"/>
      <point x="595" y="140"/>
      <point x="590" y="146" type="curve" smooth="yes"/>
      <point x="482" y="272" type="line"/>
      <point x="482" y="57" type="line" smooth="yes"/>
      <point x="482" y="39"/>
      <point x="469" y="31"/>
      <point x="442" y="31" type="curve" smooth="yes"/>
      <point x="433" y="31"/>
      <point x="426" y="33"/>
      <point x="420" y="38" type="curve" smooth="yes"/>
      <point x="109" y="328" type="line" smooth="yes"/>
      <point x="104" y="333"/>
      <point x="103" y="338"/>
      <point x="103" y="344" type="curve" smooth="yes"/>
      <point x="103" y="354"/>
      <point x="108" y="364"/>
      <point x="117" y="373" type="curve"/>
      <point x="339" y="513" type="line"/>
      <point x="294" y="562" type="line"/>
      <point x="261" y="524"/>
      <point x="223" y="505"/>
      <point x="178" y="505" type="curve" smooth="yes"/>
      <point x="120" y="505"/>
      <point x="75" y="531"/>
      <point x="40" y="583" type="curve" smooth="yes"/>
      <point x="39" y="586"/>
      <point x="39" y="589"/>
      <point x="39" y="592" type="curve" smooth="yes"/>
      <point x="39" y="611"/>
      <point x="51" y="620"/>
      <point x="75" y="620" type="curve" smooth="yes"/>
      <point x="80" y="620"/>
      <point x="83" y="620"/>
      <point x="87" y="619" type="curve"/>
      <point x="109" y="581"/>
      <point x="139" y="562"/>
      <point x="176" y="562" type="curve" smooth="yes"/>
      <point x="213" y="562"/>
      <point x="241" y="581"/>
      <point x="258" y="619" type="curve"/>
      <point x="269" y="630"/>
      <point x="283" y="635"/>
      <point x="299" y="632" type="curve" smooth="yes"/>
      <point x="302" y="632"/>
      <point x="306" y="631"/>
      <point x="309" y="630" type="curve"/>
      <point x="392" y="542" type="line"/>
      <point x="420" y="562" type="line"/>
      <point x="420" y="669" type="line" smooth="yes"/>
      <point x="420" y="681"/>
      <point x="432" y="687"/>
      <point x="454" y="687" type="curve" smooth="yes"/>
      <point x="473" y="687"/>
      <point x="482" y="682"/>
      <point x="482" y="671" type="curve" smooth="yes"/>
      <point x="482" y="362" type="line"/>
      <point x="590" y="240" type="line"/>
      <point x="590" y="671" type="line" smooth="yes"/>
      <point x="590" y="682"/>
      <point x="601" y="688"/>
    </contour>
  </outline>
</glyph>
<glyph name="u0999" format="2">
  <advance width="614"/>
  <unicode hex="0999"/>
  <anchor x="405" y="40" name="Anchor-1"/>
  <anchor x="407" y="673" name="Anchor-0"/>
  <outline>
    <contour>
      <point x="463" y="565" type="curve" smooth="yes"/>
      <point x="463" y="592.213"/>
      <point x="432.301" y="610"/>
      <point x="407" y="610" type="curve" smooth="yes"/>
      <point x="375.946" y="610"/>
      <point x="356.967" y="591.208"/>
      <point x="340" y="570" type="curve" smooth="yes"/>
      <point x="324" y="550"/>
      <point x="313" y="528"/>
      <point x="307" y="504" type="curve"/>
      <point x="336" y="498"/>
      <point x="357" y="495"/>
      <point x="372" y="495" type="curve" smooth="yes"/>
      <point x="414" y="495"/>
      <point x="444" y="515"/>
      <point x="462" y="556" type="curve" smooth="yes"/>
      <point x="463" y="559"/>
      <point x="463" y="562"/>
    </contour>
    <contour>
      <point x="251" y="522" type="curve"/>
      <point x="267.277" y="581.682"/>
      <point x="338.408" y="664.749"/>
      <point x="403" y="671" type="curve" smooth="yes"/>
      <point x="407" y="671"/>
      <point x="411" y="672"/>
      <point x="415" y="672" type="curve" smooth="yes"/>
      <point x="459.244" y="672"/>
      <point x="490.248" y="641.128"/>
      <point x="511" y="610" type="curve"/>
      <point x="516" y="597"/>
      <point x="519" y="583"/>
      <point x="519" y="568" type="curve" smooth="yes"/>
      <point x="519" y="539"/>
      <point x="508" y="511"/>
      <point x="487" y="487" type="curve" smooth="yes"/>
      <point x="457" y="453"/>
      <point x="418" y="436"/>
      <point x="369" y="436" type="curve" smooth="yes"/>
      <point x="342" y="436"/>
      <point x="317" y="441"/>
      <point x="295" y="450" type="curve" smooth="yes"/>
      <point x="291" y="450"/>
      <point x="289" y="435"/>
      <point x="289" y="403" type="curve" smooth="yes"/>
      <point x="289" y="379"/>
      <point x="297" y="358"/>
      <point x="313" y="339" type="curve"/>
      <point x="457" y="409" type="line"/>
      <point x="465" y="416"/>
      <point x="476" y="420"/>
      <point x="490" y="420" type="curve" smooth="yes"/>
      <point x="496" y="420"/>
      <point x="502" y="419"/>
      <point x="508" y="418" type="curve"/>
      <point x="577" y="368"/>
      <point x="611" y="310"/>
      <point x="611" y="244" type="curve" smooth="yes"/>
      <point x="611" y="189"/>
      <point x="589" y="141"/>
      <point x="545" y="100" type="curve" smooth="yes"/>
      <point x="501" y="59"/>
      <point x="450" y="38"/>
      <point x="393" y="38" type="curve" smooth="yes"/>
      <point x="330" y="38"/>
      <point x="270" y="62"/>
      <point x="212" y="110" type="curve" smooth="yes"/>
      <point x="94.4795" y="206.367"/>
      <point x="65.0589" y="329.863"/>
      <point x="30" y="511" type="curve"/>
      <point x="32" y="528"/>
      <point x="41" y="537"/>
      <point x="56" y="537" type="curve" smooth="yes"/>
      <point x="67" y="537"/>
      <point x="77" y="531"/>
      <point x="84" y="519" type="curve"/>
      <point x="103" y="415"/>
      <point x="127" y="335"/>
      <point x="154" y="278" type="curve" smooth="yes"/>
      <point x="193.499" y="197.356"/>
      <point x="284.517" y="94"/>
      <point x="391" y="94" type="curve" smooth="yes"/>
      <point x="424" y="94"/>
      <point x="456" y="105"/>
      <point x="486" y="126" type="curve" smooth="yes"/>
      <point x="532" y="158"/>
      <point x="554" y="197"/>
      <point x="554" y="243" type="curve" smooth="yes"/>
      <point x="554" y="288"/>
      <point x="532" y="327"/>
      <point x="488" y="362" type="curve"/>
      <point x="308" y="265" type="line"/>
      <point x="258" y="304"/>
      <point x="233" y="347"/>
      <point x="233" y="394" type="curve" smooth="yes"/>
      <point x="233" y="425"/>
      <point x="235" y="448"/>
      <point x="240" y="465" type="curve" smooth="yes"/>
      <point x="239" y="467"/>
      <point x="238" y="468"/>
      <point x="237" y="468" type="curve" smooth="yes"/>
      <point x="154" y="506"/>
      <point x="97" y="561"/>
      <point x="67" y="633" type="curve" smooth="yes"/>
      <point x="61.0676" y="653.763"/>
      <point x="76.4854" y="665"/>
      <point x="94" y="665" type="curve" smooth="yes"/>
      <point x="101" y="665"/>
      <point x="108" y="663"/>
      <point x="114" y="659" type="curve"/>
      <point x="153" y="593"/>
      <point x="198" y="547"/>
    </contour>
  </outline>
</glyph>
<glyph name="u099d" format="2">
  <advance width="692"/>
  <unicode hex="099D"/>
  <anchor x="372" y="30" name="Anchor-1"/>
  <anchor x="353" y="667" name="Anchor-0"/>
  <outline>
    <contour>
      <point x="347" y="491" type="line"/>
      <point x="107" y="342" type="line"/>
      <point x="347" y="123" type="line"/>
    </contour>
    <contour>
      <point x="557" y="610" type="line" smooth="yes"/>
      <point x="557" y="652"/>
      <point x="578" y="673"/>
      <point x="619" y="673" type="curve" smooth="yes"/>
      <point x="705" y="673" type="line"/>
      <point x="705" y="610" type="line"/>
      <point x="619" y="610" type="line"/>
      <point x="619" y="162" type="line" smooth="yes"/>
      <point x="619" y="149"/>
      <point x="608" y="142"/>
      <point x="587" y="142" type="curve" smooth="yes"/>
      <point x="574" y="142"/>
      <point x="564" y="145"/>
      <point x="557" y="152" type="curve"/>
      <point x="409" y="272" type="line"/>
      <point x="409" y="57" type="line" smooth="yes"/>
      <point x="409" y="39"/>
      <point x="397" y="31"/>
      <point x="373" y="31" type="curve" smooth="yes"/>
      <point x="363" y="31"/>
      <point x="354" y="33"/>
      <point x="347" y="39" type="curve" smooth="yes"/>
      <point x="35" y="326" type="line" smooth="yes"/>
      <point x="31" y="329"/>
      <point x="29" y="336"/>
      <point x="29" y="345" type="curve" smooth="yes"/>
      <point x="29" y="358"/>
      <point x="34" y="368"/>
      <point x="43" y="373" type="curve" smooth="yes"/>
      <point x="347" y="560" type="line"/>
      <point x="347" y="610" type="line"/>
      <point x="-6" y="610" type="line"/>
      <point x="-6" y="673" type="line"/>
      <point x="347" y="673" type="line" smooth="yes"/>
      <point x="388" y="673"/>
      <point x="409" y="652"/>
      <point x="409" y="610" type="curve" smooth="yes"/>
      <point x="409" y="351" type="line"/>
      <point x="557" y="238" type="line"/>
    </contour>
  </outline>
</glyph>
<glyph name="u099e" format="2">
  <advance width="902"/>
  <unicode hex="099E"/>
  <anchor x="568" y="27" name="Anchor-1"/>
  <anchor x="480" y="667" name="Anchor-0"/>
  <outline>
    <contour>
      <point x="845" y="241" type="curve" smooth="yes"/>
      <point x="845" y="278.025"/>
      <point x="796.023" y="310"/>
      <point x="758" y="310" type="curve"/>
      <point x="742" y="319"/>
      <point x="734" y="329"/>
      <point x="734" y="340" type="curve" smooth="yes"/>
      <point x="734" y="351"/>
      <point x="741" y="361"/>
      <point x="754" y="369" type="curve"/>
      <point x="792.104" y="373.97"/>
      <point x="833" y="402.771"/>
      <point x="833" y="444" type="curve" smooth="yes"/>
      <point x="833" y="477"/>
      <point x="811" y="493"/>
      <point x="768" y="493" type="curve" smooth="yes"/>
      <point x="743" y="493"/>
      <point x="717" y="475"/>
      <point x="693" y="438" type="curve" smooth="yes"/>
      <point x="687" y="429"/>
      <point x="670" y="399"/>
      <point x="643" y="348" type="curve"/>
      <point x="667.354" y="287.927"/>
      <point x="728.181" y="193"/>
      <point x="799" y="193" type="curve" smooth="yes"/>
      <point x="804" y="193"/>
      <point x="809" y="194"/>
      <point x="815" y="195" type="curve" smooth="yes"/>
      <point x="835" y="208"/>
      <point x="845" y="223"/>
    </contour>
    <contour>
      <point x="776" y="555" type="curve" smooth="yes"/>
      <point x="839.495" y="553.611"/>
      <point x="900" y="502.609"/>
      <point x="900" y="437" type="curve" smooth="yes"/>
      <point x="900" y="402"/>
      <point x="883" y="370"/>
      <point x="849" y="342" type="curve"/>
      <point x="891" y="315"/>
      <point x="912" y="278"/>
      <point x="912" y="233" type="curve" smooth="yes"/>
      <point x="912" y="183"/>
      <point x="884" y="150"/>
      <point x="829" y="135" type="curve" smooth="yes"/>
      <point x="821" y="134"/>
      <point x="812" y="133"/>
      <point x="803" y="133" type="curve" smooth="yes"/>
      <point x="737" y="133"/>
      <point x="679" y="170"/>
      <point x="630" y="243" type="curve" smooth="yes"/>
      <point x="617" y="262"/>
      <point x="605" y="283"/>
      <point x="594" y="306" type="curve"/>
      <point x="594" y="60" type="line" smooth="yes"/>
      <point x="594" y="44.8759"/>
      <point x="564.285" y="36"/>
      <point x="548" y="36" type="curve" smooth="yes"/>
      <point x="540" y="36"/>
      <point x="535" y="38"/>
      <point x="532" y="42" type="curve" smooth="yes"/>
      <point x="490" y="97"/>
      <point x="438" y="125"/>
      <point x="375" y="125" type="curve" smooth="yes"/>
      <point x="341.864" y="125"/>
      <point x="229.183" y="106"/>
      <point x="195" y="106" type="curve" smooth="yes"/>
      <point x="177" y="106"/>
      <point x="160.418" y="105.962"/>
      <point x="146" y="111" type="curve" smooth="yes"/>
      <point x="57.8817" y="141.788"/>
      <point x="17" y="195.504"/>
      <point x="17" y="312" type="curve" smooth="yes"/>
      <point x="17" y="330"/>
      <point x="18" y="350"/>
      <point x="20" y="373" type="curve"/>
      <point x="29" y="381"/>
      <point x="38" y="385"/>
      <point x="47" y="385" type="curve" smooth="yes"/>
      <point x="58" y="385"/>
      <point x="68" y="379"/>
      <point x="77" y="369" type="curve"/>
      <point x="75" y="334"/>
      <point x="74" y="313"/>
      <point x="74" y="306" type="curve" smooth="yes"/>
      <point x="74" y="249"/>
      <point x="93" y="208"/>
      <point x="130" y="182" type="curve" smooth="yes"/>
      <point x="147" y="170"/>
      <point x="169" y="164"/>
      <point x="194" y="164" type="curve" smooth="yes"/>
      <point x="209" y="164"/>
      <point x="236" y="167"/>
      <point x="274" y="174" type="curve" smooth="yes"/>
      <point x="312" y="181"/>
      <point x="342" y="184"/>
      <point x="364" y="184" type="curve" smooth="yes"/>
      <point x="425" y="184"/>
      <point x="481" y="164"/>
      <point x="532" y="123" type="curve"/>
      <point x="532" y="536" type="line" smooth="yes"/>
      <point x="532" y="584"/>
      <point x="516" y="608"/>
      <point x="483" y="608" type="curve" smooth="yes"/>
      <point x="466" y="608"/>
      <point x="443" y="600"/>
      <point x="414" y="585" type="curve" smooth="yes"/>
      <point x="348" y="551"/>
      <point x="314" y="502"/>
      <point x="314" y="438" type="curve" smooth="yes"/>
      <point x="314" y="409"/>
      <point x="320" y="376"/>
      <point x="333" y="337" type="curve"/>
      <point x="331" y="320"/>
      <point x="321" y="311"/>
      <point x="301" y="311" type="curve" smooth="yes"/>
      <point x="290" y="311"/>
      <point x="282" y="314"/>
      <point x="275" y="321" type="curve"/>
      <point x="260" y="355"/>
      <point x="252" y="390"/>
      <point x="252" y="426" type="curve" smooth="yes"/>
      <point x="252" y="480"/>
      <point x="269" y="528"/>
      <point x="302" y="572" type="curve" smooth="yes"/>
      <point x="335" y="615"/>
      <point x="380" y="644"/>
      <point x="436" y="659" type="curve" smooth="yes"/>
      <point x="451" y="664"/>
      <point x="465" y="667"/>
      <point x="478" y="667" type="curve" smooth="yes"/>
      <point x="506" y="667"/>
      <point x="533" y="656"/>
      <point x="559" y="633" type="curve" smooth="yes"/>
      <point x="583" y="612"/>
      <point x="594" y="581"/>
      <point x="594" y="540" type="curve" smooth="yes"/>
      <point x="594" y="391" type="line"/>
      <point x="609" y="425"/>
      <point x="628" y="456"/>
      <point x="651" y="485" type="curve" smooth="yes"/>
      <point x="687" y="529"/>
      <point x="728.047" y="556.049"/>
    </contour>
  </outline>
</glyph>
<glyph name="u09a3" format="2">
  <advance width="513"/>
  <unicode hex="09A3"/>
  <anchor x="422" y="41" name="Anchor-1"/>
  <anchor x="453" y="660" name="Anchor-0"/>
  <outline>
    <contour>
      <point x="40" y="461" type="curve" smooth="yes"/>
      <point x="40" y="577.603"/>
      <point x="126.521" y="646"/>
      <point x="246" y="646" type="curve" smooth="yes"/>
      <point x="293" y="646"/>
      <point x="340" y="627"/>
      <point x="386" y="588" type="curve"/>
      <point x="386" y="645"/>
      <point x="407" y="673"/>
      <point x="448" y="673" type="curve" smooth="yes"/>
      <point x="523" y="673" type="line"/>
      <point x="523" y="610" type="line"/>
      <point x="448" y="610" type="line"/>
      <point x="448" y="69" type="line" smooth="yes"/>
      <point x="448" y="52"/>
      <point x="438" y="44"/>
      <point x="419" y="44" type="curve" smooth="yes"/>
      <point x="397" y="44"/>
      <point x="386" y="52"/>
      <point x="386" y="68" type="curve" smooth="yes"/>
      <point x="386" y="414" type="line" smooth="yes"/>
      <point x="386" y="429"/>
      <point x="382" y="455"/>
      <point x="374" y="493" type="curve" smooth="yes"/>
      <point x="364.026" y="546.857"/>
      <point x="292.581" y="591"/>
      <point x="228" y="591" type="curve" smooth="yes"/>
      <point x="153.665" y="591"/>
      <point x="95" y="529.438"/>
      <point x="95" y="461" type="curve" smooth="yes"/>
      <point x="95" y="399.091"/>
      <point x="139.935" y="341.002"/>
      <point x="200" y="339" type="curve"/>
      <point x="208" y="336"/>
      <point x="212" y="330"/>
      <point x="212" y="319" type="curve" smooth="yes"/>
      <point x="212" y="303.367"/>
      <point x="201.761" y="283"/>
      <point x="187" y="283" type="curve" smooth="yes"/>
      <point x="97.466" y="300.409"/>
      <point x="40" y="358.362"/>
    </contour>
  </outline>
</glyph>
<glyph name="u09bc" format="2">
  <advance width="5"/>
  <unicode hex="09BC"/>
  <outline>
    <contour>
      <point x="-184" y="-5" type="line"/>
      <point x="-105" y="-5" type="line"/>
      <point x="-105" y="-78" type="line"/>
      <point x="-184" y="-78" type="line"/>
    </contour>
  </outline>
</glyph>
<glyph name="avagraha" format="2">
  <advance width="443"/>
  <unicode hex="09BD"/>
  <outline>
    <contour>
      <point x="154" y="574" type="curve"/>
      <point x="104.725" y="618.468"/>
      <point x="54.8226" y="629.608"/>
      <point x="-4" y="610" type="curve"/>
      <point x="-4" y="673" type="line"/>
      <point x="74.5354" y="690.849"/>
      <point x="148.407" y="651.103"/>
      <point x="196" y="610" type="curve"/>
      <point x="219" y="592" type="line"/>
      <point x="226" y="594"/>
      <point x="233" y="594"/>
      <point x="241" y="594" type="curve" smooth="yes"/>
      <point x="344.804" y="594"/>
      <point x="412" y="519.167"/>
      <point x="412" y="416" type="curve" smooth="yes"/>
      <point x="412" y="405"/>
      <point x="411" y="393"/>
      <point x="410" y="382" type="curve" smooth="yes"/>
      <point x="385" y="286"/>
      <point x="299" y="229"/>
      <point x="152" y="211" type="curve"/>
      <point x="503" y="-6" type="line"/>
      <point x="504" y="-10"/>
      <point x="505" y="-14"/>
      <point x="505" y="-18" type="curve" smooth="yes"/>
      <point x="505" y="-36"/>
      <point x="495" y="-45"/>
      <point x="476" y="-44" type="curve"/>
      <point x="473" y="-44" type="line"/>
      <point x="31" y="227" type="line"/>
      <point x="25" y="235"/>
      <point x="22" y="243"/>
      <point x="22" y="252" type="curve" smooth="yes"/>
      <point x="22" y="271"/>
      <point x="30" y="280"/>
      <point x="47" y="280" type="curve" smooth="yes"/>
      <point x="50" y="280"/>
      <point x="54" y="279"/>
      <point x="58" y="278" type="curve" smooth="yes"/>
      <point x="85" y="274"/>
      <point x="111" y="272"/>
      <point x="136" y="272" type="curve" smooth="yes"/>
      <point x="247" y="272"/>
      <point x="319" y="310"/>
      <point x="352" y="387" type="curve"/>
      <point x="354" y="397"/>
      <point x="355" y="407"/>
      <point x="355" y="418" type="curve" smooth="yes"/>
      <point x="355" y="488.186"/>
      <point x="308.945" y="536"/>
      <point x="238" y="536" type="curve" smooth="yes"/>
      <point x="161" y="536"/>
      <point x="120" y="496"/>
      <point x="116" y="416" type="curve"/>
      <point x="110" y="407"/>
      <point x="101" y="402"/>
      <point x="88" y="402" type="curve" smooth="yes"/>
      <point x="74" y="402"/>
      <point x="65" y="409"/>
      <point x="60" y="423" type="curve"/>
      <point x="60" y="490.166"/>
      <point x="103.697" y="554.238"/>
    </contour>
  </outline>
</glyph>
<glyph name="u09be" format="2">
  <advance width="296"/>
  <unicode hex="09BE"/>
  <outline>
    <contour>
      <point x="-4" y="802" type="curve"/>
      <point x="-14" y="782" type="line"/>
      <point x="-11.3851" y="778.043"/>
      <point x="-4.12822" y="769.844"/>
      <point x="10" y="760" type="curve" smooth="yes"/>
      <point x="27.5366" y="747.782"/>
      <point x="-7.02051" y="766.772"/>
      <point x="0" y="746" type="curve" smooth="yes"/>
      <point x="3.19434" y="746"/>
      <point x="67.6849" y="722.814"/>
      <point x="73.8162" y="729.41" type="curve"/>
      <point x="79.7992" y="683.372"/>
      <point x="152.6" y="554.064"/>
      <point x="152.6" y="396.16" type="curve" smooth="yes"/>
      <point x="152.6" y="202.12"/>
      <point x="44.8252" y="62.4795"/>
      <point x="81.8799" y="45.04" type="curve" smooth="yes"/>
      <point x="147.26" y="14.2705"/>
      <point x="245.36" y="177.91"/>
      <point x="242.04" y="396.16" type="curve" smooth="yes"/>
      <point x="238.952" y="599.113"/>
      <point x="168.22" y="703.281"/>
      <point x="117.664" y="736" type="curve"/>
      <point x="176" y="736" type="line"/>
      <point x="192.295" y="734.12"/>
      <point x="212.352" y="742.273"/>
      <point x="224" y="728" type="curve"/>
      <point x="296" y="726" type="line"/>
      <point x="296" y="732" type="line"/>
      <point x="296" y="738" type="line"/>
      <point x="286" y="802" type="line"/>
      <point x="240" y="786" type="line"/>
      <point x="182" y="782" type="line"/>
      <point x="176" y="782" type="line" smooth="yes"/>
      <point x="164.344" y="782"/>
      <point x="138.563" y="782.133"/>
      <point x="126" y="776" type="curve" smooth="yes"/>
      <point x="116.165" y="771.199"/>
      <point x="103.759" y="769.119"/>
      <point x="90" y="770" type="curve" smooth="yes"/>
      <point x="71.5728" y="770"/>
      <point x="47.9482" y="796"/>
      <point x="18" y="796" type="curve" smooth="yes"/>
      <point x="11.4618" y="796"/>
      <point x="3.59766" y="802"/>
    </contour>
  </outline>
</glyph>
<glyph name="u09c8" format="2">
  <advance width="299"/>
  <unicode hex="09C8"/>
  <outline>
    <contour>
      <point x="298" y="673" type="line"/>
      <point x="298" y="610" type="line"/>
      <point x="170.54" y="610"/>
      <point x="98.3809" y="516.368"/>
      <point x="73" y="403" type="curve" smooth="yes"/>
      <point x="66" y="375"/>
      <point x="63" y="346"/>
      <point x="63" y="316" type="curve" smooth="yes"/>
      <point x="63" y="205.559"/>
      <point x="108.412" y="117.752"/>
      <point x="187" y="89" type="curve" smooth="yes"/>
      <point x="209.09" y="84.2664"/>
      <point x="225.91" y="84.5638"/>
      <point x="242" y="91" type="curve" smooth="yes"/>
      <point x="248" y="92"/>
      <point x="254" y="93"/>
      <point x="259" y="93" type="curve" smooth="yes"/>
      <point x="279" y="93"/>
      <point x="289" y="84"/>
      <point x="289" y="66" type="curve" smooth="yes"/>
      <point x="289" y="59"/>
      <point x="288" y="53"/>
      <point x="284" y="46" type="curve"/>
      <point x="262" y="31"/>
      <point x="242.192" y="26.479"/>
      <point x="225" y="27" type="curve" smooth="yes"/>
      <point x="176.192" y="28.479"/>
      <point x="135" y="39"/>
      <point x="100" y="67" type="curve" smooth="yes"/>
      <point x="37.6023" y="118.386"/>
      <point x="2" y="215.7"/>
      <point x="2" y="322" type="curve" smooth="yes"/>
      <point x="2" y="350"/>
      <point x="4" y="376"/>
      <point x="9" y="401" type="curve" smooth="yes"/>
      <point x="33" y="521"/>
      <point x="79" y="591"/>
      <point x="147" y="611" type="curve"/>
      <point x="-11" y="611" type="line"/>
      <point x="-11" y="673" type="line"/>
      <point x="181" y="673" type="line"/>
      <point x="168" y="698"/>
      <point x="143" y="715"/>
      <point x="107" y="725" type="curve" smooth="yes"/>
      <point x="89" y="730"/>
      <point x="53" y="734"/>
      <point x="-2" y="735" type="curve" smooth="yes"/>
      <point x="-102.599" y="736.973"/>
      <point x="-179" y="755.87"/>
      <point x="-179" y="847" type="curve" smooth="yes"/>
      <point x="-179" y="857"/>
      <point x="-176" y="886"/>
      <point x="-169" y="935" type="curve"/>
      <point x="-161" y="940"/>
      <point x="-151" y="943"/>
      <point x="-142" y="943" type="curve" smooth="yes"/>
      <point x="-128" y="943"/>
      <point x="-116" y="938"/>
      <point x="-107" y="927" type="curve"/>
      <point x="-115" y="893"/>
      <point x="-119" y="869"/>
      <point x="-119" y="855" type="curve" smooth="yes"/>
      <point x="-119" y="820"/>
      <point x="-96" y="801"/>
      <point x="-48" y="798" type="curve" smooth="yes"/>
      <point x="53" y="793"/>
      <point x="114" y="787"/>
      <point x="135" y="781" type="curve" smooth="yes"/>
      <point x="190" y="766"/>
      <point x="229" y="730"/>
      <point x="252" y="673" type="curve"/>
    </contour>
  </outline>
</glyph>
<glyph name="u09cd" format="2">
  <advance width="5"/>
  <unicode hex="09CD"/>
  <anchor x="-115" y="15" name="_Anchor-1"/>
  <outline>
    <contour>
      <point x="-71" y="10" type="line"/>
      <point x="94" y="-111" type="line"/>
      <point x="62" y="-154" type="line"/>
      <point x="-106" y="-28" type="line"/>
    </contour>
  </outline>
</glyph>
<glyph name="u09d7" format="2">
  <advance width="231"/>
  <unicode hex="09D7"/>
  <outline>
    <contour>
      <point x="-255" y="894" type="curve"/>
      <point x="-257" y="886"/>
      <point x="-258" y="878"/>
      <point x="-258" y="871" type="curve" smooth="yes"/>
      <point x="-258" y="832"/>
      <point x="-224" y="809"/>
      <point x="-156" y="803" type="curve"/>
      <point x="37" y="789" type="line"/>
      <point x="109" y="774"/>
      <point x="148" y="735"/>
      <point x="155" y="673" type="curve"/>
      <point x="238" y="673" type="line"/>
      <point x="238" y="610" type="line"/>
      <point x="162" y="610" type="line"/>
      <point x="162" y="76" type="line" smooth="yes"/>
      <point x="162" y="54"/>
      <point x="152" y="43"/>
      <point x="132" y="43" type="curve" smooth="yes"/>
      <point x="111" y="43"/>
      <point x="100" y="54"/>
      <point x="100" y="75" type="curve" smooth="yes"/>
      <point x="100" y="610" type="line"/>
      <point x="-6" y="610" type="line"/>
      <point x="-6" y="673" type="line"/>
      <point x="96" y="673" type="line"/>
      <point x="91" y="709"/>
      <point x="53" y="731"/>
      <point x="-18" y="738" type="curve" smooth="yes"/>
      <point x="-214" y="758" type="line"/>
      <point x="-283" y="774"/>
      <point x="-317" y="811"/>
      <point x="-317" y="868" type="curve" smooth="yes"/>
      <point x="-317" y="878"/>
      <point x="-316" y="889"/>
      <point x="-314" y="901" type="curve"/>
      <point x="-306" y="910"/>
      <point x="-296" y="915"/>
      <point x="-286" y="915" type="curve" smooth="yes"/>
      <point x="-273" y="915"/>
      <point x="-262" y="908"/>
    </contour>
  </outline>
</glyph>
